<svg xmlns="http://www.w3.org/2000/svg" width="50" height="70" viewBox="0 0 50 70" version="1.1"><g stroke="none" stroke-width="1" fill="none" fill-rule="evenodd"><g transform="translate(-20.000000, -12.000000)" fill="#EEEEEE"><g transform="translate(20.000000, 12.000000)" id="bfd-svg-color"><path d="M0 0L50 0 50 70 0 70 0 0ZM50 22L28 22 28 0 50 0 50 22ZM17 25L17 44.09 32 34.55 17 25ZM10.51 53.94L10.51 51.82 17.36 51.82 17.36 53.54 15.07 56.15C15.96 56.3 16.66 56.68 17.15 57.28 17.64 57.88 17.88 58.58 17.88 59.37 17.88 60.54 17.49 61.46 16.69 62.13 15.9 62.79 14.88 63.13 13.64 63.13 12.41 63.13 11.15 62.69 9.88 61.82L10.91 59.83C11.96 60.58 12.91 60.95 13.74 60.95 14.24 60.95 14.65 60.83 14.98 60.58 15.3 60.34 15.47 59.98 15.47 59.52 15.47 59.06 15.28 58.69 14.91 58.42 14.53 58.14 14.02 58.01 13.36 58.01 13 58.01 12.51 58.11 11.87 58.31L11.87 56.47 14.01 53.94 10.51 53.94ZM27.49 57.3L30 57.3 30 61.27C28.89 62.51 27.35 63.13 25.39 63.13 23.75 63.13 22.37 62.58 21.25 61.5 20.14 60.41 19.58 59.03 19.58 57.38 19.58 55.72 20.15 54.33 21.29 53.22 22.42 52.11 23.79 51.56 25.4 51.56 27 51.56 28.4 52.09 29.58 53.14L28.29 55.02C27.78 54.58 27.32 54.28 26.9 54.11 26.48 53.95 26.03 53.86 25.53 53.86 24.58 53.86 23.79 54.19 23.13 54.83 22.48 55.48 22.16 56.33 22.16 57.38 22.16 58.44 22.47 59.29 23.09 59.92 23.72 60.55 24.46 60.87 25.33 60.87 26.19 60.87 26.91 60.71 27.49 60.38L27.49 57.3ZM36.55 56.18C36.84 55.78 36.98 55.39 36.98 55.02 36.98 54.64 36.86 54.33 36.61 54.08 36.36 53.83 36.05 53.7 35.67 53.7 34.96 53.7 34.3 54.21 33.67 55.21L31.67 54.02C32.19 53.21 32.76 52.6 33.39 52.18 34.01 51.77 34.8 51.56 35.77 51.56 36.74 51.56 37.58 51.87 38.31 52.48 39.04 53.09 39.41 53.93 39.41 54.98 39.41 55.56 39.26 56.11 38.97 56.64 38.68 57.17 38.14 57.84 37.35 58.66L35.33 60.76 39.75 60.76 39.75 63 31.86 63 31.86 61.14 35.14 57.78C35.8 57.11 36.27 56.58 36.55 56.18Z" fill-opacity="0.9"/><path d="M28.81 0L28 0 28 22 50 22 50 21.94 28.81 0Z" fill-opacity="0.6"/><path d="M28.81 22L28 22 28 44 50 44 50 43.94 28.81 22Z" opacity="0.6" transform="translate(39.000000, 33.000000) rotate(-180.000000) translate(-39.000000, -33.000000) "/></g></g></g></svg>