<svg xmlns="http://www.w3.org/2000/svg" width="50" height="70" viewBox="0 0 50 70" version="1.1"><g stroke="none" stroke-width="1" fill="none" fill-rule="evenodd"><g transform="translate(-20.000000, -12.000000)" fill="#EEEEEE"><g transform="translate(20.000000, 12.000000)" id="bfd-svg-color"><path d="M0 0L50 0 50 70 0 70 0 0ZM50 22L28 22 28 0 50 0 50 22ZM11.4 48L9.4 55.5C9.3 55.8 9.2 55.8 9 55.8L5.3 55.8C5 55.8 5 55.7 5 55.5L12.2 30.3C12.3 29.9 12.4 29.5 12.4 28.3 12.4 28.1 12.5 28 12.7 28L18 28C18.1 28 18.2 28 18.2 28.3L26.3 55.5C26.3 55.7 26.3 55.8 26.1 55.8L21.9 55.8C21.7 55.8 21.6 55.8 21.5 55.6L19.5 48 11.4 48 11.4 48ZM32 46.5C32.1 49.9 33.7 52.2 37.5 52.2 39 52.2 40.3 52 41.7 51.4 41.8 51.3 42 51.4 42 51.6L42 54.7C42 55 41.9 55.1 41.7 55.2 40.4 55.9 38.7 56.2 36.6 56.2 29.9 56.2 27.4 51.3 27.4 45.8 27.4 39.8 30.5 34.9 35.9 34.9 41.5 34.9 43.4 39.5 43.4 43.3 43.4 44.5 43.3 45.5 43.2 46 43.1 46.2 43 46.3 42.8 46.3 42.3 46.4 40.8 46.5 38.6 46.5L32 46.5 32 46.5Z" fill-opacity="0.9"/><path d="M18.5 43.9C17.8 41.1 16 34.9 15.4 32L15.4 32C14.8 34.9 13.5 40 12.4 43.9L18.5 43.9 18.5 43.9Z" fill-opacity="0.9"/><path d="M37.2 43C38.5 43 38.9 43 39 42.9 39 42.8 39.1 42.6 39.1 42.5 39.1 41.1 38.4 38.6 35.8 38.6 33.4 38.6 32.3 40.7 32.1 43L37.2 43 37.2 43Z" fill-opacity="0.9"/><path d="M28.8 0L28 0 28 22 50 22 50 21.9 28.8 0Z" fill-opacity="0.6"/><path d="M28.8 22L28 22 28 44 50 44 50 43.9 28.8 22Z" opacity="0.6" transform="translate(39.000000, 33.000000) rotate(-180.000000) translate(-39.000000, -33.000000) "/></g></g></g></svg>