<svg xmlns="http://www.w3.org/2000/svg" width="50" height="70" viewBox="0 0 50 70" version="1.1"><g stroke="none" stroke-width="1" fill="none" fill-rule="evenodd"><g transform="translate(-20.000000, -12.000000)" fill="#EEEEEE"><g transform="translate(20.000000, 12.000000)" id="bfd-svg-color"><path d="M0 0L50 0 50 70 0 70 0 0ZM50 22L28 22 28 0 50 0 50 22ZM17.6 63L16.6 60.6 11.9 60.6 10.8 63 8.2 63 13 51.8 15.4 51.8 20.3 63 17.6 63ZM29.7 51.8L29.7 54 24.1 54 24.1 56.3 29.2 56.3 29.2 58.5 24.1 58.5 24.1 60.8 29.9 60.8 29.9 63 21.6 63 21.6 51.8 29.7 51.8ZM36.1 51.8C37.9 51.8 39.1 52.1 39.9 52.8 40.7 53.5 41.1 54.5 41.1 55.9 41.1 57.3 40.7 58.3 39.9 58.9 39.1 59.6 37.8 59.9 36.2 59.9L34.7 59.9 34.7 63 32.2 63 32.2 51.8 36.1 51.8ZM16 26L16 43.5 34 43.5 34 26 16 26Z" fill-opacity="0.9"/><path d="M14.2 55.1L12.8 58.4 15.6 58.4 14.2 55.1Z" fill-opacity="0.9"/><path d="M36.4 57.7C37.2 57.7 37.8 57.6 38.1 57.2 38.4 56.9 38.5 56.4 38.5 55.7 38.5 55.1 38.3 54.6 37.9 54.4 37.5 54.1 36.9 54 36.1 54L34.7 54 34.7 57.7 36.4 57.7Z" fill-opacity="0.9"/><path d="M20.3 37.3L19.6 40.1C19.6 40.2 19.6 40.2 19.5 40.2L18.1 40.2C18 40.2 18 40.2 18 40.1L20.6 30.9C20.7 30.7 20.7 30.6 20.7 30.1 20.7 30 20.8 30 20.8 30L22.8 30C22.8 30 22.9 30 22.9 30.1L25.8 40.1C25.8 40.2 25.8 40.2 25.8 40.2L24.2 40.2C24.1 40.2 24.1 40.2 24.1 40.1L23.3 37.3 20.3 37.3 20.3 37.3ZM22.9 35.8C22.7 34.8 22.1 32.6 21.8 31.5L21.8 31.5C21.6 32.6 21.1 34.4 20.7 35.8L22.9 35.8 22.9 35.8ZM27.9 36.8C28 38 28.5 38.9 30 38.9 30.5 38.9 31 38.8 31.5 38.6 31.5 38.6 31.6 38.6 31.6 38.7L31.6 39.8C31.6 39.9 31.6 40 31.5 40 31 40.3 30.4 40.4 29.6 40.4 27.2 40.4 26.2 38.6 26.2 36.5 26.2 34.3 27.4 32.5 29.4 32.5 31.4 32.5 32.1 34.2 32.1 35.6 32.1 36.1 32.1 36.4 32 36.6 32 36.7 32 36.7 31.9 36.7 31.7 36.8 31.2 36.8 30.4 36.8L27.9 36.8 27.9 36.8ZM29.8 35.5C30.3 35.5 30.5 35.5 30.5 35.5 30.5 35.4 30.5 35.4 30.5 35.3 30.5 34.8 30.3 33.9 29.3 33.9 28.4 33.9 28 34.7 28 35.5L29.8 35.5 29.8 35.5Z" fill-opacity="0.9"/><path d="M28.8 0L28 0 28 22 50 22 50 21.9 28.8 0Z" fill-opacity="0.6"/><path d="M28.8 22L28 22 28 44 50 44 50 43.9 28.8 22Z" opacity="0.6" transform="translate(39.000000, 33.000000) rotate(-180.000000) translate(-39.000000, -33.000000) "/></g></g></g></svg>