<svg xmlns="http://www.w3.org/2000/svg" width="50" height="70" viewBox="0 0 50 70" version="1.1"><g stroke="none" stroke-width="1" fill="none" fill-rule="evenodd"><g transform="translate(-20.000000, -12.000000)" fill="#EEEEEE"><g transform="translate(20.000000, 12.000000)" id="bfd-svg-color"><path d="M0 0L50 0 50 70 0 70 0 0ZM50 22L28 22 28 0 50 0 50 22ZM20.5 63L19.4 60.6 14.7 60.6 13.7 63 11.1 63 15.9 51.8 18.3 51.8 23.1 63 20.5 63ZM28 58.9L30.8 51.8 33.5 51.8 29 63 26.9 63 22.4 51.8 25.1 51.8 28 58.9ZM34.9 51.8L37.4 51.8 37.4 63 34.9 63 34.9 51.8ZM31 27L33 31 30 31 28 27 26 27 28 31 25 31 23 27 21 27 23 31 20 31 18 27 17 27C15.9 27 15 27.9 15 29L15 41C15 42.1 15.9 43 17 43L33 43C34.1 43 35 42.1 35 41L35 27 31 27Z" fill-opacity="0.9"/><path d="M17.1 55.1L15.7 58.4 18.5 58.4 17.1 55.1Z" fill-opacity="0.9"/><path d="M28.8 0L28 0 28 22 50 22 50 21.9 28.8 0Z" fill-opacity="0.6"/><path d="M28.8 22L28 22 28 44 50 44 50 43.9 28.8 22Z" opacity="0.6" transform="translate(39.000000, 33.000000) rotate(-180.000000) translate(-39.000000, -33.000000) "/></g></g></g></svg>