<svg xmlns="http://www.w3.org/2000/svg" width="50" height="70" viewBox="0 0 50 70" version="1.1"><g stroke="none" stroke-width="1" fill="none" fill-rule="evenodd"><g transform="translate(-20.000000, -12.000000)" fill="#EEEEEE"><g transform="translate(20.000000, 12.000000)" id="bfd-svg-color"><path d="M0 0L50 0 50 70 0 70 0 0ZM50 22L28 22 28 0 50 0 50 22ZM31 25L26 29.5 26 40.5 31 36 31 25ZM18.5 28C16.6 28 14.5 28.4 13 29.5L13 44.2C13 44.4 13.3 44.7 13.5 44.7 13.6 44.7 13.7 44.6 13.8 44.6 15.1 43.9 17.1 43.5 18.5 43.5 20.5 43.5 22.6 43.9 24 45 25.4 44.2 27.8 43.5 29.5 43.5 31.2 43.5 32.9 43.8 34.3 44.6 34.4 44.6 34.4 44.6 34.5 44.6 34.8 44.6 35 44.3 35 44.1L35 29.5C34.4 29.1 33.8 28.8 33 28.5L33 30.5 33 36 33 42C31.9 41.7 30.7 41.5 29.5 41.5 27.8 41.5 25.4 42.2 24 43L24 36 24 31.5 24 29.5C22.6 28.4 20.5 28 18.5 28ZM14.7 63L13.6 60.6 8.9 60.6 7.9 63 5.2 63 10.1 51.8 12.5 51.8 17.3 63 14.7 63ZM18.1 63L18.1 61.3 23.9 54 18.2 54 18.2 51.8 27.3 51.8 27.3 53.5 21.5 60.8 27.4 60.8 27.4 63 18.1 63ZM33.2 58.2L35.1 51.8 37.8 51.8 39.7 58.2 41.9 51.8 44.6 51.8 40.7 63 38.9 63 36.4 55.2 34 63 32.2 63 28.2 51.8 31 51.8 33.2 58.2Z" fill-opacity="0.9"/><path d="M11.3 55.1L9.9 58.4 12.7 58.4 11.3 55.1Z" fill-opacity="0.9"/><path d="M28.8 0L28 0 28 22 50 22 50 21.9 28.8 0Z" fill-opacity="0.6"/><path d="M28.8 22L28 22 28 44 50 44 50 43.9 28.8 22Z" opacity="0.6" transform="translate(39.000000, 33.000000) rotate(-180.000000) translate(-39.000000, -33.000000) "/></g></g></g></svg>