<svg xmlns="http://www.w3.org/2000/svg" width="50" height="70" viewBox="0 0 50 70" version="1.1"><g stroke="none" stroke-width="1" fill="none" fill-rule="evenodd"><g transform="translate(-20.000000, -12.000000)" fill="#EEEEEE"><g transform="translate(20.000000, 12.000000)" id="bfd-svg-color"><path d="M0 0L50 0 50 70 0 70 0 0ZM50 22L28 22 28 0 50 0 50 22ZM15.3 60.8C16.5 60.8 17.6 60.3 18.3 59.3L19.9 61C18.7 62.4 17.2 63.1 15.4 63.1 13.7 63.1 12.3 62.6 11.2 61.5 10.1 60.4 9.5 59 9.5 57.4 9.5 55.7 10.1 54.3 11.2 53.2 12.4 52.1 13.7 51.6 15.4 51.6 17.2 51.6 18.8 52.3 20 53.7L18.4 55.4C17.7 54.4 16.7 53.9 15.5 53.9 14.6 53.9 13.8 54.3 13.1 54.9 12.4 55.5 12.1 56.3 12.1 57.3 12.1 58.4 12.4 59.2 13 59.8 13.7 60.5 14.4 60.8 15.3 60.8ZM24.6 54C24.4 54.2 24.2 54.5 24.2 54.8 24.2 55.2 24.4 55.4 24.7 55.6 25 55.8 25.6 56 26.7 56.3 27.8 56.5 28.6 56.9 29.2 57.5 29.8 58 30.1 58.7 30.1 59.8 30.1 60.8 29.7 61.6 28.9 62.2 28.2 62.8 27.2 63.1 26 63.1 24.2 63.1 22.6 62.5 21.2 61.2L22.7 59.3C23.9 60.4 25 60.9 26 60.9 26.5 60.9 26.8 60.8 27.1 60.6 27.4 60.4 27.5 60.2 27.5 59.8 27.5 59.5 27.3 59.2 27.1 59 26.8 58.8 26.2 58.6 25.4 58.4 24.1 58.1 23.2 57.7 22.6 57.2 22 56.7 21.7 55.9 21.7 54.9 21.7 53.8 22 53 22.8 52.4 23.6 51.8 24.5 51.6 25.7 51.6 26.4 51.6 27.2 51.7 27.9 51.9 28.6 52.2 29.3 52.6 29.9 53L28.6 54.9C27.6 54.1 26.6 53.8 25.6 53.8 25.2 53.8 24.8 53.9 24.6 54ZM34.9 54C34.6 54.2 34.5 54.5 34.5 54.8 34.5 55.2 34.7 55.4 35 55.6 35.3 55.8 35.9 56 37 56.3 38.1 56.5 38.9 56.9 39.5 57.5 40.1 58 40.4 58.7 40.4 59.8 40.4 60.8 40 61.6 39.2 62.2 38.5 62.8 37.5 63.1 36.3 63.1 34.5 63.1 32.9 62.5 31.5 61.2L33 59.3C34.2 60.4 35.3 60.9 36.3 60.9 36.8 60.9 37.1 60.8 37.4 60.6 37.6 60.4 37.8 60.2 37.8 59.8 37.8 59.5 37.6 59.2 37.4 59 37.1 58.8 36.5 58.6 35.7 58.4 34.4 58.1 33.5 57.7 32.9 57.2 32.3 56.7 32 55.9 32 54.9 32 53.8 32.3 53 33.1 52.4 33.9 51.8 34.8 51.6 36 51.6 36.7 51.6 37.4 51.7 38.2 51.9 38.9 52.2 39.6 52.6 40.1 53L38.9 54.9C37.9 54.1 36.9 53.8 35.9 53.8 35.5 53.8 35.1 53.9 34.9 54ZM11 34.8L11 32.6 18.8 28.9 18.8 31.3 13.6 33.6 18.8 36.1 18.8 38.4 11 34.8ZM27.2 27.1L29.5 27.1 22.7 41.8 20.5 41.8 27.2 27.1ZM38.9 32.6L38.9 34.8 31.1 38.4 31.1 36.1 36.3 33.6 31.1 31.3 31.1 28.9 38.9 32.6Z" fill-opacity="0.9"/><path d="M28.8 0L28 0 28 22 50 22 50 21.9 28.8 0Z" fill-opacity="0.6"/><path d="M28.8 22L28 22 28 44 50 44 50 43.9 28.8 22Z" opacity="0.6" transform="translate(39.000000, 33.000000) rotate(-180.000000) translate(-39.000000, -33.000000) "/></g></g></g></svg>