<svg xmlns="http://www.w3.org/2000/svg" width="50" height="70" viewBox="0 0 50 70" version="1.1"><g stroke="none" stroke-width="1" fill="none" fill-rule="evenodd"><g transform="translate(-20.000000, -12.000000)" fill="#EEEEEE"><g transform="translate(20.000000, 12.000000)" id="bfd-svg-color"><path d="M0 0L50 0 50 70 0 70 0 0ZM50 22L28 22 28 0 50 0 50 22ZM16.2 53.3C17.2 54.3 17.8 55.6 17.8 57.4 17.8 59.1 17.3 60.5 16.2 61.5 15.2 62.5 13.6 63 11.5 63L7.6 63 7.6 51.8 11.6 51.8C13.6 51.8 15.1 52.3 16.2 53.3ZM25.3 63.1C23.6 63.1 22.2 62.6 21.1 61.5 19.9 60.4 19.4 59 19.4 57.3 19.4 55.7 19.9 54.3 21.1 53.2 22.2 52.1 23.6 51.6 25.3 51.6 26.9 51.6 28.3 52.1 29.4 53.2 30.6 54.3 31.1 55.7 31.1 57.3 31.1 59 30.6 60.4 29.4 61.5 28.3 62.6 26.9 63.1 25.3 63.1ZM38.5 60.8C39.7 60.8 40.7 60.3 41.5 59.3L43.1 61C41.8 62.4 40.3 63.1 38.6 63.1 36.9 63.1 35.4 62.6 34.3 61.5 33.2 60.4 32.6 59 32.6 57.4 32.6 55.7 33.2 54.3 34.4 53.2 35.5 52.1 36.9 51.6 38.5 51.6 40.4 51.6 41.9 52.3 43.1 53.7L41.6 55.4C40.8 54.4 39.8 53.9 38.6 53.9 37.7 53.9 36.9 54.3 36.2 54.9 35.6 55.5 35.2 56.3 35.2 57.3 35.2 58.4 35.5 59.2 36.2 59.8 36.8 60.5 37.6 60.8 38.5 60.8ZM15 44L33 44 33 42 15 42 15 44ZM15 40L33 40 33 38 15 38 15 40ZM15 36L33 36 33 34 15 34 15 36ZM15 32L33 32 33 30 15 30 15 32ZM15 26L15 28 26 28 26 26 15 26Z" fill-opacity="0.9"/><path d="M14.3 59.9C15 59.4 15.3 58.5 15.3 57.4 15.3 56.3 15 55.5 14.3 54.9 13.7 54.3 12.8 54 11.5 54L10.1 54 10.1 60.8 11.7 60.8C12.9 60.8 13.7 60.5 14.3 59.9L14.3 59.9Z" fill-opacity="0.9"/><path d="M27.6 54.8C27 54.1 26.2 53.7 25.3 53.7 24.3 53.7 23.5 54.1 22.9 54.8 22.3 55.5 21.9 56.3 21.9 57.3 21.9 58.3 22.3 59.2 22.9 59.9 23.5 60.6 24.3 60.9 25.3 60.9 26.2 60.9 27 60.6 27.6 59.9 28.3 59.2 28.6 58.3 28.6 57.3 28.6 56.3 28.3 55.5 27.6 54.8L27.6 54.8Z" fill-opacity="0.9"/><path d="M28.8 0L28 0 28 22 50 22 50 21.9 28.8 0Z" fill-opacity="0.6"/><path d="M28.8 22L28 22 28 44 50 44 50 43.9 28.8 22Z" opacity="0.6" transform="translate(39.000000, 33.000000) rotate(-180.000000) translate(-39.000000, -33.000000) "/></g></g></g></svg>