<svg xmlns="http://www.w3.org/2000/svg" width="50" height="70" viewBox="0 0 50 70" version="1.1"><g stroke="none" stroke-width="1" fill="none" fill-rule="evenodd"><g transform="translate(-20.000000, -12.000000)" fill="#EEEEEE"><g transform="translate(20.000000, 12.000000)" id="bfd-svg-color"><path d="M0 0L50 0 50 70 0 70 0 0ZM50 22L28 22 28 0 50 0 50 22ZM31 25L26 29.5 26 40.5 31 36 31 25ZM18.5 28C16.6 28 14.5 28.4 13 29.5L13 44.2C13 44.4 13.3 44.7 13.5 44.7 13.6 44.7 13.7 44.6 13.8 44.6 15.1 43.9 17.1 43.5 18.5 43.5 20.5 43.5 22.6 43.9 24 45 25.4 44.2 27.8 43.5 29.5 43.5 31.2 43.5 32.9 43.8 34.3 44.6 34.4 44.6 34.4 44.6 34.5 44.6 34.8 44.6 35 44.3 35 44.1L35 29.5C34.4 29.1 33.8 28.8 33 28.5L33 30.5 33 36 33 42C31.9 41.7 30.7 41.5 29.5 41.5 27.8 41.5 25.4 42.2 24 43L24 36 24 31.5 24 29.5C22.6 28.4 20.5 28 18.5 28ZM12.1 51.8L12.1 54 6.5 54 6.5 56.3 11.5 56.3 11.5 58.5 6.5 58.5 6.5 60.8 12.3 60.8 12.3 63 4 63 4 51.8 12.1 51.8ZM18.5 51.8C20.3 51.8 21.5 52.1 22.3 52.8 23.1 53.5 23.5 54.5 23.5 55.9 23.5 57.3 23.1 58.3 22.3 58.9 21.5 59.6 20.2 59.9 18.6 59.9L17.1 59.9 17.1 63 14.6 63 14.6 51.8 18.5 51.8ZM28.5 60.1C28.9 60.6 29.4 60.9 30.1 60.9 30.8 60.9 31.4 60.6 31.8 60.1 32.2 59.6 32.4 58.9 32.4 58L32.4 51.8 34.9 51.8 34.9 58.1C34.9 59.7 34.5 60.9 33.6 61.8 32.7 62.7 31.5 63.1 30.1 63.1 28.7 63.1 27.6 62.7 26.7 61.8 25.8 60.9 25.3 59.7 25.3 58.1L25.3 51.8 27.8 51.8 27.8 58C27.8 58.9 28 59.6 28.5 60.1ZM42.5 63L37.6 63 37.6 51.8 42 51.8C42.7 51.8 43.4 51.9 43.9 52.1 44.5 52.3 44.9 52.5 45.2 52.8 45.7 53.4 45.9 54.1 45.9 54.8 45.9 55.7 45.6 56.3 45.1 56.7 44.9 56.9 44.7 57 44.7 57 44.6 57 44.5 57.1 44.3 57.2 45 57.3 45.5 57.7 45.9 58.1 46.3 58.6 46.5 59.2 46.5 59.9 46.5 60.7 46.3 61.4 45.7 62 45.1 62.7 44 63 42.5 63Z" opacity="0.9"/><path d="M18.8 57.7C19.6 57.7 20.2 57.6 20.5 57.2 20.8 56.9 20.9 56.4 20.9 55.7 20.9 55.1 20.7 54.6 20.3 54.4 19.9 54.1 19.3 54 18.5 54L17.1 54 17.1 57.7 18.8 57.7Z" fill-opacity="0.9"/><path d="M40.1 56.3L41.3 56.3C42 56.3 42.5 56.3 42.8 56.1 43.2 56 43.3 55.6 43.3 55.2 43.3 54.7 43.2 54.3 42.9 54.2 42.6 54 42 53.9 41.3 53.9L40.1 53.9 40.1 56.3Z" fill-opacity="0.9"/><path d="M40.1 60.9L41.8 60.9C42.5 60.9 43.1 60.8 43.4 60.6 43.8 60.4 44 60.1 44 59.6 44 59.1 43.8 58.7 43.4 58.6 43 58.4 42.4 58.3 41.6 58.3L40.1 58.3 40.1 60.9Z" fill-opacity="0.9"/><path d="M28.8 0L28 0 28 22 50 22 50 21.9 28.8 0Z" fill-opacity="0.6"/><path d="M28.8 22L28 22 28 44 50 44 50 43.9 28.8 22Z" opacity="0.6" transform="translate(39.000000, 33.000000) rotate(-180.000000) translate(-39.000000, -33.000000) "/></g></g></g></svg>