<svg xmlns="http://www.w3.org/2000/svg" width="50" height="70" viewBox="0 0 50 70" version="1.1"><g stroke="none" stroke-width="1" fill="none" fill-rule="evenodd"><g transform="translate(-20.000000, -12.000000)" fill="#EEEEEE"><g transform="translate(20.000000, 12.000000)" id="bfd-svg-color"><path d="M0 0L50 0 50 70 0 70 0 0ZM50 22L28 22 28 0 50 0 50 22ZM10 51.8L12.5 51.8 12.5 63 10 63 10 58.6 5.6 58.6 5.6 63 3.1 63 3.1 51.8 5.6 51.8 5.6 56.5 10 56.5 10 51.8ZM20.1 54L20.1 63 17.6 63 17.6 54 14.4 54 14.4 51.8 23.3 51.8 23.3 54 20.1 54ZM35.2 56L32.2 62.1 30.7 62.1 27.7 56 27.7 63 25.2 63 25.2 51.8 28.5 51.8 31.4 58 34.3 51.8 37.7 51.8 37.7 63 35.2 63 35.2 56ZM40.5 63L40.5 51.8 43 51.8 43 60.8 47.8 60.8 47.8 63 40.5 63ZM19.9 39.8C19.7 39.8 19.4 39.7 19.2 39.6L14.6 35.8C14.3 35.5 14.2 35.2 14.2 34.8 14.2 34.5 14.3 34.2 14.6 33.9L19.2 30.1C19.7 29.7 20.4 29.8 20.8 30.3 21.3 30.8 21.2 31.5 20.7 32L17.2 34.8 20.7 37.7C21.2 38.2 21.3 38.9 20.8 39.4 20.6 39.7 20.3 39.8 19.9 39.8ZM29.7 39.8C29.3 39.8 29 39.7 28.8 39.4 28.3 38.9 28.4 38.2 28.9 37.7L32.4 34.8 28.9 32C28.4 31.5 28.3 30.8 28.8 30.3 29.2 29.8 29.9 29.7 30.4 30.1L35 33.9C35.3 34.2 35.4 34.5 35.4 34.8 35.4 35.2 35.3 35.5 35 35.8L30.4 39.6C30.2 39.7 29.9 39.8 29.7 39.8ZM22.6 43.6C22.5 43.6 22.4 43.6 22.3 43.5 21.7 43.3 21.3 42.7 21.5 42.1L25.8 27C26 26.4 26.7 26 27.3 26.2 27.9 26.4 28.3 27 28.1 27.6L23.8 42.7C23.6 43.2 23.1 43.6 22.6 43.6Z" fill-opacity="0.9"/><path d="M28.8 0L28 0 28 22 50 22 50 21.9 28.8 0Z" fill-opacity="0.6"/><path d="M28.8 22L28 22 28 44 50 44 50 43.9 28.8 22Z" opacity="0.6" transform="translate(39.000000, 33.000000) rotate(-180.000000) translate(-39.000000, -33.000000) "/></g></g></g></svg>