<svg xmlns="http://www.w3.org/2000/svg" width="50" height="70" viewBox="0 0 50 70" version="1.1"><g stroke="none" stroke-width="1" fill="none" fill-rule="evenodd"><g transform="translate(-20.000000, -12.000000)" fill="#EEEEEE"><g transform="translate(20.000000, 12.000000)" id="bfd-svg-color"><path d="M0 0L50 0 50 70 0 70 0 0ZM50 22L28 22 28 0 50 0 50 22ZM11.9 51.8L14.4 51.8 14.4 63 11.9 63 11.9 51.8ZM19.9 54C19.6 54.2 19.5 54.5 19.5 54.8 19.5 55.2 19.6 55.4 19.9 55.6 20.2 55.8 20.9 56 22 56.3 23 56.5 23.9 56.9 24.4 57.5 25 58 25.3 58.7 25.3 59.8 25.3 60.8 25 61.6 24.2 62.2 23.4 62.8 22.5 63.1 21.2 63.1 19.5 63.1 17.9 62.5 16.4 61.2L17.9 59.3C19.1 60.4 20.3 60.9 21.3 60.9 21.7 60.9 22.1 60.8 22.4 60.6 22.6 60.4 22.8 60.2 22.8 59.8 22.8 59.5 22.6 59.2 22.3 59 22.1 58.8 21.5 58.6 20.7 58.4 19.4 58.1 18.4 57.7 17.8 57.2 17.2 56.7 16.9 55.9 16.9 54.9 16.9 53.8 17.3 53 18.1 52.4 18.8 51.8 19.8 51.6 20.9 51.6 21.7 51.6 22.4 51.7 23.2 51.9 23.9 52.2 24.6 52.6 25.1 53L23.9 54.9C22.9 54.1 21.9 53.8 20.8 53.8 20.4 53.8 20.1 53.9 19.9 54ZM32.8 63.1C31.1 63.1 29.7 62.6 28.6 61.5 27.5 60.4 26.9 59 26.9 57.3 26.9 55.7 27.5 54.3 28.6 53.2 29.7 52.1 31.1 51.6 32.8 51.6 34.4 51.6 35.8 52.1 36.9 53.2 38.1 54.3 38.6 55.7 38.6 57.3 38.6 59 38.1 60.4 36.9 61.5 35.8 62.6 34.4 63.1 32.8 63.1ZM24 25C18.5 25 14 29.5 14 35 14 40.5 18.5 45 24 45 29.5 45 34 40.5 34 35 34 29.5 29.5 25 24 25Z" fill-opacity="0.9" /><path d="M24 39.5C21.5 39.5 19.5 37.5 19.5 35 19.5 32.5 21.5 30.5 24 30.5 26.5 30.5 28.5 32.5 28.5 35 28.5 37.5 26.5 39.5 24 39.5L24 39.5Z" stroke="#979797"/><path d="M24 34C23.5 34 23 34.5 23 35 23 35.6 23.5 36 24 36 24.6 36 25 35.6 25 35 25 34.5 24.6 34 24 34L24 34Z" fill-opacity="0.9"  fill="#000000"/><path d="M35.1 54.8C34.5 54.1 33.7 53.7 32.8 53.7 31.8 53.7 31.1 54.1 30.4 54.8 29.8 55.5 29.5 56.3 29.5 57.3 29.5 58.3 29.8 59.2 30.4 59.9 31.1 60.6 31.8 60.9 32.8 60.9 33.7 60.9 34.5 60.6 35.1 59.9 35.8 59.2 36.1 58.3 36.1 57.3 36.1 56.3 35.8 55.5 35.1 54.8L35.1 54.8Z" fill-opacity="0.9" /><path d="M28.8 0L28 0 28 22 50 22 50 21.9 28.8 0Z" fill-opacity="0.6" /><path d="M28.8 22L28 22 28 44 50 44 50 43.9 28.8 22Z" opacity="0.6"  transform="translate(39.000000, 33.000000) rotate(-180.000000) translate(-39.000000, -33.000000) "/></g></g></g></svg>