<svg xmlns="http://www.w3.org/2000/svg" width="50" height="70" viewBox="0 0 50 70" version="1.1"><g stroke="none" stroke-width="1" fill="none" fill-rule="evenodd"><g transform="translate(-20.000000, -12.000000)" fill="#EEEEEE"><g transform="translate(20.000000, 12.000000)" id="bfd-svg-color"><path d="M0 0L50 0 50 70 0 70 0 0ZM50 22L28 22 28 0 50 0 50 22ZM5.5 54L5.5 51.8 11.4 51.8 11.4 59.1C11.4 60.4 11 61.4 10.3 62.1 9.6 62.8 8.8 63.1 7.7 63.1 6.3 63.1 5.2 62.6 4.2 61.5L5.4 59.8C6.1 60.5 6.8 60.8 7.6 60.8 7.9 60.8 8.2 60.7 8.5 60.4 8.7 60.2 8.8 59.8 8.8 59.2L8.8 54 5.5 54ZM21.8 52.8C22.6 53.5 23 54.5 23 55.9 23 57.3 22.6 58.3 21.8 58.9 21 59.6 19.7 59.9 18.1 59.9L16.6 59.9 16.6 63 14.1 63 14.1 51.8 18 51.8C19.8 51.8 21 52.1 21.8 52.8ZM33.1 51.8L33.1 54 27.5 54 27.5 56.3 32.5 56.3 32.5 58.5 27.5 58.5 27.5 60.8 33.2 60.8 33.2 63 25 63 25 51.8 33.1 51.8ZM42.8 57.3L45.3 57.3 45.3 61.3C44.2 62.5 42.7 63.1 40.7 63.1 39.1 63.1 37.7 62.6 36.6 61.5 35.5 60.4 34.9 59 34.9 57.4 34.9 55.7 35.5 54.3 36.6 53.2 37.8 52.1 39.1 51.6 40.7 51.6 42.3 51.6 43.7 52.1 44.9 53.1L43.6 55C43.1 54.6 42.7 54.3 42.2 54.1 41.8 53.9 41.4 53.9 40.9 53.9 39.9 53.9 39.1 54.2 38.5 54.8 37.8 55.5 37.5 56.3 37.5 57.4 37.5 58.4 37.8 59.3 38.4 59.9 39.1 60.6 39.8 60.9 40.7 60.9 41.5 60.9 42.2 60.7 42.8 60.4L42.8 57.3ZM26.8 29L22.5 34.7 25.8 39 23.9 40.4C22 37.8 18.8 33.5 18.8 33.5L12 42.6 37 42.6 26.8 29ZM13.9 28.1C15.6 28.1 17 26.8 17 25.1 17 23.4 15.6 22 13.9 22 12.2 22 10.9 23.4 10.9 25.1 10.9 26.8 12.2 28.1 13.9 28.1Z" fill-opacity="0.9"/><path d="M20 57.2C20.3 56.9 20.4 56.4 20.4 55.7 20.4 55.1 20.2 54.6 19.8 54.4 19.4 54.1 18.8 54 18 54L16.6 54 16.6 57.7 18.3 57.7C19.1 57.7 19.7 57.6 20 57.2L20 57.2Z" fill-opacity="0.9"/><path d="M28.8 0L28 0 28 22 50 22 50 21.9 28.8 0Z" fill-opacity="0.6"/><path d="M28.8 22L28 22 28 44 50 44 50 43.9 28.8 22Z" opacity="0.6" transform="translate(39.000000, 33.000000) rotate(-180.000000) translate(-39.000000, -33.000000) "/></g></g></g></svg>