<svg xmlns="http://www.w3.org/2000/svg" width="50" height="70" viewBox="0 0 50 70" version="1.1"><g stroke="none" stroke-width="1" fill="none" fill-rule="evenodd"><g transform="translate(-20.000000, -12.000000)" fill="#EEEEEE"><g transform="translate(20.000000, 12.000000)" id="bfd-svg-color"><path d="M0 0L50 0 50 70 0 70 0 0ZM50 22L28 22 28 0 50 0 50 22ZM31 25L26 29.5 26 40.5 31 36 31 25ZM18.5 28C16.6 28 14.5 28.4 13 29.5L13 44.2C13 44.4 13.3 44.7 13.5 44.7 13.6 44.7 13.7 44.6 13.8 44.6 15.1 43.9 17.1 43.5 18.5 43.5 20.5 43.5 22.6 43.9 24 45 25.4 44.2 27.8 43.5 29.5 43.5 31.2 43.5 32.9 43.8 34.3 44.6 34.4 44.6 34.4 44.6 34.5 44.6 34.8 44.6 35 44.3 35 44.1L35 29.5C34.4 29.1 33.8 28.8 33 28.5L33 30.5 33 36 33 42C31.9 41.7 30.7 41.5 29.5 41.5 27.8 41.5 25.4 42.2 24 43L24 36 24 31.5 24 29.5C22.6 28.4 20.5 28 18.5 28ZM13.8 56L10.8 62.1 9.3 62.1 6.3 56 6.3 63 3.8 63 3.8 51.8 7.2 51.8 10.1 58 13 51.8 16.3 51.8 16.3 63 13.8 63 13.8 56ZM28.6 61.5C27.5 62.6 26.1 63.1 24.4 63.1 22.8 63.1 21.4 62.6 20.2 61.5 19.1 60.4 18.5 59 18.5 57.3 18.5 55.7 19.1 54.3 20.2 53.2 21.4 52.1 22.8 51.6 24.4 51.6 26.1 51.6 27.5 52.1 28.6 53.2 29.7 54.3 30.3 55.7 30.3 57.3 30.3 59 29.7 60.4 28.6 61.5ZM37.4 63L32.5 63 32.5 51.8 36.8 51.8C37.6 51.8 38.2 51.9 38.8 52.1 39.3 52.3 39.8 52.5 40 52.8 40.5 53.4 40.8 54.1 40.8 54.8 40.8 55.7 40.5 56.3 39.9 56.7 39.7 56.9 39.6 57 39.5 57 39.5 57 39.3 57.1 39.1 57.2 39.8 57.3 40.4 57.7 40.8 58.1 41.2 58.6 41.4 59.2 41.4 59.9 41.4 60.7 41.1 61.4 40.6 62 40 62.7 38.9 63 37.4 63ZM43.6 51.8L46.1 51.8 46.1 63 43.6 63 43.6 51.8Z" fill-opacity="0.9"/><path d="M27.7 57.4C27.7 56.3 27.4 55.5 26.8 54.8 26.1 54.1 25.4 53.7 24.4 53.7 23.5 53.7 22.7 54.1 22.1 54.8 21.4 55.5 21.1 56.3 21.1 57.3 21.1 58.3 21.4 59.2 22.1 59.9 22.7 60.6 23.5 60.9 24.4 60.9 25.4 60.9 26.1 60.6 26.8 59.9 27.4 59.2 27.7 58.3 27.7 57.4L27.7 57.4Z" fill-opacity="0.9"/><path d="M35 56.3L36.2 56.3C36.9 56.3 37.4 56.3 37.7 56.1 38 56 38.2 55.6 38.2 55.2 38.2 54.7 38.1 54.3 37.7 54.2 37.4 54 36.9 53.9 36.2 53.9L35 53.9 35 56.3Z" fill-opacity="0.9"/><path d="M35 60.9L36.7 60.9C37.4 60.9 37.9 60.8 38.3 60.6 38.7 60.4 38.8 60.1 38.8 59.6 38.8 59.1 38.6 58.7 38.3 58.6 37.9 58.4 37.3 58.3 36.4 58.3L35 58.3 35 60.9Z" fill-opacity="0.9"/><path d="M28.8 0L28 0 28 22 50 22 50 21.9 28.8 0Z" fill-opacity="0.6"/><path d="M28.8 22L28 22 28 44 50 44 50 43.9 28.8 22Z" opacity="0.6" transform="translate(39.000000, 33.000000) rotate(-180.000000) translate(-39.000000, -33.000000) "/></g></g></g></svg>