<svg xmlns="http://www.w3.org/2000/svg" width="50" height="70" viewBox="0 0 50 70" version="1.1"><g stroke="none" stroke-width="1" fill="none" fill-rule="evenodd"><g transform="translate(-20.000000, -12.000000)" fill="#EEEEEE"><g transform="translate(20.000000, 12.000000)" id="bfd-svg-color"><path d="M0 0L50 0 50 70 0 70 0 0ZM50 22L28 22 28 0 50 0 50 22ZM18.5 56L15.5 62.1 14 62.1 11 56 11 63 8.5 63 8.5 51.8 11.9 51.8 14.7 58 17.6 51.8 21 51.8 21 63 18.5 63 18.5 56ZM31.5 52.8C32.3 53.5 32.7 54.5 32.7 55.9 32.7 57.3 32.3 58.3 31.5 58.9 30.7 59.6 29.5 59.9 27.8 59.9L26.3 59.9 26.3 63 23.8 63 23.8 51.8 27.8 51.8C29.5 51.8 30.7 52.1 31.5 52.8ZM34.6 53.9L34.6 51.8 41.4 51.8 41.4 53.5 39.1 56.2C40 56.3 40.7 56.7 41.2 57.3 41.7 57.9 41.9 58.6 41.9 59.4 41.9 60.5 41.5 61.5 40.7 62.1 40 62.8 38.9 63.1 37.7 63.1 36.5 63.1 35.2 62.7 33.9 61.8L35 59.8C36 60.6 37 61 37.8 61 38.3 61 38.7 60.8 39 60.6 39.4 60.3 39.5 60 39.5 59.5 39.5 59.1 39.3 58.7 39 58.4 38.6 58.1 38.1 58 37.4 58 37.1 58 36.6 58.1 35.9 58.3L35.9 56.5 38.1 53.9 34.6 53.9ZM28 27L28 35.8C27.5 35.5 26.9 35.3 26.3 35.3 24.5 35.3 23 36.8 23 38.7 23 40.5 24.5 42 26.3 42 28.2 42 29.7 40.5 29.7 38.7L29.7 30.3 33 30.3 33 27 28 27ZM19 28L19 37.3C18.5 37 17.9 36.8 17.3 36.8 15.5 36.8 14 38.4 14 40.3 14 42.3 15.5 43.8 17.3 43.8 19.2 43.8 20.7 42.3 20.7 40.3L20.7 31.5 24 31.5 24 28 19 28Z" fill-opacity="0.9"/><path d="M29.7 57.2C30 56.9 30.1 56.4 30.1 55.7 30.1 55.1 29.9 54.6 29.6 54.4 29.2 54.1 28.6 54 27.7 54L26.3 54 26.3 57.7 28 57.7C28.8 57.7 29.4 57.6 29.7 57.2L29.7 57.2Z" fill-opacity="0.9"/><path d="M28.8 0L28 0 28 22 50 22 50 21.9 28.8 0Z" fill-opacity="0.6"/><path d="M28.8 22L28 22 28 44 50 44 50 43.9 28.8 22Z" opacity="0.6" transform="translate(39.000000, 33.000000) rotate(-180.000000) translate(-39.000000, -33.000000) "/></g></g></g></svg>