<svg xmlns="http://www.w3.org/2000/svg" width="50" height="70" viewBox="0 0 50 70" version="1.1"><g stroke="none" stroke-width="1" fill="none" fill-rule="evenodd"><g transform="translate(-20.000000, -12.000000)" fill="#EEEEEE"><g transform="translate(20.000000, 12.000000)" id="bfd-svg-color"><path d="M0 0L50 0 50 70 0 70 0 0ZM50 22L28 22 28 0 50 0 50 22ZM18.5 56L15.5 62.1 14 62.1 11 56 11 63 8.5 63 8.5 51.8 11.9 51.8 14.8 58 17.7 51.8 21 51.8 21 63 18.5 63 18.5 56ZM31.6 52.8C32.3 53.5 32.7 54.5 32.7 55.9 32.7 57.3 32.3 58.3 31.5 58.9 30.7 59.6 29.5 59.9 27.8 59.9L26.3 59.9 26.3 63 23.8 63 23.8 51.8 27.8 51.8C29.5 51.8 30.8 52.1 31.6 52.8ZM38.5 58.2L38.5 56.2 40.9 56.2 40.9 58.2 42.1 58.2 42.1 60.3 40.9 60.3 40.9 63 38.5 63 38.5 60.3 34 60.3 34 58.4 37.9 51.8 40.7 51.8 36.9 58.2 38.5 58.2ZM34 26L16 26C14.9 26 14 26.9 14 28L14 40C14 41.1 14.9 42 16 42L21 42 21 44 29 44 29 42 34 42C35.1 42 36 41.1 36 40L36 28C36 26.9 35.1 26 34 26Z" fill-opacity="0.9"/><path d="M34 40L16 40 16 28 34 28 34 40ZM29 34L22 38 22 30 29 34Z" fill-opacity="0.9"/><path d="M29.7 57.2C30 56.9 30.2 56.4 30.2 55.7 30.2 55.1 30 54.6 29.6 54.4 29.2 54.1 28.6 54 27.8 54L26.3 54 26.3 57.7 28 57.7C28.9 57.7 29.4 57.6 29.7 57.2L29.7 57.2Z" fill-opacity="0.9"/><path d="M28.8 0L28 0 28 22 50 22 50 21.9 28.8 0Z" fill-opacity="0.6"/><path d="M28.8 22L28 22 28 44 50 44 50 43.9 28.8 22Z" opacity="0.6" transform="translate(39.000000, 33.000000) rotate(-180.000000) translate(-39.000000, -33.000000) "/></g></g></g></svg>