<svg xmlns="http://www.w3.org/2000/svg" width="50" height="70" viewBox="0 0 50 70" version="1.1"><g stroke="none" stroke-width="1" fill="none" fill-rule="evenodd"><g transform="translate(-20.000000, -12.000000)" fill="#EEEEEE"><g transform="translate(20.000000, 12.000000)" id="bfd-svg-color"><path d="M0 0L50 0 50 70 0 70 0 0ZM50 22L28 22 28 0 50 0 50 22ZM11.9 56L8.9 62.1 7.4 62.1 4.4 56 4.4 63 1.9 63 1.9 51.8 5.3 51.8 8.2 58 11.1 51.8 14.4 51.8 14.4 63 11.9 63 11.9 56ZM25 52.8C25.8 53.5 26.2 54.5 26.2 55.9 26.2 57.3 25.8 58.3 24.9 58.9 24.1 59.6 22.9 59.9 21.3 59.9L19.8 59.9 19.8 63 17.3 63 17.3 51.8 21.2 51.8C22.9 51.8 24.2 52.1 25 52.8ZM36.3 51.8L36.3 54 30.7 54 30.7 56.3 35.7 56.3 35.7 58.5 30.7 58.5 30.7 60.8 36.4 60.8 36.4 63 28.2 63 28.2 51.8 36.3 51.8ZM46 57.3L48.5 57.3 48.5 61.3C47.4 62.5 45.9 63.1 43.9 63.1 42.3 63.1 40.9 62.6 39.8 61.5 38.7 60.4 38.1 59 38.1 57.4 38.1 55.7 38.7 54.3 39.8 53.2 40.9 52.1 42.3 51.6 43.9 51.6 45.5 51.6 46.9 52.1 48.1 53.1L46.8 55C46.3 54.6 45.8 54.3 45.4 54.1 45 53.9 44.5 53.9 44.1 53.9 43.1 53.9 42.3 54.2 41.7 54.8 41 55.5 40.7 56.3 40.7 57.4 40.7 58.4 41 59.3 41.6 59.9 42.2 60.6 43 60.9 43.8 60.9 44.7 60.9 45.4 60.7 46 60.4L46 57.3ZM30 33.5L30 30C30 29.5 29.6 29 29 29L17 29C16.5 29 16 29.5 16 30L16 40C16 40.6 16.5 41 17 41L29 41C29.6 41 30 40.6 30 40L30 36.5 34 40.5 34 29.5 30 33.5Z" fill-opacity="0.9"/><path d="M23.1 57.2C23.4 56.9 23.6 56.4 23.6 55.7 23.6 55.1 23.4 54.6 23 54.4 22.6 54.1 22 54 21.2 54L19.8 54 19.8 57.7 21.5 57.7C22.3 57.7 22.8 57.6 23.1 57.2L23.1 57.2Z" fill-opacity="0.9"/><path d="M28.8 0L28 0 28 22 50 22 50 21.9 28.8 0Z" fill-opacity="0.6"/><path d="M28.8 22L28 22 28 44 50 44 50 43.9 28.8 22Z" opacity="0.6" transform="translate(39.000000, 33.000000) rotate(-180.000000) translate(-39.000000, -33.000000) "/></g></g></g></svg>