<svg xmlns="http://www.w3.org/2000/svg" width="50" height="70" viewBox="0 0 50 70" version="1.1"><g stroke="none" stroke-width="1" fill="none" fill-rule="evenodd"><g transform="translate(-20.000000, -12.000000)" fill="#EEEEEE"><g transform="translate(20.000000, 12.000000)" id="bfd-svg-color"><path d="M0 0L50 0 50 70 0 70 0 0ZM50 22L28 22 28 0 50 0 50 22ZM12.9 63.1C11.2 63.1 9.8 62.6 8.7 61.5 7.6 60.4 7 59 7 57.3 7 55.7 7.6 54.3 8.7 53.2 9.8 52.1 11.2 51.6 12.9 51.6 14.5 51.6 15.9 52.1 17.1 53.2 18.2 54.3 18.7 55.7 18.7 57.3 18.7 59 18.2 60.4 17.1 61.5 15.9 62.6 14.5 63.1 12.9 63.1ZM28.2 57.3L30.7 57.3 30.7 61.3C29.6 62.5 28.1 63.1 26.1 63.1 24.5 63.1 23.1 62.6 22 61.5 20.9 60.4 20.3 59 20.3 57.4 20.3 55.7 20.9 54.3 22 53.2 23.1 52.1 24.5 51.6 26.1 51.6 27.7 51.6 29.1 52.1 30.3 53.1L29 55C28.5 54.6 28 54.3 27.6 54.1 27.2 53.9 26.7 53.9 26.3 53.9 25.3 53.9 24.5 54.2 23.9 54.8 23.2 55.5 22.9 56.3 22.9 57.4 22.9 58.4 23.2 59.3 23.8 59.9 24.4 60.6 25.2 60.9 26 60.9 26.9 60.9 27.6 60.7 28.2 60.4L28.2 57.3ZM40.3 57.3L42.8 57.3 42.8 61.3C41.7 62.5 40.2 63.1 38.2 63.1 36.6 63.1 35.2 62.6 34.1 61.5 32.9 60.4 32.4 59 32.4 57.4 32.4 55.7 33 54.3 34.1 53.2 35.2 52.1 36.6 51.6 38.2 51.6 39.8 51.6 41.2 52.1 42.4 53.1L41.1 55C40.6 54.6 40.1 54.3 39.7 54.1 39.3 53.9 38.8 53.9 38.3 53.9 37.4 53.9 36.6 54.2 35.9 54.8 35.3 55.5 35 56.3 35 57.4 35 58.4 35.3 59.3 35.9 59.9 36.5 60.6 37.3 60.9 38.1 60.9 39 60.9 39.7 60.7 40.3 60.4L40.3 57.3ZM28 27L28 35.8C27.5 35.5 26.9 35.3 26.3 35.3 24.5 35.3 23 36.8 23 38.7 23 40.5 24.5 42 26.3 42 28.2 42 29.7 40.5 29.7 38.7L29.7 30.3 33 30.3 33 27 28 27ZM19 28L19 37.3C18.5 37 17.9 36.8 17.3 36.8 15.5 36.8 14 38.4 14 40.3 14 42.3 15.5 43.8 17.3 43.8 19.2 43.8 20.7 42.3 20.7 40.3L20.7 31.5 24 31.5 24 28 19 28Z" fill-opacity="0.9"/><path d="M15.2 54.8C14.6 54.1 13.8 53.7 12.9 53.7 11.9 53.7 11.2 54.1 10.5 54.8 9.9 55.5 9.6 56.3 9.6 57.3 9.6 58.3 9.9 59.2 10.5 59.9 11.2 60.6 11.9 60.9 12.9 60.9 13.8 60.9 14.6 60.6 15.2 59.9 15.9 59.2 16.2 58.3 16.2 57.3 16.2 56.3 15.9 55.5 15.2 54.8L15.2 54.8Z" fill-opacity="0.9"/><path d="M28.8 0L28 0 28 22 50 22 50 21.9 28.8 0Z" fill-opacity="0.6"/><path d="M28.8 22L28 22 28 44 50 44 50 43.9 28.8 22Z" opacity="0.6" transform="translate(39.000000, 33.000000) rotate(-180.000000) translate(-39.000000, -33.000000) "/></g></g></g></svg>