<svg xmlns="http://www.w3.org/2000/svg" width="50" height="70" viewBox="0 0 50 70" version="1.1"><g stroke="none" stroke-width="1" fill="none" fill-rule="evenodd"><g transform="translate(-20.000000, -12.000000)" fill="#EEEEEE"><g transform="translate(20.000000, 12.000000)" id="bfd-svg-color"><path d="M0 0L50 0 50 70 0 70 0 0ZM50 22L28 22 28 0 50 0 50 22ZM13.5 63.1C11.8 63.1 10.4 62.6 9.3 61.5 8.1 60.4 7.6 59 7.6 57.3 7.6 55.7 8.1 54.3 9.3 53.2 10.4 52.1 11.8 51.6 13.5 51.6 15.1 51.6 16.5 52.1 17.6 53.2 18.8 54.3 19.3 55.7 19.3 57.3 19.3 59 18.8 60.4 17.6 61.5 16.5 62.6 15.1 63.1 13.5 63.1ZM28.8 57.3L31.3 57.3 31.3 61.3C30.2 62.5 28.6 63.1 26.7 63.1 25 63.1 23.7 62.6 22.6 61.5 21.4 60.4 20.9 59 20.9 57.4 20.9 55.7 21.4 54.3 22.6 53.2 23.7 52.1 25.1 51.6 26.7 51.6 28.3 51.6 29.7 52.1 30.9 53.1L29.6 55C29.1 54.6 28.6 54.3 28.2 54.1 27.8 53.9 27.3 53.9 26.8 53.9 25.9 53.9 25.1 54.2 24.4 54.8 23.8 55.5 23.5 56.3 23.5 57.4 23.5 58.4 23.8 59.3 24.4 59.9 25 60.6 25.8 60.9 26.6 60.9 27.5 60.9 28.2 60.7 28.8 60.4L28.8 57.3ZM37.6 58.9L40.4 51.8 43.1 51.8 38.6 63 36.5 63 32 51.8 34.7 51.8 37.6 58.9ZM18 26L18 43.8 32 34.9 18 26Z" fill-opacity="0.9"/><path d="M15.8 54.8C15.2 54.1 14.4 53.7 13.5 53.7 12.5 53.7 11.7 54.1 11.1 54.8 10.5 55.5 10.1 56.3 10.1 57.3 10.1 58.3 10.5 59.2 11.1 59.9 11.7 60.6 12.5 60.9 13.5 60.9 14.4 60.9 15.2 60.6 15.8 59.9 16.5 59.2 16.8 58.3 16.8 57.3 16.8 56.3 16.5 55.5 15.8 54.8L15.8 54.8Z" fill-opacity="0.9"/><path d="M28.8 0L28 0 28 22 50 22 50 21.9 28.8 0Z" fill-opacity="0.6"/><path d="M28.8 22L28 22 28 44 50 44 50 43.9 28.8 22Z" opacity="0.6" transform="translate(39.000000, 33.000000) rotate(-180.000000) translate(-39.000000, -33.000000) "/></g></g></g></svg>