<svg xmlns="http://www.w3.org/2000/svg" width="50" height="70" viewBox="0 0 50 70" version="1.1"><g stroke="none" stroke-width="1" fill="none" fill-rule="evenodd"><g transform="translate(-20.000000, -12.000000)" fill="#EEEEEE"><g transform="translate(20.000000, 12.000000)" id="bfd-svg-color"><path d="M0 0L50 0 50 70 0 70 0 0ZM50 22L28 22 28 0 50 0 50 22ZM17.5 52.8C18.3 53.5 18.7 54.5 18.7 55.9 18.7 57.3 18.3 58.3 17.5 58.9 16.7 59.6 15.4 59.9 13.8 59.9L12.3 59.9 12.3 63 9.8 63 9.8 51.8 13.7 51.8C15.5 51.8 16.7 52.1 17.5 52.8ZM29.2 53.3C30.3 54.3 30.8 55.6 30.8 57.4 30.8 59.1 30.3 60.5 29.3 61.5 28.2 62.5 26.7 63 24.5 63L20.7 63 20.7 51.8 24.7 51.8C26.6 51.8 28.2 52.3 29.2 53.3ZM40.8 51.8L40.8 54 35.6 54 35.6 56.4 40.5 56.4 40.5 58.6 35.6 58.6 35.6 63 33.1 63 33.1 51.8 40.8 51.8ZM17.6 46C17.4 46 17.1 45.9 16.9 45.7 16.1 45.1 16 44.4 16 44 16.2 42.7 17.7 41.3 20.7 39.9 21.9 37.3 23 34.1 23.6 31.4 22.9 29.7 22.1 27.4 22.6 26.1 22.8 25.6 23.1 25.3 23.5 25.1 23.7 25.1 24.2 25 24.3 25 24.7 25 25.1 25.5 25.3 25.8 25.5 26.1 26.1 26.8 25 31.2 26.1 33.5 27.6 35.7 29 37.3 30 37.1 30.9 37 31.6 37 32.8 37 33.6 37.3 33.9 37.9 34.1 38.4 34 38.9 33.6 39.6 33.1 40.2 32.5 40.5 31.8 40.5 30.9 40.5 29.8 39.9 28.5 38.7 26.3 39.2 23.8 40 21.7 40.9 21 42.4 20.4 43.5 19.8 44.3 19 45.5 18.3 46 17.6 46Z" fill-opacity="0.9"/><path d="M19.7 41.9C18 42.9 17.4 43.7 17.3 44.1 17.3 44.2 17.3 44.4 17.7 44.7 17.8 44.6 18.4 44.3 19.7 41.9L19.7 41.9Z" fill-opacity="0.9"/><path d="M30.3 38.4C31 38.9 31.1 39.1 31.6 39.1 31.7 39.1 32.3 39.1 32.5 38.8 32.6 38.6 32.7 38.5 32.7 38.5 32.6 38.4 32.5 38.3 31.8 38.3 31.4 38.3 30.9 38.3 30.3 38.4L30.3 38.4Z" fill-opacity="0.9"/><path d="M24.5 33.2C24 35.1 23.2 37.3 22.4 39.2 24.1 38.5 25.8 38 27.5 37.6 26.4 36.3 25.4 34.8 24.5 33.2L24.5 33.2Z" fill-opacity="0.9"/><path d="M24 26.4C24 26.5 23 27.8 24.1 29 24.9 27.3 24.1 26.4 24 26.4L24 26.4Z" fill-opacity="0.9"/><path d="M15.7 57.2C16 56.9 16.1 56.4 16.1 55.7 16.1 55.1 15.9 54.6 15.5 54.4 15.1 54.1 14.5 54 13.7 54L12.3 54 12.3 57.7 14 57.7C14.8 57.7 15.4 57.6 15.7 57.2L15.7 57.2Z" fill-opacity="0.9"/><path d="M27.4 59.9C28 59.4 28.3 58.5 28.3 57.4 28.3 56.3 28 55.5 27.4 54.9 26.8 54.3 25.9 54 24.6 54L23.2 54 23.2 60.8 24.8 60.8C25.9 60.8 26.8 60.5 27.4 59.9L27.4 59.9Z" fill-opacity="0.9"/><path d="M28.8 0L28 0 28 22 50 22 50 21.9 28.8 0Z" fill-opacity="0.6"/><path d="M28.8 22L28 22 28 44 50 44 50 43.9 28.8 22Z" opacity="0.6" transform="translate(39.000000, 33.000000) rotate(-180.000000) translate(-39.000000, -33.000000) "/></g></g></g></svg>