<svg xmlns="http://www.w3.org/2000/svg" width="50" height="70" viewBox="0 0 50 70" version="1.1"><g stroke="none" stroke-width="1" fill="none" fill-rule="evenodd"><g transform="translate(-20.000000, -12.000000)" fill="#EEEEEE"><g transform="translate(20.000000, 12.000000)" id="bfd-svg-color"><path d="M0 0L50 0 50 70 0 70 0 0ZM50 22L28 22 28 0 50 0 50 22ZM16 52.8C16.8 53.5 17.2 54.5 17.2 55.9 17.2 57.3 16.8 58.3 16 58.9 15.2 59.6 13.9 59.9 12.3 59.9L10.8 59.9 10.8 63 8.3 63 8.3 51.8 12.3 51.8C14 51.8 15.2 52.1 16 52.8ZM27 51.8L29.5 51.8 29.5 63 27 63 21.7 56 21.7 63 19.2 63 19.2 51.8 21.6 51.8 27 59 27 51.8ZM39.6 57.3L42.1 57.3 42.1 61.3C41 62.5 39.5 63.1 37.5 63.1 35.9 63.1 34.5 62.6 33.4 61.5 32.3 60.4 31.7 59 31.7 57.4 31.7 55.7 32.3 54.3 33.4 53.2 34.6 52.1 35.9 51.6 37.5 51.6 39.2 51.6 40.5 52.1 41.7 53.1L40.4 55C39.9 54.6 39.5 54.3 39 54.1 38.6 53.9 38.2 53.9 37.7 53.9 36.7 53.9 35.9 54.2 35.3 54.8 34.6 55.5 34.3 56.3 34.3 57.4 34.3 58.4 34.6 59.3 35.2 59.9 35.9 60.6 36.6 60.9 37.5 60.9 38.3 60.9 39.1 60.7 39.6 60.4L39.6 57.3ZM26.8 29L22.5 34.7 25.8 39 23.9 40.4C22 37.8 18.8 33.5 18.8 33.5L12 42.6 37 42.6 26.8 29ZM13.9 28.1C15.6 28.1 17 26.8 17 25.1 17 23.4 15.6 22 13.9 22 12.2 22 10.9 23.4 10.9 25.1 10.9 26.8 12.2 28.1 13.9 28.1Z" fill-opacity="0.9"/><path d="M14.2 57.2C14.5 56.9 14.6 56.4 14.6 55.7 14.6 55.1 14.4 54.6 14 54.4 13.6 54.1 13 54 12.2 54L10.8 54 10.8 57.7 12.5 57.7C13.3 57.7 13.9 57.6 14.2 57.2L14.2 57.2Z" fill-opacity="0.9"/><path d="M28.8 0L28 0 28 22 50 22 50 21.9 28.8 0Z" fill-opacity="0.6"/><path d="M28.8 22L28 22 28 44 50 44 50 43.9 28.8 22Z" opacity="0.6" transform="translate(39.000000, 33.000000) rotate(-180.000000) translate(-39.000000, -33.000000) "/></g></g></g></svg>