<svg xmlns="http://www.w3.org/2000/svg" width="50" height="70" viewBox="0 0 50 70" version="1.1"><g stroke="none" stroke-width="1" fill="none" fill-rule="evenodd"><g transform="translate(-20.000000, -12.000000)" fill="#EEEEEE"><g transform="translate(20.000000, 12.000000)" id="bfd-svg-color"><path d="M0 0L50 0 50 70 0 70 0 0ZM50 22L28 22 28 0 50 0 50 22ZM12.5 52.8C13.2 53.5 13.6 54.5 13.6 55.9 13.6 57.3 13.2 58.3 12.4 58.9 11.6 59.6 10.4 59.9 8.7 59.9L7.2 59.9 7.2 63 4.8 63 4.8 51.8 8.7 51.8C10.4 51.8 11.7 52.1 12.5 52.8ZM23.4 52.8C24.2 53.5 24.5 54.5 24.5 55.9 24.5 57.3 24.1 58.3 23.3 58.9 22.5 59.6 21.3 59.9 19.7 59.9L18.2 59.9 18.2 63 15.7 63 15.7 51.8 19.6 51.8C21.3 51.8 22.6 52.1 23.4 52.8ZM29.2 54C29 54.2 28.8 54.5 28.8 54.8 28.8 55.2 29 55.4 29.3 55.6 29.6 55.8 30.3 56 31.3 56.3 32.4 56.5 33.2 56.9 33.8 57.5 34.4 58 34.7 58.7 34.7 59.8 34.7 60.8 34.3 61.6 33.5 62.2 32.8 62.8 31.8 63.1 30.6 63.1 28.8 63.1 27.2 62.5 25.8 61.2L27.3 59.3C28.5 60.4 29.6 60.9 30.6 60.9 31.1 60.9 31.4 60.8 31.7 60.6 32 60.4 32.1 60.2 32.1 59.8 32.1 59.5 31.9 59.2 31.7 59 31.4 58.8 30.8 58.6 30 58.4 28.7 58.1 27.8 57.7 27.2 57.2 26.6 56.7 26.3 55.9 26.3 54.9 26.3 53.8 26.6 53 27.4 52.4 28.2 51.8 29.1 51.6 30.3 51.6 31 51.6 31.8 51.7 32.5 51.9 33.3 52.2 33.9 52.6 34.5 53L33.2 54.9C32.2 54.1 31.2 53.8 30.2 53.8 29.8 53.8 29.4 53.9 29.2 54ZM43.1 51.8L46.1 51.8 42.6 57.2 46.4 63 43.3 63 41 59.3 38.6 63 35.6 63 39.3 57.3 35.8 51.8 38.8 51.8 41 55.1 43.1 51.8ZM14 27.8L24.1 27.8 24.1 25.9C24.1 25.4 24.5 25 25 25 25.5 25 25.9 25.4 25.9 25.9L25.9 27.8 36 27.8 36 42.4 30.3 42.4 32.2 45.6C32.5 46 32.3 46.6 31.9 46.9 31.7 47 31.6 47 31.4 47 31.1 47 30.8 46.8 30.6 46.6L28.1 42.4 21.9 42.4 19.4 46.6C19.2 46.8 18.9 47 18.6 47 18.4 47 18.3 47 18.1 46.9 17.7 46.6 17.5 46 17.8 45.6L19.7 42.4 14 42.4 14 27.8Z" fill-opacity="0.9"/><path d="M15 29L35 29 35 41 15 41 15 29ZM19.1 39.1L23.3 34.9 26.1 37.7 32 31 31 30 26.1 35.6 23.3 32.8 18 38 19.1 39.1Z" fill-opacity="0.9"/><path d="M10.6 57.2C10.9 56.9 11.1 56.4 11.1 55.7 11.1 55.1 10.9 54.6 10.5 54.4 10.1 54.1 9.5 54 8.7 54L7.2 54 7.2 57.7 8.9 57.7C9.8 57.7 10.3 57.6 10.6 57.2L10.6 57.2Z" fill-opacity="0.9"/><path d="M21.5 57.2C21.8 56.9 22 56.4 22 55.7 22 55.1 21.8 54.6 21.4 54.4 21 54.1 20.4 54 19.6 54L18.2 54 18.2 57.7 19.8 57.7C20.7 57.7 21.2 57.6 21.5 57.2L21.5 57.2Z" fill-opacity="0.9"/><path d="M28.8 0L28 0 28 22 50 22 50 21.9 28.8 0Z" fill-opacity="0.6"/><path d="M28.8 22L28 22 28 44 50 44 50 43.9 28.8 22Z" opacity="0.6" transform="translate(39.000000, 33.000000) rotate(-180.000000) translate(-39.000000, -33.000000) "/></g></g></g></svg>