<svg xmlns="http://www.w3.org/2000/svg" width="50" height="70" viewBox="0 0 50 70" version="1.1"><g stroke="none" stroke-width="1" fill="none" fill-rule="evenodd"><g transform="translate(-20.000000, -12.000000)" fill="#EEEEEE"><g transform="translate(20.000000, 12.000000)" id="bfd-svg-color"><path d="M0 0L50 0 50 70 0 70 0 0ZM50 22L28 22 28 0 50 0 50 22ZM19.9 55.5C19.9 57.3 19.1 58.5 17.7 59L20.6 63 17.5 63 15 59.4 13.3 59.4 13.3 63 10.8 63 10.8 51.8 15 51.8C16.8 51.8 18 52.1 18.7 52.7 19.5 53.3 19.9 54.2 19.9 55.5ZM27 54L27 63 24.5 63 24.5 54 21.4 54 21.4 51.8 30.2 51.8 30.2 54 27 54ZM39.8 51.8L39.8 54 34.6 54 34.6 56.4 39.5 56.4 39.5 58.6 34.6 58.6 34.6 63 32.1 63 32.1 51.8 39.8 51.8ZM15 44L33 44 33 42 15 42 15 44ZM15 40L33 40 33 38 15 38 15 40ZM15 36L33 36 33 34 15 34 15 36ZM15 32L33 32 33 30 15 30 15 32ZM15 26L15 28 24 28 24 26 15 26Z" fill-opacity="0.9"/><path d="M16.9 56.9C17.2 56.6 17.3 56.1 17.3 55.5 17.3 54.9 17.2 54.5 16.8 54.3 16.5 54.1 16 54 15.2 54L13.3 54 13.3 57.3 15.1 57.3C16 57.3 16.5 57.1 16.9 56.9L16.9 56.9Z" fill-opacity="0.9"/><path d="M28.8 0L28 0 28 22 50 22 50 21.9 28.8 0Z" fill-opacity="0.6"/><path d="M28.8 22L28 22 28 44 50 44 50 43.9 28.8 22Z" opacity="0.6" transform="translate(39.000000, 33.000000) rotate(-180.000000) translate(-39.000000, -33.000000) "/></g></g></g></svg>