<svg xmlns="http://www.w3.org/2000/svg" width="50" height="70" viewBox="0 0 50 70" version="1.1"><g stroke="none" stroke-width="1" fill="none" fill-rule="evenodd"><g transform="translate(-20.000000, -12.000000)" fill="#EEEEEE"><g transform="translate(20.000000, 12.000000)" id="bfd-svg-color"><path d="M0 0L50 0 50 70 0 70 0 0ZM50 22L28 22 28 0 50 0 50 22ZM28 41.5L26.8 38.5 21.2 38.5 20.1 41.5 18 41.5 23.1 28.5 24.9 28.5 30 41.5 28 41.5ZM16.4 54L16.4 63 13.9 63 13.9 54 10.7 54 10.7 51.8 19.5 51.8 19.5 54 16.4 54ZM26.2 54L26.2 63 23.7 63 23.7 54 20.5 54 20.5 51.8 29.3 51.8 29.3 54 26.2 54ZM38.9 51.8L38.9 54 33.7 54 33.7 56.4 38.7 56.4 38.7 58.6 33.7 58.6 33.7 63 31.2 63 31.2 51.8 38.9 51.8Z" fill-opacity="0.9"/><path d="M21.9 36.5L26.1 36.5 24 31 21.9 36.5Z"/><path d="M28.8 0L28 0 28 22 50 22 50 21.9 28.8 0Z" fill-opacity="0.6"/><path d="M28.8 22L28 22 28 44 50 44 50 43.9 28.8 22Z" opacity="0.6" transform="translate(39.000000, 33.000000) rotate(-180.000000) translate(-39.000000, -33.000000) "/></g></g></g></svg>