<svg xmlns="http://www.w3.org/2000/svg" width="50" height="70" viewBox="0 0 50 70" version="1.1"><g stroke="none" stroke-width="1" fill="none" fill-rule="evenodd"><g transform="translate(-20.000000, -12.000000)" fill="#EEEEEE"><g transform="translate(20.000000, 12.000000)" id="bfd-svg-color"><path d="M0 0L50 0 50 70 0 70 0 0ZM50 22L28 22 28 0 50 0 50 22ZM17.3 51.8L20.3 51.8 16.9 57.2 20.6 63 17.6 63 15.2 59.3 12.8 63 9.8 63 13.6 57.3 10.1 51.8 13.1 51.8 15.2 55.1 17.3 51.8ZM22.2 63L22.2 51.8 24.7 51.8 24.7 60.8 29.5 60.8 29.5 63 22.2 63ZM34 54C33.8 54.2 33.7 54.5 33.7 54.8 33.7 55.2 33.8 55.4 34.1 55.6 34.4 55.8 35.1 56 36.1 56.3 37.2 56.5 38 56.9 38.6 57.5 39.2 58 39.5 58.7 39.5 59.8 39.5 60.8 39.1 61.6 38.4 62.2 37.6 62.8 36.6 63.1 35.4 63.1 33.6 63.1 32 62.5 30.6 61.2L32.1 59.3C33.3 60.4 34.4 60.9 35.4 60.9 35.9 60.9 36.3 60.8 36.5 60.6 36.8 60.4 36.9 60.2 36.9 59.8 36.9 59.5 36.8 59.2 36.5 59 36.2 58.8 35.7 58.6 34.9 58.4 33.6 58.1 32.6 57.7 32 57.2 31.4 56.7 31.1 55.9 31.1 54.9 31.1 53.8 31.5 53 32.2 52.4 33 51.8 34 51.6 35.1 51.6 35.8 51.6 36.6 51.7 37.3 51.9 38.1 52.2 38.7 52.6 39.3 53L38 54.9C37.1 54.1 36.1 53.8 35 53.8 34.6 53.8 34.3 53.9 34 54ZM14 27L14 43.7 36 43.7 36 27 14 27Z" fill-opacity="0.9"/><path d="M34.7 31.7L21.2 31.7 21.2 28.3 34.7 28.3 34.7 31.7 34.7 31.7Z" fill-opacity="0.9"/><path d="M21.2 33.1L34.7 33.1 34.7 37.2 21.2 37.2 21.2 33.1 21.2 33.1Z" fill-opacity="0.9"/><path d="M19.9 37.2L15.3 37.2 15.3 33.1 19.9 33.1 19.9 37.2 19.9 37.2Z" fill-opacity="0.9"/><path d="M19.9 28.3L19.9 31.7 15.3 31.7 15.3 28.3 19.9 28.3 19.9 28.3Z" fill-opacity="0.9"/><path d="M15.3 38.5L19.9 38.5 19.9 42.4 15.3 42.4 15.3 38.5 15.3 38.5Z" fill-opacity="0.9"/><path d="M21.2 42.4L21.2 38.5 34.7 38.5 34.7 42.4 21.2 42.4 21.2 42.4Z" fill-opacity="0.9"/><path d="M28.8 0L28 0 28 22 50 22 50 21.9 28.8 0Z" fill-opacity="0.6"/><path d="M28.8 22L28 22 28 44 50 44 50 43.9 28.8 22Z" opacity="0.6" transform="translate(39.000000, 33.000000) rotate(-180.000000) translate(-39.000000, -33.000000) "/></g></g></g></svg>