<svg xmlns="http://www.w3.org/2000/svg" width="50" height="70" viewBox="0 0 50 70" version="1.1"><g stroke="none" stroke-width="1" fill="none" fill-rule="evenodd"><g transform="translate(-20.000000, -12.000000)" fill="#EEEEEE"><g transform="translate(20.000000, 12.000000)" id="bfd-svg-color"><path d="M0 0L50 0 50 70 0 70 0 0ZM50 22L28 22 28 0 50 0 50 22ZM11.8 51.8L14.8 51.8 11.3 57.2 15.1 63 12 63 9.6 59.3 7.3 63 4.3 63 8 57.3 4.5 51.8 7.5 51.8 9.6 55.1 11.8 51.8ZM16.7 63L16.7 51.8 19.2 51.8 19.2 60.8 23.9 60.8 23.9 63 16.7 63ZM28.5 54C28.2 54.2 28.1 54.5 28.1 54.8 28.1 55.2 28.3 55.4 28.6 55.6 28.8 55.8 29.5 56 30.6 56.3 31.6 56.5 32.5 56.9 33.1 57.5 33.6 58 33.9 58.7 33.9 59.8 33.9 60.8 33.6 61.6 32.8 62.2 32.1 62.8 31.1 63.1 29.8 63.1 28.1 63.1 26.5 62.5 25.1 61.2L26.5 59.3C27.7 60.4 28.9 60.9 29.9 60.9 30.3 60.9 30.7 60.8 31 60.6 31.2 60.4 31.4 60.2 31.4 59.8 31.4 59.5 31.2 59.2 30.9 59 30.7 58.8 30.1 58.6 29.3 58.4 28 58.1 27 57.7 26.4 57.2 25.8 56.7 25.5 55.9 25.5 54.9 25.5 53.8 25.9 53 26.7 52.4 27.4 51.8 28.4 51.6 29.5 51.6 30.3 51.6 31 51.7 31.8 51.9 32.5 52.2 33.2 52.6 33.7 53L32.5 54.9C31.5 54.1 30.5 53.8 29.5 53.8 29 53.8 28.7 53.9 28.5 54ZM42.4 51.8L45.4 51.8 41.9 57.2 45.7 63 42.6 63 40.2 59.3 37.9 63 34.9 63 38.6 57.3 35.1 51.8 38.1 51.8 40.2 55.1 42.4 51.8ZM14 27L14 43.7 36 43.7 36 27 14 27Z" fill-opacity="0.9"/><path d="M34.7 31.7L21.2 31.7 21.2 28.3 34.7 28.3 34.7 31.7 34.7 31.7Z" fill-opacity="0.9"/><path d="M21.2 33.1L34.7 33.1 34.7 37.2 21.2 37.2 21.2 33.1 21.2 33.1Z" fill-opacity="0.9"/><path d="M19.9 37.2L15.3 37.2 15.3 33.1 19.9 33.1 19.9 37.2 19.9 37.2Z" fill-opacity="0.9"/><path d="M19.9 28.3L19.9 31.7 15.3 31.7 15.3 28.3 19.9 28.3 19.9 28.3Z" fill-opacity="0.9"/><path d="M15.3 38.5L19.9 38.5 19.9 42.4 15.3 42.4 15.3 38.5 15.3 38.5Z" fill-opacity="0.9"/><path d="M21.2 42.4L21.2 38.5 34.7 38.5 34.7 42.4 21.2 42.4 21.2 42.4Z" fill-opacity="0.9"/><path d="M28.8 0L28 0 28 22 50 22 50 21.9 28.8 0Z" fill-opacity="0.6"/><path d="M28.8 22L28 22 28 44 50 44 50 43.9 28.8 22Z" opacity="0.6" transform="translate(39.000000, 33.000000) rotate(-180.000000) translate(-39.000000, -33.000000) "/></g></g></g></svg>