<svg xmlns="http://www.w3.org/2000/svg" width="50" height="70" viewBox="0 0 50 70" version="1.1"><g stroke="none" stroke-width="1" fill="none" fill-rule="evenodd"><g transform="translate(-20.000000, -12.000000)" fill="#EEEEEE"><g transform="translate(20.000000, 12.000000)" id="bfd-svg-color"><path d="M0 0L50 0 50 70 0 70 0 0ZM50 22L28 22 28 0 50 0 50 22ZM14.8 51.8L17.8 51.8 14.3 57.2 18.1 63 15.1 63 12.7 59.3 10.3 63 7.3 63 11.1 57.3 7.6 51.8 10.5 51.8 12.7 55.1 14.8 51.8ZM29.7 56L26.7 62.1 25.2 62.1 22.2 56 22.2 63 19.7 63 19.7 51.8 23.1 51.8 26 58 28.9 51.8 32.2 51.8 32.2 63 29.7 63 29.7 56ZM35.1 63L35.1 51.8 37.6 51.8 37.6 60.8 42.3 60.8 42.3 63 35.1 63ZM11 34.8L11 32.6 18.8 28.9 18.8 31.3 13.6 33.6 18.8 36.1 18.8 38.4 11 34.8ZM27.2 27.1L29.5 27.1 22.7 41.8 20.5 41.8 27.2 27.1ZM38.9 32.6L38.9 34.8 31.1 38.4 31.1 36.1 36.3 33.6 31.1 31.3 31.1 28.9 38.9 32.6Z" fill-opacity="0.9"/><path d="M28.8 0L28 0 28 22 50 22 50 21.9 28.8 0Z" fill-opacity="0.6"/><path d="M28.8 22L28 22 28 44 50 44 50 43.9 28.8 22Z" opacity="0.6" transform="translate(39.000000, 33.000000) rotate(-180.000000) translate(-39.000000, -33.000000) "/></g></g></g></svg>