<svg xmlns="http://www.w3.org/2000/svg" width="50" height="70" viewBox="0 0 50 70" version="1.1"><g stroke="none" stroke-width="1" fill="none" fill-rule="evenodd"><g transform="translate(-20.000000, -12.000000)" fill="#EEEEEE"><g transform="translate(20.000000, 12.000000)" id="bfd-svg-color"><path d="M0 0L50 0 50 70 0 70 0 0ZM50 22L28 22 28 0 50 0 50 22ZM9.9 53.9L9.9 51.8 16.8 51.8 16.8 53.5 14.5 56.2C15.4 56.3 16.1 56.7 16.6 57.3 17.1 57.9 17.3 58.6 17.3 59.4 17.3 60.5 16.9 61.5 16.1 62.1 15.3 62.8 14.3 63.1 13.1 63.1 11.8 63.1 10.6 62.7 9.3 61.8L10.3 59.8C11.4 60.6 12.3 61 13.2 61 13.7 61 14.1 60.8 14.4 60.6 14.7 60.3 14.9 60 14.9 59.5 14.9 59.1 14.7 58.7 14.3 58.4 14 58.1 13.4 58 12.8 58 12.4 58 11.9 58.1 11.3 58.3L11.3 56.5 13.4 53.9 9.9 53.9ZM26.9 57.3L29.4 57.3 29.4 61.3C28.3 62.5 26.8 63.1 24.8 63.1 23.2 63.1 21.8 62.6 20.7 61.5 19.6 60.4 19 59 19 57.4 19 55.7 19.6 54.3 20.7 53.2 21.8 52.1 23.2 51.6 24.8 51.6 26.4 51.6 27.8 52.1 29 53.1L27.7 55C27.2 54.6 26.7 54.3 26.3 54.1 25.9 53.9 25.4 53.9 25 53.9 24 53.9 23.2 54.2 22.6 54.8 21.9 55.5 21.6 56.3 21.6 57.4 21.6 58.4 21.9 59.3 22.5 59.9 23.1 60.6 23.9 60.9 24.8 60.9 25.6 60.9 26.3 60.7 26.9 60.4L26.9 57.3ZM39.4 52.8C40.2 53.5 40.6 54.5 40.6 55.9 40.6 57.3 40.2 58.3 39.4 58.9 38.6 59.6 37.4 59.9 35.7 59.9L34.2 59.9 34.2 63 31.7 63 31.7 51.8 35.7 51.8C37.4 51.8 38.6 52.1 39.4 52.8ZM17 25L17 44.1 32 34.5 17 25Z" fill-opacity="0.9"/><path d="M37.6 57.2C37.9 56.9 38 56.4 38 55.7 38 55.1 37.9 54.6 37.5 54.4 37.1 54.1 36.5 54 35.6 54L34.2 54 34.2 57.7 35.9 57.7C36.7 57.7 37.3 57.6 37.6 57.2L37.6 57.2Z" fill-opacity="0.9"/><path d="M28.8 0L28 0 28 22 50 22 50 21.9 28.8 0Z" fill-opacity="0.6"/><path d="M28.8 22L28 22 28 44 50 44 50 43.9 28.8 22Z" opacity="0.6" transform="translate(39.000000, 33.000000) rotate(-180.000000) translate(-39.000000, -33.000000) "/></g></g></g></svg>