<svg xmlns="http://www.w3.org/2000/svg" width="50" height="70" viewBox="0 0 50 70" version="1.1"><g stroke="none" stroke-width="1" fill="none" fill-rule="evenodd"><g transform="translate(-20.000000, -12.000000)" fill="#EEEEEE"><g transform="translate(20.000000, 12.000000)" id="bfd-svg-color"><path d="M0 0L50 0 50 70 0 70 0 0ZM50 22L28 22 28 0 50 0 50 22ZM25.7 63L24.6 60.6 19.9 60.6 18.9 63 16.3 63 21.1 51.8 23.5 51.8 28.3 63 25.7 63ZM29.7 51.8L32.2 51.8 32.2 63 29.7 63 29.7 51.8ZM16 26L16 43.5 34 43.5 34 26 16 26Z" fill-opacity="0.9"/><path d="M22.3 55.1L20.9 58.4 23.7 58.4 22.3 55.1Z" fill-opacity="0.9"/><g transform="translate(19.000000, 30.000000)" fill-opacity="0.9"><path d="M2.2 7.3L1.5 10C1.5 10.1 1.5 10.1 1.4 10.1L0.1 10.1C0 10.1 0 10 0 9.9L2.5 1.1C2.6 0.9 2.6 0.8 2.6 0.3 2.6 0.3 2.7 0.3 2.7 0.3L4.6 0.3C4.6 0.3 4.7 0.3 4.7 0.3L7.5 10C7.5 10 7.5 10.1 7.4 10.1L6 10.1C5.9 10.1 5.8 10.1 5.8 10L5.1 7.3 2.2 7.3 2.2 7.3ZM4.7 5.9C4.5 4.9 3.9 2.7 3.7 1.7L3.7 1.7C3.5 2.7 3 4.5 2.6 5.9L4.7 5.9 4.7 5.9ZM8.7 0.9C8.7 0.3 9.1 0 9.6 0 10.2 0 10.6 0.4 10.6 0.9 10.6 1.5 10.2 1.8 9.6 1.8 9.1 1.8 8.7 1.5 8.7 0.9L8.7 0.9ZM8.8 2.9C8.8 2.9 8.9 2.8 8.9 2.8L10.3 2.8C10.4 2.8 10.4 2.9 10.4 2.9L10.4 10C10.4 10 10.4 10.1 10.3 10.1L9 10.1C8.9 10.1 8.8 10 8.8 10L8.8 2.9 8.8 2.9Z"/></g><path d="M28.8 0L28 0 28 22 50 22 50 21.9 28.8 0Z" fill-opacity="0.6"/><path d="M28.8 22L28 22 28 44 50 44 50 43.9 28.8 22Z" opacity="0.6" transform="translate(39.000000, 33.000000) rotate(-180.000000) translate(-39.000000, -33.000000) "/></g></g></g></svg>