<svg xmlns="http://www.w3.org/2000/svg" width="50" height="70" viewBox="0 0 50 70" version="1.1"><g stroke="none" stroke-width="1" fill="none" fill-rule="evenodd"><g transform="translate(-20.000000, -12.000000)" fill="#EEEEEE"><g transform="translate(20.000000, 12.000000)" id="bfd-svg-color"><path d="M0 0L50 0 50 70 0 70 0 0ZM50 22L28 22 28 0 50 0 50 22ZM15 60.8C16.2 60.8 17.2 60.3 18 59.3L19.6 61C18.3 62.4 16.8 63.1 15.1 63.1 13.4 63.1 11.9 62.6 10.8 61.5 9.7 60.4 9.2 59 9.2 57.4 9.2 55.7 9.7 54.3 10.9 53.2 12 52.1 13.4 51.6 15 51.6 16.9 51.6 18.4 52.3 19.6 53.7L18.1 55.4C17.3 54.4 16.3 53.9 15.1 53.9 14.2 53.9 13.4 54.3 12.7 54.9 12.1 55.5 11.7 56.3 11.7 57.3 11.7 58.4 12 59.2 12.7 59.8 13.3 60.5 14.1 60.8 15 60.8ZM24.2 54C24 54.2 23.9 54.5 23.9 54.8 23.9 55.2 24 55.4 24.3 55.6 24.6 55.8 25.3 56 26.4 56.3 27.4 56.5 28.2 56.9 28.8 57.5 29.4 58 29.7 58.7 29.7 59.8 29.7 60.8 29.3 61.6 28.6 62.2 27.8 62.8 26.8 63.1 25.6 63.1 23.8 63.1 22.2 62.5 20.8 61.2L22.3 59.3C23.5 60.4 24.6 60.9 25.7 60.9 26.1 60.9 26.5 60.8 26.7 60.6 27 60.4 27.1 60.2 27.1 59.8 27.1 59.5 27 59.2 26.7 59 26.4 58.8 25.9 58.6 25.1 58.4 23.8 58.1 22.8 57.7 22.2 57.2 21.6 56.7 21.3 55.9 21.3 54.9 21.3 53.8 21.7 53 22.4 52.4 23.2 51.8 24.2 51.6 25.3 51.6 26 51.6 26.8 51.7 27.5 51.9 28.3 52.2 28.9 52.6 29.5 53L28.2 54.9C27.3 54.1 26.3 53.8 25.2 53.8 24.8 53.8 24.5 53.9 24.2 54ZM36 58.9L38.8 51.8 41.5 51.8 37 63 34.9 63 30.4 51.8 33.1 51.8 36 58.9ZM14 27L14 43.7 36 43.7 36 27 14 27Z" fill-opacity="0.9"/><g transform="translate(15.000000, 28.000000)" fill-opacity="0.9"><path d="M19.7 3.7L6.2 3.7 6.2 0.3 19.7 0.3 19.7 3.7 19.7 3.7Z"/><path d="M6.2 5.1L19.7 5.1 19.7 9.2 6.2 9.2 6.2 5.1 6.2 5.1Z"/><path d="M4.9 9.2L0.3 9.2 0.3 5.1 4.9 5.1 4.9 9.2 4.9 9.2Z"/><path d="M4.9 0.3L4.9 3.7 0.3 3.7 0.3 0.3 4.9 0.3 4.9 0.3Z"/><path d="M0.3 10.5L4.9 10.5 4.9 14.4 0.3 14.4 0.3 10.5 0.3 10.5Z"/><path d="M6.2 14.4L6.2 10.5 19.7 10.5 19.7 14.4 6.2 14.4 6.2 14.4Z"/></g><path d="M28.8 0L28 0 28 22 50 22 50 21.9 28.8 0Z" fill-opacity="0.6"/><path d="M28.8 22L28 22 28 44 50 44 50 43.9 28.8 22Z" opacity="0.6" transform="translate(39.000000, 33.000000) rotate(-180.000000) translate(-39.000000, -33.000000) "/></g></g></g></svg>