<svg xmlns="http://www.w3.org/2000/svg" width="50" height="70" viewBox="0 0 50 70" version="1.1"><g stroke="none" stroke-width="1" fill="none" fill-rule="evenodd"><g transform="translate(-20.000000, -12.000000)" fill="#EEEEEE"><g transform="translate(20.000000, 12.000000)" id="bfd-svg-color"><path d="M0 0L50 0 50 70 0 70 0 0ZM50 22L28 22 28 0 50 0 50 22ZM10.6 53.3C11.6 54.3 12.2 55.6 12.2 57.4 12.2 59.1 11.7 60.5 10.6 61.5 9.6 62.5 8 63 5.9 63L2 63 2 51.8 6 51.8C8 51.8 9.5 52.3 10.6 53.3ZM19.7 63.1C18 63.1 16.6 62.6 15.5 61.5 14.3 60.4 13.8 59 13.8 57.3 13.8 55.7 14.3 54.3 15.5 53.2 16.6 52.1 18 51.6 19.7 51.6 21.3 51.6 22.7 52.1 23.8 53.2 25 54.3 25.5 55.7 25.5 57.3 25.5 59 25 60.4 23.8 61.5 22.7 62.6 21.3 63.1 19.7 63.1ZM32.9 60.8C34.1 60.8 35.1 60.3 35.9 59.3L37.5 61C36.2 62.4 34.7 63.1 33 63.1 31.3 63.1 29.8 62.6 28.7 61.5 27.6 60.4 27 59 27 57.4 27 55.7 27.6 54.3 28.8 53.2 29.9 52.1 31.3 51.6 32.9 51.6 34.8 51.6 36.3 52.3 37.5 53.7L36 55.4C35.2 54.4 34.2 53.9 33 53.9 32.1 53.9 31.3 54.3 30.6 54.9 30 55.5 29.6 56.3 29.6 57.3 29.6 58.4 29.9 59.2 30.6 59.8 31.2 60.5 32 60.8 32.9 60.8ZM45.8 51.8L48.8 51.8 45.3 57.2 49.1 63 46.1 63 43.7 59.3 41.3 63 38.3 63 42.1 57.3 38.6 51.8 41.5 51.8 43.7 55.1 45.8 51.8ZM15 44L35 44 35 42 15 42 15 44ZM15 40L35 40 35 38 15 38 15 40ZM15 36L35 36 35 34 15 34 15 36ZM15 32L35 32 35 30 15 30 15 32ZM15 26L15 28 27.2 28 27.2 26 15 26Z" fill-opacity="0.9"/><path d="M8.7 59.9C9.4 59.4 9.7 58.5 9.7 57.4 9.7 56.3 9.4 55.5 8.7 54.9 8.1 54.3 7.2 54 5.9 54L4.5 54 4.5 60.8 6.1 60.8C7.3 60.8 8.1 60.5 8.7 59.9L8.7 59.9Z" fill-opacity="0.9"/><path d="M22 54.8C21.4 54.1 20.6 53.7 19.7 53.7 18.7 53.7 17.9 54.1 17.3 54.8 16.7 55.5 16.3 56.3 16.3 57.3 16.3 58.3 16.7 59.2 17.3 59.9 17.9 60.6 18.7 60.9 19.7 60.9 20.6 60.9 21.4 60.6 22 59.9 22.7 59.2 23 58.3 23 57.3 23 56.3 22.7 55.5 22 54.8L22 54.8Z" fill-opacity="0.9"/><path d="M28.8 0L28 0 28 22 50 22 50 21.9 28.8 0Z" fill-opacity="0.6"/><path d="M28.8 22L28 22 28 44 50 44 50 43.9 28.8 22Z" opacity="0.6" transform="translate(39.000000, 33.000000) rotate(-180.000000) translate(-39.000000, -33.000000) "/></g></g></g></svg>