<svg xmlns="http://www.w3.org/2000/svg" width="50" height="70" viewBox="0 0 50 70" version="1.1"><g stroke="none" stroke-width="1" fill="none" fill-rule="evenodd"><g transform="translate(-20.000000, -12.000000)" fill="#EEEEEE"><g transform="translate(20.000000, 12.000000)" id="bfd-svg-color"><path d="M0 0L50 0 50 70 0 70 0 0ZM50 22L28 22 28 0 50 0 50 22ZM27.9 37.9L22.2 37.9 26.5 59.2 31.7 59.2 34.5 44.5 34.7 44.5 36.9 59.2 42.1 59.2 46.8 37.9 42.2 37.9 40 52.7C39.9 53.1 39.7 53.2 39.6 52.8L37.5 37.9 32.5 37.9 30.2 52.8C30.1 53.1 29.8 53.2 29.8 52.7L27.9 37.9ZM10 30.7L2.4 30.7C2.2 30.7 2 30.8 2 31.2L2.1 50.8 2 59C2 59.2 2.2 59.2 2.4 59.2L6.9 59.2 8.5 59.2C10.4 59.2 12 59.3 13.8 58.6 25.4 54.7 24.1 30.6 10 30.7Z" fill-opacity="0.9"/><path d="M10.5 54.7L7.3 54.7 7.3 35.2C7.7 35.2 8.6 35.2 9.5 35.2 15.1 35.4 15.9 41.5 15.7 46.4 15.5 49.9 14.4 54.5 10.5 54.7L10.5 54.7Z" fill-opacity="0.9"/><path d="M28.8 0L28 0 28 22 50 22 50 21.9 28.8 0Z" fill-opacity="0.6"/><path d="M28.8 22L28 22 28 44 50 44 50 43.9 28.8 22Z" opacity="0.6" transform="translate(39.000000, 33.000000) rotate(-180.000000) translate(-39.000000, -33.000000) "/></g></g></g></svg>