<svg xmlns="http://www.w3.org/2000/svg" width="50" height="70" viewBox="0 0 50 70" version="1.1"><g stroke="none" stroke-width="1" fill="none" fill-rule="evenodd"><g transform="translate(-20.000000, -12.000000)" fill="#EEEEEE"><g transform="translate(20.000000, 12.000000)" id="bfd-svg-color"><path d="M0 0L50 0 50 70 0 70 0 0ZM50 22L28 22 28 0 50 0 50 22ZM11.1 51.8C13.1 51.8 14.6 52.3 15.7 53.3 16.8 54.3 17.3 55.6 17.3 57.4 17.3 59.1 16.8 60.5 15.8 61.5 14.7 62.5 13.1 63 11 63L7.2 63 7.2 51.8 11.1 51.8ZM22.9 58.2L24.9 51.8 27.5 51.8 29.4 58.2 31.7 51.8 34.4 51.8 30.5 63 28.6 63 26.2 55.2 23.7 63 21.9 63 18 51.8 20.7 51.8 22.9 58.2ZM40.5 54L40.5 63 38 63 38 54 34.8 54 34.8 51.8 43.7 51.8 43.7 54 40.5 54ZM16 26L16 43.5 34 43.5 34 26 16 26Z" fill-opacity="0.9"/><path d="M11.3 60.8C12.4 60.8 13.3 60.5 13.9 59.9 14.5 59.4 14.8 58.5 14.8 57.4 14.8 56.3 14.5 55.5 13.9 54.9 13.3 54.3 12.3 54 11.1 54L9.7 54 9.7 60.8 11.3 60.8Z" fill-opacity="0.9"/><g transform="translate(18.000000, 30.000000)" fill-opacity="0.9"><path d="M2.7 7.8L1.7 7.8 1.7 1.5C1.8 1.5 2.2 1.4 2.4 1.5 4.3 1.5 4.5 3.5 4.4 5.1 4.4 6.2 4 7.7 2.7 7.8L2.7 7.8ZM2.6 0L0.1 0C0.1 0 0 0 0 0.2L0 6.5 0 9.2C0 9.2 0.1 9.2 0.1 9.2L1.6 9.2 2.1 9.2C2.7 9.2 3.2 9.3 3.8 9.1 7.6 7.8 7.2 0 2.6 0L2.6 0Z"/><path d="M8.4 2.3L6.6 2.3 8 9.2 9.6 9.2 10.5 4.5 10.6 4.5 11.3 9.2 13 9.2 14.5 2.3 13 2.3 12.3 7.1C12.3 7.3 12.2 7.3 12.2 7.1L11.5 2.3 9.9 2.3 9.1 7.1C9.1 7.3 9 7.3 9 7.1L8.4 2.3 8.4 2.3Z"/></g><path d="M28.8 0L28 0 28 22 50 22 50 21.9 28.8 0Z" fill-opacity="0.6"/><path d="M28.8 22L28 22 28 44 50 44 50 43.9 28.8 22Z" opacity="0.6" transform="translate(39.000000, 33.000000) rotate(-180.000000) translate(-39.000000, -33.000000) "/></g></g></g></svg>