<svg xmlns="http://www.w3.org/2000/svg" width="50" height="70" viewBox="0 0 50 70" version="1.1"><g stroke="none" stroke-width="1" fill="none" fill-rule="evenodd"><g transform="translate(-20.000000, -12.000000)" fill="#EEEEEE"><g transform="translate(20.000000, 12.000000)" id="bfd-svg-color"><path d="M0 0L50 0 50 70 0 70 0 0ZM50 22L28 22 28 0 50 0 50 22ZM16 26L16 43.5 34 43.5 34 26 16 26ZM18.6 51.8L18.6 54 13 54 13 56.3 18 56.3 18 58.5 13 58.5 13 60.8 18.7 60.8 18.7 63 10.5 63 10.5 51.8 18.6 51.8ZM25 51.8C26.7 51.8 28 52.1 28.8 52.8 29.5 53.5 29.9 54.5 29.9 55.9 29.9 57.3 29.5 58.3 28.7 58.9 27.9 59.6 26.7 59.9 25 59.9L23.5 59.9 23.5 63 21 63 21 51.8 25 51.8ZM35.6 53.8C35.1 53.8 34.8 53.9 34.6 54 34.3 54.2 34.2 54.5 34.2 54.8 34.2 55.2 34.4 55.4 34.7 55.6 35 55.8 35.6 56 36.7 56.3 37.8 56.5 38.6 56.9 39.2 57.5 39.7 58 40 58.7 40 59.8 40 60.8 39.7 61.6 38.9 62.2 38.2 62.8 37.2 63.1 35.9 63.1 34.2 63.1 32.6 62.5 31.2 61.2L32.6 59.3C33.9 60.4 35 60.9 36 60.9 36.5 60.9 36.8 60.8 37.1 60.6 37.3 60.4 37.5 60.2 37.5 59.8 37.5 59.5 37.3 59.2 37 59 36.8 58.8 36.2 58.6 35.4 58.4 34.1 58.1 33.1 57.7 32.5 57.2 31.9 56.7 31.6 55.9 31.6 54.9 31.6 53.8 32 53 32.8 52.4 33.5 51.8 34.5 51.6 35.6 51.6 36.4 51.6 37.1 51.7 37.9 51.9 38.6 52.2 39.3 52.6 39.8 53L38.6 54.9C37.6 54.1 36.6 53.8 35.6 53.8Z" fill-opacity="0.9"/><path d="M25.2 57.7C26.1 57.7 26.6 57.6 26.9 57.2 27.2 56.9 27.4 56.4 27.4 55.7 27.4 55.1 27.2 54.6 26.8 54.4 26.4 54.1 25.8 54 25 54L23.5 54 23.5 57.7 25.2 57.7Z" fill-opacity="0.9"/><g transform="translate(19.000000, 30.000000)" fill-opacity="0.9"><path d="M2.2 7.3L1.5 10C1.5 10.1 1.5 10.1 1.4 10.1L0.1 10.1C0 10.1 0 10 0 9.9L2.5 1.1C2.6 0.9 2.6 0.8 2.6 0.3 2.6 0.3 2.7 0.3 2.7 0.3L4.6 0.3C4.6 0.3 4.7 0.3 4.7 0.3L7.5 10C7.5 10 7.5 10.1 7.4 10.1L6 10.1C5.9 10.1 5.8 10.1 5.8 10L5.1 7.3 2.2 7.3 2.2 7.3ZM4.7 5.9C4.5 4.9 3.9 2.7 3.7 1.7L3.7 1.7C3.5 2.7 3 4.5 2.6 5.9L4.7 5.9 4.7 5.9ZM8.7 0.9C8.7 0.3 9.1 0 9.6 0 10.2 0 10.6 0.4 10.6 0.9 10.6 1.5 10.2 1.8 9.6 1.8 9.1 1.8 8.7 1.5 8.7 0.9L8.7 0.9ZM8.8 2.9C8.8 2.9 8.9 2.8 8.9 2.8L10.3 2.8C10.4 2.8 10.4 2.9 10.4 2.9L10.4 10C10.4 10 10.4 10.1 10.3 10.1L9 10.1C8.9 10.1 8.8 10 8.8 10L8.8 2.9 8.8 2.9Z"/></g><path d="M28.8 0L28 0 28 22 50 22 50 21.9 28.8 0Z" fill-opacity="0.6"/><path d="M28.8 22L28 22 28 44 50 44 50 43.9 28.8 22Z" opacity="0.6" transform="translate(39.000000, 33.000000) rotate(-180.000000) translate(-39.000000, -33.000000) "/></g></g></g></svg>