<svg xmlns="http://www.w3.org/2000/svg" width="50" height="70" viewBox="0 0 50 70" version="1.1"><g stroke="none" stroke-width="1" fill="none" fill-rule="evenodd"><g transform="translate(-20.000000, -12.000000)" fill="#EEEEEE"><g transform="translate(20.000000, 12.000000)"  id="bfd-svg-color"><path d="M0 0L50 0 50 70 0 70 0 0ZM50 22L28 22 28 0 50 0 50 22ZM18.3 51.8L18.3 54 12.7 54 12.7 56.3 17.7 56.3 17.7 58.5 12.7 58.5 12.7 60.8 18.5 60.8 18.5 63 10.2 63 10.2 51.8 18.3 51.8ZM27.1 51.8L30.1 51.8 26.6 57.2 30.4 63 27.3 63 24.9 59.3 22.6 63 19.6 63 23.3 57.3 19.8 51.8 22.8 51.8 24.9 55.1 27.1 51.8ZM40 51.8L40 54 34.5 54 34.5 56.3 39.5 56.3 39.5 58.5 34.5 58.5 34.5 60.8 40.2 60.8 40.2 63 32 63 32 51.8 40 51.8ZM14 43L34 43 34 39 14 39 14 43ZM14 27L14 31 34 31 34 27 14 27ZM14 37L34 37 34 33 14 33 14 37Z" fill-opacity="0.9"/><path d="M16 40L18 40 18 42 16 42 16 40 16 40Z" fill-opacity="0.9"/><path d="M18 30L16 30 16 28 18 28 18 30 18 30Z" fill-opacity="0.9"/><path d="M16 34L18 34 18 36 16 36 16 34 16 34Z" fill-opacity="0.9"/><path d="M28.8 0L28 0 28 22 50 22 50 21.9 28.8 0Z" fill-opacity="0.6"/><path d="M28.8 22L28 22 28 44 50 44 50 43.9 28.8 22Z" opacity="0.6" transform="translate(39.000000, 33.000000) rotate(-180.000000) translate(-39.000000, -33.000000) "/></g></g></g></svg>