<svg xmlns="http://www.w3.org/2000/svg" width="50" height="70" viewBox="0 0 50 70" version="1.1"><g stroke="none" stroke-width="1" fill="none" fill-rule="evenodd"><g transform="translate(-20.000000, -12.000000)" fill="#EEEEEE"><g transform="translate(20.000000, 12.000000)" id="bfd-svg-color"><path d="M0 0L50 0 50 70 0 70 0 0ZM50 22L28 22 28 0 50 0 50 22ZM16.6 51.8L16.6 54 11.4 54 11.4 56.4 16.3 56.4 16.3 58.6 11.4 58.6 11.4 63 8.9 63 8.9 51.8 16.6 51.8ZM18.8 51.8L21.3 51.8 21.3 63 18.8 63 18.8 51.8ZM24.1 63L24.1 51.8 26.6 51.8 26.6 60.8 31.4 60.8 31.4 63 24.1 63ZM41.4 51.8L41.4 54 35.8 54 35.8 56.3 40.8 56.3 40.8 58.5 35.8 58.5 35.8 60.8 41.5 60.8 41.5 63 33.3 63 33.3 51.8 41.4 51.8ZM26 25L18 25C16.9 25 16 25.9 16 27L16 43C16 44.1 16.9 45 18 45L30 45C31.1 45 32 44.1 32 43L32 31 26 25Z" fill-opacity="0.9"/><path d="M28 41L20 41 20 39 28 39 28 41 28 41Z" fill-opacity="0.9"/><path d="M28 37L20 37 20 35 28 35 28 37 28 37Z" fill-opacity="0.9"/><path d="M25 32L25 26.5 30.5 32 25 32 25 32Z" fill-opacity="0.9"/><path d="M28.8 0L28 0 28 22 50 22 50 21.9 28.8 0Z" fill-opacity="0.6"/><path d="M28.8 22L28 22 28 44 50 44 50 43.9 28.8 22Z" opacity="0.6" transform="translate(39.000000, 33.000000) rotate(-180.000000) translate(-39.000000, -33.000000) "/></g></g></g></svg>