<svg xmlns="http://www.w3.org/2000/svg" width="50" height="70" viewBox="0 0 50 70" version="1.1"><g stroke="none" stroke-width="1" fill="none" fill-rule="evenodd"><g transform="translate(-20.000000, -12.000000)" fill="#EEEEEE"><g transform="translate(20.000000, 12.000000)" id="bfd-svg-color"><path d="M0 0L50 0 50 70 0 70 0 0ZM50 22L28 22 28 0 50 0 50 22ZM20 57.3L22.5 57.3 22.5 61.3C21.4 62.5 19.9 63.1 17.9 63.1 16.3 63.1 14.9 62.6 13.8 61.5 12.6 60.4 12.1 59 12.1 57.4 12.1 55.7 12.7 54.3 13.8 53.2 14.9 52.1 16.3 51.6 17.9 51.6 19.5 51.6 20.9 52.1 22.1 53.1L20.8 55C20.3 54.6 19.8 54.3 19.4 54.1 19 53.9 18.5 53.9 18 53.9 17.1 53.9 16.3 54.2 15.6 54.8 15 55.5 14.7 56.3 14.7 57.4 14.7 58.4 15 59.3 15.6 59.9 16.2 60.6 17 60.9 17.8 60.9 18.7 60.9 19.4 60.7 20 60.4L20 57.3ZM24.8 51.8L27.3 51.8 27.3 63 24.8 63 24.8 51.8ZM37.8 51.8L37.8 54 32.6 54 32.6 56.4 37.6 56.4 37.6 58.6 32.6 58.6 32.6 63 30.1 63 30.1 51.8 37.8 51.8ZM24.5 26C19.3 26 15 30 15 35 15 40 19.3 44 24.5 44 25.4 44 26.1 43.3 26.1 42.5 26.1 42.1 25.9 41.8 25.7 41.5 25.4 41.2 25.3 40.9 25.3 40.5 25.3 39.7 26 39 26.9 39L28.7 39C31.6 39 34 36.8 34 34 34 29.6 29.7 26 24.5 26Z" fill-opacity="0.9"/><path d="M18.7 35C17.8 35 17.1 34.3 17.1 33.5 17.1 32.7 17.8 32 18.7 32 19.6 32 20.3 32.7 20.3 33.5 20.3 34.3 19.6 35 18.7 35L18.7 35Z" fill-opacity="0.9"/><path d="M21.9 31C21 31 20.3 30.3 20.3 29.5 20.3 28.7 21 28 21.9 28 22.7 28 23.4 28.7 23.4 29.5 23.4 30.3 22.7 31 21.9 31L21.9 31Z" fill-opacity="0.9"/><path d="M27.1 31C26.3 31 25.6 30.3 25.6 29.5 25.6 28.7 26.3 28 27.1 28 28 28 28.7 28.7 28.7 29.5 28.7 30.3 28 31 27.1 31L27.1 31Z" fill-opacity="0.9"/><path d="M30.3 35C29.4 35 28.7 34.3 28.7 33.5 28.7 32.7 29.4 32 30.3 32 31.2 32 31.9 32.7 31.9 33.5 31.9 34.3 31.2 35 30.3 35L30.3 35Z" fill-opacity="0.9"/><path d="M28.8 0L28 0 28 22 50 22 50 21.9 28.8 0Z" fill-opacity="0.6"/><path d="M28.8 22L28 22 28 44 50 44 50 43.9 28.8 22Z" opacity="0.6" transform="translate(39.000000, 33.000000) rotate(-180.000000) translate(-39.000000, -33.000000) "/></g></g></g></svg>