<svg xmlns="http://www.w3.org/2000/svg" width="50" height="70" viewBox="0 0 50 70" version="1.1"><g stroke="none" stroke-width="1" fill="none" fill-rule="evenodd"><g transform="translate(-20.000000, -12.000000)" fill="#EEEEEE"><g transform="translate(20.000000, 12.000000)"  id="bfd-svg-color"><path d="M0 0L50 0 50 70 0 70 0 0ZM50 22L28 22 28 0 50 0 50 22ZM14 57.3L16.5 57.3 16.5 61.3C15.4 62.5 13.9 63.1 11.9 63.1 10.2 63.1 8.9 62.6 7.8 61.5 6.6 60.4 6.1 59 6.1 57.4 6.1 55.7 6.6 54.3 7.8 53.2 8.9 52.1 10.3 51.6 11.9 51.6 13.5 51.6 14.9 52.1 16.1 53.1L14.8 55C14.3 54.6 13.8 54.3 13.4 54.1 13 53.9 12.5 53.9 12 53.9 11.1 53.9 10.3 54.2 9.6 54.8 9 55.5 8.7 56.3 8.7 57.4 8.7 58.4 9 59.3 9.6 59.9 10.2 60.6 11 60.9 11.8 60.9 12.7 60.9 13.4 60.7 14 60.4L14 57.3ZM18.2 63L18.2 61.3 24 54 18.4 54 18.4 51.8 27.4 51.8 27.4 53.5 21.6 60.8 27.5 60.8 27.5 63 18.2 63ZM29.8 51.8L32.3 51.8 32.3 63 29.8 63 29.8 51.8ZM39.1 51.8C40.8 51.8 42 52.1 42.8 52.8 43.6 53.5 44 54.5 44 55.9 44 57.3 43.6 58.3 42.8 58.9 42 59.6 40.8 59.9 39.1 59.9L37.6 59.9 37.6 63 35.1 63 35.1 51.8 39.1 51.8ZM32.5 28.2L31.2 26.6C30.9 26.2 30.5 26 30 26L18 26C17.5 26 17.1 26.2 16.8 26.6L15.5 28.2C15.2 28.6 15 29 15 29.5L15 42C15 43.1 15.9 44 17 44L31 44C32.1 44 33 43.1 33 42L33 29.5C33 29 32.8 28.6 32.5 28.2Z" fill-opacity="0.9"/><path d="M24 40.5L18.5 35 22 35 22 33 26 33 26 35 29.5 35 24 40.5 24 40.5Z" fill-opacity="0.9"/><path d="M17.1 28L17.9 27 29.9 27 30.9 28 17.1 28 17.1 28Z" fill-opacity="0.9"/><path d="M39.3 57.7C40.1 57.7 40.7 57.6 41 57.2 41.3 56.9 41.4 56.4 41.4 55.7 41.4 55.1 41.2 54.6 40.9 54.4 40.5 54.1 39.9 54 39 54L37.6 54 37.6 57.7 39.3 57.7Z" fill-opacity="0.9"/><path d="M28.8 0L28 0 28 22 50 22 50 21.9 28.8 0Z" fill-opacity="0.6"/><path d="M28.8 22L28 22 28 44 50 44 50 43.9 28.8 22Z" opacity="0.6" transform="translate(39.000000, 33.000000) rotate(-180.000000) translate(-39.000000, -33.000000) "/></g></g></g></svg>