<svg xmlns="http://www.w3.org/2000/svg" width="50" height="70" viewBox="0 0 50 70" version="1.1"><g stroke="none" stroke-width="1" fill="none" fill-rule="evenodd"><g transform="translate(-20.000000, -12.000000)" fill="#EEEEEE"><g transform="translate(20.000000, 12.000000)" id="bfd-svg-color"><path d="M0 0L50 0 50 70 0 70 0 0ZM50 22L28 22 28 0 50 0 50 22ZM11.3 51.8L13.8 51.8 13.8 63 11.3 63 11.3 51.8ZM21.8 60.8C23 60.8 24 60.3 24.8 59.3L26.4 61C25.1 62.4 23.6 63.1 21.9 63.1 20.1 63.1 18.7 62.6 17.6 61.5 16.5 60.4 15.9 59 15.9 57.4 15.9 55.7 16.5 54.3 17.6 53.2 18.8 52.1 20.2 51.6 21.8 51.6 23.6 51.6 25.2 52.3 26.4 53.7L24.9 55.4C24.1 54.4 23.1 53.9 21.9 53.9 21 53.9 20.2 54.3 19.5 54.9 18.9 55.5 18.5 56.3 18.5 57.3 18.5 58.4 18.8 59.2 19.5 59.8 20.1 60.5 20.9 60.8 21.8 60.8ZM33.4 63.1C31.7 63.1 30.4 62.6 29.2 61.5 28.1 60.4 27.5 59 27.5 57.3 27.5 55.7 28.1 54.3 29.2 53.2 30.4 52.1 31.7 51.6 33.4 51.6 35.1 51.6 36.4 52.1 37.6 53.2 38.7 54.3 39.3 55.7 39.3 57.3 39.3 59 38.7 60.4 37.6 61.5 36.4 62.6 35.1 63.1 33.4 63.1ZM25 25C19.5 25 15 29.5 15 35 15 40.5 19.5 45 25 45 30.5 45 35 40.5 35 35 35 29.5 30.5 25 25 25Z" fill-opacity="0.9"/><path d="M24 40L26 40 26 34 24 34 24 40 24 40Z" fill-opacity="0.9"/><path d="M24 32L26 32 26 30 24 30 24 32 24 32Z" fill-opacity="0.9"/><path d="M35.8 54.8C35.1 54.1 34.3 53.7 33.4 53.7 32.5 53.7 31.7 54.1 31 54.8 30.4 55.5 30.1 56.3 30.1 57.3 30.1 58.3 30.4 59.2 31 59.9 31.7 60.6 32.5 60.9 33.4 60.9 34.3 60.9 35.1 60.6 35.8 59.9 36.4 59.2 36.7 58.3 36.7 57.3 36.7 56.3 36.4 55.5 35.8 54.8L35.8 54.8Z" fill-opacity="0.9"/><path d="M28.8 0L28 0 28 22 50 22 50 21.9 28.8 0Z" fill-opacity="0.6"/><path d="M28.8 22L28 22 28 44 50 44 50 43.9 28.8 22Z" opacity="0.6" transform="translate(39.000000, 33.000000) rotate(-180.000000) translate(-39.000000, -33.000000) "/></g></g></g></svg>