<svg xmlns="http://www.w3.org/2000/svg" width="50" height="70" viewBox="0 0 50 70" version="1.1"><g stroke="none" stroke-width="1" fill="none" fill-rule="evenodd"><g transform="translate(-20.000000, -12.000000)" fill="#EEEEEE"><g transform="translate(20.000000, 12.000000)" id="bfd-svg-color"><path d="M0 0L50 0 50 70 0 70 0 0ZM50 22L28 22 28 0 50 0 50 22ZM4.7 51.8L7.2 51.8 7.2 63 4.7 63 4.7 51.8ZM17.9 51.8L20.4 51.8 20.4 63 17.9 63 12.6 56 12.6 63 10.1 63 10.1 51.8 12.4 51.8 17.9 59 17.9 51.8ZM31.8 53.3C32.8 54.3 33.4 55.6 33.4 57.4 33.4 59.1 32.9 60.5 31.8 61.5 30.8 62.5 29.2 63 27.1 63L23.2 63 23.2 51.8 27.2 51.8C29.2 51.8 30.7 52.3 31.8 53.3ZM44.2 53.3C45.2 54.3 45.8 55.6 45.8 57.4 45.8 59.1 45.2 60.5 44.2 61.5 43.2 62.5 41.6 63 39.4 63L35.6 63 35.6 51.8 39.6 51.8C41.6 51.8 43.1 52.3 44.2 53.3ZM16 26L16 43.6 34 43.6 34 26 16 26Z" fill-opacity="0.9"/><path d="M22.6 38.2C22.6 38.2 22.6 38.3 22.5 38.3L21.3 38.3C21.3 38.3 21.2 38.2 21.2 38.2L21.2 30.1C21.2 30 21.3 30 21.3 30L22.5 30C22.6 30 22.6 30 22.6 30.1L22.6 38.2 22.6 38.2Z" fill-opacity="0.9"/><path d="M23.9 35.3C23.9 33.5 25.1 32.1 27 32.1 27.1 32.1 27.2 32.1 27.4 32.1L27.4 30.1C27.4 30 27.4 30 27.5 30L28.7 30C28.7 30 28.8 30 28.8 30.1L28.8 37.1C28.8 37.3 28.8 37.6 28.8 37.8 28.8 37.9 28.8 37.9 28.7 37.9 28.1 38.2 27.4 38.4 26.8 38.4 25.1 38.4 23.9 37.4 23.9 35.3L23.9 35.3ZM27.4 33.3C27.3 33.2 27.1 33.2 26.9 33.2 26 33.2 25.3 34 25.3 35.2 25.3 36.6 26 37.2 26.8 37.2 27 37.2 27.2 37.2 27.4 37.1L27.4 33.3Z" fill-opacity="0.9"/><path d="M29.9 59.9C30.6 59.4 30.9 58.5 30.9 57.4 30.9 56.3 30.6 55.5 29.9 54.9 29.3 54.3 28.4 54 27.1 54L25.7 54 25.7 60.8 27.3 60.8C28.5 60.8 29.3 60.5 29.9 59.9L29.9 59.9Z" fill-opacity="0.9"/><path d="M42.3 59.9C42.9 59.4 43.3 58.5 43.3 57.4 43.3 56.3 42.9 55.5 42.3 54.9 41.7 54.3 40.8 54 39.5 54L38.1 54 38.1 60.8 39.7 60.8C40.8 60.8 41.7 60.5 42.3 59.9L42.3 59.9Z" fill-opacity="0.9"/><path d="M28.8 0L28 0 28 22 50 22 50 21.9 28.8 0Z" fill-opacity="0.6"/><path d="M28.8 22L28 22 28 44 50 44 50 43.9 28.8 22Z" opacity="0.6" transform="translate(39.000000, 33.000000) rotate(-180.000000) translate(-39.000000, -33.000000) "/></g></g></g></svg>