<svg xmlns="http://www.w3.org/2000/svg" width="50" height="70" viewBox="0 0 50 70" version="1.1"><g stroke="none" stroke-width="1" fill="none" fill-rule="evenodd"><g transform="translate(-20.000000, -12.000000)" fill="#EEEEEE"><g transform="translate(20.000000, 12.000000)" id="bfd-svg-color"><path d="M0 0L50 0 50 70 0 70 0 0ZM50 22L28 22 28 0 50 0 50 22ZM24 27C19.6 27 16 30.6 16 35 16 39.4 19.6 43 24 43 26.1 43 28.2 42.2 29.7 40.7 31.2 39.2 32 37.1 32 35 32 30.6 28.4 27 24 27ZM10 51.8L12.5 51.8 12.5 63 10 63 10 51.8ZM25.3 56L22.3 62.1 20.8 62.1 17.8 56 17.8 63 15.3 63 15.3 51.8 18.7 51.8 21.6 58 24.5 51.8 27.8 51.8 27.8 63 25.3 63 25.3 56ZM37.9 57.3L40.4 57.3 40.4 61.3C39.3 62.5 37.8 63.1 35.8 63.1 34.2 63.1 32.8 62.6 31.7 61.5 30.6 60.4 30 59 30 57.4 30 55.7 30.6 54.3 31.7 53.2 32.9 52.1 34.2 51.6 35.8 51.6 37.5 51.6 38.8 52.1 40 53.1L38.7 55C38.2 54.6 37.8 54.3 37.4 54.1 36.9 53.9 36.5 53.9 36 53.9 35 53.9 34.2 54.2 33.6 54.8 32.9 55.5 32.6 56.3 32.6 57.4 32.6 58.4 32.9 59.3 33.5 59.9 34.2 60.6 34.9 60.9 35.8 60.9 36.6 60.9 37.4 60.7 37.9 60.4L37.9 57.3Z" fill-opacity="0.9"/><path d="M24 37C22.9 37 22 36.1 22 35 22 33.9 22.9 33 24 33 25.1 33 26 33.9 26 35 26 36.1 25.1 37 24 37L24 37Z" fill-opacity="0.9"/><path d="M28.8 0L28 0 28 22 50 22 50 21.9 28.8 0Z" fill-opacity="0.6"/><path d="M28.8 22L28 22 28 44 50 44 50 43.9 28.8 22Z" opacity="0.6" transform="translate(39.000000, 33.000000) rotate(-180.000000) translate(-39.000000, -33.000000) "/></g></g></g></svg>