<svg xmlns="http://www.w3.org/2000/svg" width="50" height="70" viewBox="0 0 50 70" version="1.1"><g stroke="none" stroke-width="1" fill="none" fill-rule="evenodd"><g transform="translate(-20.000000, -12.000000)" fill="#EEEEEE"><g transform="translate(20.000000, 12.000000)" id="bfd-svg-color"><path d="M0 0L50 0 50 70 0 70 0 0ZM50 22L28 22 28 0 50 0 50 22ZM10.8 54L10.8 51.8 16.6 51.8 16.6 59.1C16.6 60.4 16.3 61.4 15.6 62.1 14.9 62.8 14 63.1 12.9 63.1 11.6 63.1 10.4 62.6 9.4 61.5L10.7 59.8C11.4 60.5 12.1 60.8 12.8 60.8 13.2 60.8 13.5 60.7 13.7 60.4 14 60.2 14.1 59.8 14.1 59.2L14.1 54 10.8 54ZM27.1 52.8C27.9 53.5 28.2 54.5 28.2 55.9 28.2 57.3 27.8 58.3 27 58.9 26.2 59.6 25 59.9 23.4 59.9L21.9 59.9 21.9 63 19.4 63 19.4 51.8 23.3 51.8C25 51.8 26.3 52.1 27.1 52.8ZM37.5 57.3L40.1 57.3 40.1 61.3C38.9 62.5 37.4 63.1 35.4 63.1 33.8 63.1 32.4 62.6 31.3 61.5 30.2 60.4 29.6 59 29.6 57.4 29.6 55.7 30.2 54.3 31.3 53.2 32.5 52.1 33.9 51.6 35.5 51.6 37.1 51.6 38.5 52.1 39.6 53.1L38.3 55C37.8 54.6 37.4 54.3 37 54.1 36.5 53.9 36.1 53.9 35.6 53.9 34.6 53.9 33.8 54.2 33.2 54.8 32.5 55.5 32.2 56.3 32.2 57.4 32.2 58.4 32.5 59.3 33.2 59.9 33.8 60.6 34.5 60.9 35.4 60.9 36.2 60.9 37 60.7 37.5 60.4L37.5 57.3ZM26.8 29L22.5 34.7 25.8 39 23.9 40.4C22 37.8 18.8 33.5 18.8 33.5L12 42.6 37 42.6 26.8 29ZM13.9 28.1C15.6 28.1 17 26.8 17 25.1 17 23.4 15.6 22 13.9 22 12.2 22 10.9 23.4 10.9 25.1 10.9 26.8 12.2 28.1 13.9 28.1Z" fill-opacity="0.9"/><path d="M25.2 57.2C25.5 56.9 25.7 56.4 25.7 55.7 25.7 55.1 25.5 54.6 25.1 54.4 24.7 54.1 24.1 54 23.3 54L21.9 54 21.9 57.7 23.5 57.7C24.4 57.7 24.9 57.6 25.2 57.2L25.2 57.2Z" fill-opacity="0.9"/><path d="M28.8 0L28 0 28 22 50 22 50 21.9 28.8 0Z" fill-opacity="0.6"/><path d="M28.8 22L28 22 28 44 50 44 50 43.9 28.8 22Z" opacity="0.6" transform="translate(39.000000, 33.000000) rotate(-180.000000) translate(-39.000000, -33.000000) "/></g></g></g></svg>