<svg xmlns="http://www.w3.org/2000/svg" width="50" height="70" viewBox="0 0 50 70" version="1.1"><g stroke="none" stroke-width="1" fill="none" fill-rule="evenodd"><g transform="translate(-20.000000, -12.000000)" fill="#EEEEEE"><g transform="translate(20.000000, 12.000000)" id="bfd-svg-color"><path d="M0 0L50 0 50 70 0 70 0 0ZM50 22L28 22 28 0 50 0 50 22ZM17.2 54L17.2 51.8 23 51.8 23 59.1C23 60.4 22.6 61.4 21.9 62.1 21.3 62.8 20.4 63.1 19.3 63.1 18 63.1 16.8 62.6 15.8 61.5L17.1 59.8C17.7 60.5 18.5 60.8 19.2 60.8 19.5 60.8 19.8 60.7 20.1 60.4 20.3 60.2 20.5 59.8 20.5 59.2L20.5 54 17.2 54ZM28.3 54C28.1 54.2 28 54.5 28 54.8 28 55.2 28.1 55.4 28.4 55.6 28.7 55.8 29.4 56 30.4 56.3 31.5 56.5 32.3 56.9 32.9 57.5 33.5 58 33.8 58.7 33.8 59.8 33.8 60.8 33.4 61.6 32.7 62.2 31.9 62.8 30.9 63.1 29.7 63.1 27.9 63.1 26.3 62.5 24.9 61.2L26.4 59.3C27.6 60.4 28.7 60.9 29.8 60.9 30.2 60.9 30.6 60.8 30.8 60.6 31.1 60.4 31.2 60.2 31.2 59.8 31.2 59.5 31.1 59.2 30.8 59 30.5 58.8 30 58.6 29.2 58.4 27.9 58.1 26.9 57.7 26.3 57.2 25.7 56.7 25.4 55.9 25.4 54.9 25.4 53.8 25.8 53 26.5 52.4 27.3 51.8 28.3 51.6 29.4 51.6 30.1 51.6 30.9 51.7 31.6 51.9 32.4 52.2 33 52.6 33.6 53L32.3 54.9C31.4 54.1 30.4 53.8 29.3 53.8 28.9 53.8 28.6 53.9 28.3 54ZM17.3 29.8L16.9 29.8C16.5 29.8 16.2 30 16.2 30.4L16.2 33.8C16.2 34.4 16 34.8 15.6 35 16 35.3 16.2 35.7 16.2 36.3L16.2 39.8C16.2 40.1 16.6 40.3 17.3 40.3L17.3 42.2 16.4 42.2C14.8 42.2 14 41.5 14 40L14 36.7C14 36.2 13.9 36 13.6 36L12.9 36 12.9 34.1 13.6 34.1C13.9 34.1 14 33.8 14 33.4L14 30.2C14 28.7 14.8 27.9 16.4 27.9L17.3 27.9 17.3 29.8ZM23.5 28.8L26.4 28.8 26.4 30.8 25.9 36.6 24 36.6 23.5 30.8 23.5 28.8ZM23.5 38.7C23.5 38.3 23.7 38 24 37.7 24.2 37.4 24.6 37.3 25 37.3 25.3 37.3 25.7 37.4 26 37.7 26.2 38 26.4 38.3 26.4 38.7 26.4 39.1 26.2 39.4 26 39.7 25.7 40 25.3 40.1 25 40.1 24.6 40.1 24.2 40 24 39.7 23.7 39.4 23.5 39.1 23.5 38.7ZM32.7 40.3L33 40.3C33.5 40.3 33.7 40.1 33.7 39.7L33.7 36.3C33.7 35.8 33.9 35.4 34.3 35.1 33.9 34.8 33.7 34.4 33.7 33.9L33.7 30.4C33.7 30 33.3 29.8 32.7 29.8L32.7 27.9 33.5 27.9C35.1 27.9 35.9 28.7 35.9 30.2L35.9 33.5C35.9 33.9 36.1 34.1 36.3 34.1L37 34.1 37 36.1 36.3 36.1C36.1 36.1 35.9 36.3 35.9 36.7L35.9 40C35.9 41.5 35.1 42.2 33.5 42.2L32.7 42.2 32.7 40.3Z" fill-opacity="0.9"/><path d="M28.8 0L28 0 28 22 50 22 50 21.9 28.8 0Z" fill-opacity="0.6"/><path d="M28.8 22L28 22 28 44 50 44 50 43.9 28.8 22Z" opacity="0.6" transform="translate(39.000000, 33.000000) rotate(-180.000000) translate(-39.000000, -33.000000) "/></g></g></g></svg>