<svg xmlns="http://www.w3.org/2000/svg" width="50" height="70" viewBox="0 0 50 70" version="1.1"><g stroke="none" stroke-width="1" fill="none" fill-rule="evenodd"><g transform="translate(-20.000000, -12.000000)" fill="#EEEEEE"><g transform="translate(20.000000, 12.000000)" id="bfd-svg-color"><path d="M0 0L50 0 50 70 0 70 0 0ZM50 22L28 22 28 0 50 0 50 22ZM3.9 54L3.9 51.8 9.8 51.8 9.8 59.1C9.8 60.4 9.4 61.4 8.7 62.1 8 62.8 7.2 63.1 6.1 63.1 4.7 63.1 3.6 62.6 2.6 61.5L3.8 59.8C4.5 60.5 5.2 60.8 6 60.8 6.3 60.8 6.6 60.7 6.9 60.4 7.1 60.2 7.2 59.8 7.2 59.2L7.2 54 3.9 54ZM15.1 54C14.9 54.2 14.7 54.5 14.7 54.8 14.7 55.2 14.9 55.4 15.2 55.6 15.5 55.8 16.2 56 17.2 56.3 18.3 56.5 19.1 56.9 19.7 57.5 20.3 58 20.6 58.7 20.6 59.8 20.6 60.8 20.2 61.6 19.4 62.2 18.7 62.8 17.7 63.1 16.5 63.1 14.7 63.1 13.1 62.5 11.7 61.2L13.2 59.3C14.4 60.4 15.5 60.9 16.5 60.9 17 60.9 17.3 60.8 17.6 60.6 17.9 60.4 18 60.2 18 59.8 18 59.5 17.9 59.2 17.6 59 17.3 58.8 16.8 58.6 15.9 58.4 14.6 58.1 13.7 57.7 13.1 57.2 12.5 56.7 12.2 55.9 12.2 54.9 12.2 53.8 12.6 53 13.3 52.4 14.1 51.8 15 51.6 16.2 51.6 16.9 51.6 17.7 51.7 18.4 51.9 19.2 52.2 19.8 52.6 20.4 53L19.1 54.9C18.1 54.1 17.1 53.8 16.1 53.8 15.7 53.8 15.3 53.9 15.1 54ZM28 63.1C26.4 63.1 25 62.6 23.8 61.5 22.7 60.4 22.1 59 22.1 57.3 22.1 55.7 22.7 54.3 23.8 53.2 25 52.1 26.4 51.6 28 51.6 29.7 51.6 31.1 52.1 32.2 53.2 33.3 54.3 33.9 55.7 33.9 57.3 33.9 59 33.3 60.4 32.2 61.5 31.1 62.6 29.7 63.1 28 63.1ZM43.9 51.8L46.4 51.8 46.4 63 43.9 63 38.6 56 38.6 63 36.1 63 36.1 51.8 38.4 51.8 43.9 59 43.9 51.8ZM17.1 29.8L16.8 29.8C16.3 29.8 16.1 30 16.1 30.4L16.1 33.8C16.1 34.4 15.9 34.8 15.5 35 15.9 35.3 16.1 35.7 16.1 36.3L16.1 39.8C16.1 40.1 16.4 40.3 17.1 40.3L17.1 42.2 16.2 42.2C14.6 42.2 13.8 41.5 13.8 40L13.8 36.7C13.8 36.2 13.7 36 13.4 36L12.7 36 12.7 34.1 13.4 34.1C13.7 34.1 13.8 33.8 13.8 33.4L13.8 30.2C13.8 28.7 14.6 27.9 16.2 27.9L17.1 27.9 17.1 29.8ZM18.9 38.7C18.9 38.3 19 38 19.3 37.7 19.5 37.4 19.9 37.3 20.3 37.3 20.7 37.3 21 37.4 21.3 37.7 21.5 38 21.7 38.3 21.7 38.7 21.7 39.1 21.5 39.4 21.3 39.7 21 40 20.7 40.1 20.3 40.1 19.9 40.1 19.5 40 19.3 39.7 19 39.4 18.9 39.1 18.9 38.7ZM23.6 38.7C23.6 38.3 23.7 38 24 37.7 24.2 37.4 24.6 37.3 25 37.3 25.4 37.3 25.7 37.4 26 37.7 26.2 38 26.4 38.3 26.4 38.7 26.4 39.1 26.2 39.4 26 39.7 25.7 40 25.4 40.1 25 40.1 24.6 40.1 24.2 40 24 39.7 23.7 39.4 23.6 39.1 23.6 38.7ZM28.2 38.7C28.2 38.3 28.4 38 28.6 37.7 28.9 37.4 29.3 37.3 29.6 37.3 30 37.3 30.4 37.4 30.6 37.7 30.9 38 31.1 38.3 31.1 38.7 31.1 39.1 30.9 39.4 30.6 39.7 30.4 40 30 40.1 29.6 40.1 29.3 40.1 28.9 40 28.6 39.7 28.4 39.4 28.2 39.1 28.2 38.7ZM32.8 40.3L33.2 40.3C33.6 40.3 33.9 40.1 33.9 39.7L33.9 36.3C33.9 35.8 34.1 35.4 34.5 35.1 34.1 34.8 33.9 34.4 33.9 33.9L33.9 30.4C33.9 30 33.5 29.8 32.8 29.8L32.8 27.9 33.7 27.9C35.3 27.9 36.1 28.7 36.1 30.2L36.1 33.5C36.1 33.9 36.2 34.1 36.5 34.1L37.2 34.1 37.2 36.1 36.5 36.1C36.2 36.1 36.1 36.3 36.1 36.7L36.1 40C36.1 41.5 35.3 42.2 33.7 42.2L32.8 42.2 32.8 40.3Z" fill-opacity="0.9"/><path d="M30.4 54.8C29.7 54.1 29 53.7 28 53.7 27.1 53.7 26.3 54.1 25.7 54.8 25 55.5 24.7 56.3 24.7 57.3 24.7 58.3 25 59.2 25.7 59.9 26.3 60.6 27.1 60.9 28 60.9 29 60.9 29.7 60.6 30.4 59.9 31 59.2 31.3 58.3 31.3 57.3 31.3 56.3 31 55.5 30.4 54.8L30.4 54.8Z" fill-opacity="0.9"/><path d="M28.8 0L28 0 28 22 50 22 50 21.9 28.8 0Z" fill-opacity="0.6"/><path d="M28.8 22L28 22 28 44 50 44 50 43.9 28.8 22Z" opacity="0.6" transform="translate(39.000000, 33.000000) rotate(-180.000000) translate(-39.000000, -33.000000) "/></g></g></g></svg>