<svg xmlns="http://www.w3.org/2000/svg" width="50" height="70" viewBox="0 0 50 70" version="1.1"><g stroke="none" stroke-width="1" fill="none" fill-rule="evenodd"><g transform="translate(-20.000000, -12.000000)" fill="#EEEEEE"><g transform="translate(20.000000, 12.000000)" id="bfd-svg-color"><path d="M0 0L50 0 50 70 0 70 0 0ZM50 22L28 22 28 0 50 0 50 22ZM18 56L14.9 62.1 13.5 62.1 10.5 56 10.5 63 8 63 8 51.8 11.3 51.8 14.2 58 17.1 51.8 20.5 51.8 20.5 63 18 63 18 56ZM27 58.2L27 56.2 29.4 56.2 29.4 58.2 30.7 58.2 30.7 60.3 29.4 60.3 29.4 63 27 63 27 60.3 22.5 60.3 22.5 58.4 26.5 51.8 29.2 51.8 25.4 58.2 27 58.2ZM40.8 63L39.7 60.6 35 60.6 34 63 31.3 63 36.2 51.8 38.6 51.8 43.4 63 40.8 63ZM29 27L29 35.8C28.5 35.5 27.9 35.3 27.3 35.3 25.5 35.3 24 36.8 24 38.7 24 40.5 25.5 42 27.3 42 29.2 42 30.7 40.5 30.7 38.7L30.7 30.3 34 30.3 34 27 29 27ZM20 28L20 37.3C19.5 37 18.9 36.8 18.3 36.8 16.5 36.8 15 38.4 15 40.3 15 42.3 16.5 43.8 18.3 43.8 20.2 43.8 21.7 42.3 21.7 40.3L21.7 31.5 25 31.5 25 28 20 28Z" fill-opacity="0.9" /><path d="M37.4 55.1L36 58.4 38.8 58.4 37.4 55.1Z" fill-opacity="0.9" /><g transform="translate(15.000000, 27.000000)"/><path d="M28.8 0L28 0 28 22 50 22 50 21.9 28.8 0Z" fill-opacity="0.6" /><path d="M28.8 22L28 22 28 44 50 44 50 43.9 28.8 22Z" opacity="0.6"  transform="translate(39.000000, 33.000000) rotate(-180.000000) translate(-39.000000, -33.000000) "/></g></g></g></svg>