<svg xmlns="http://www.w3.org/2000/svg" width="50" height="70" viewBox="0 0 50 70" version="1.1"><g stroke="none" stroke-width="1" fill="none" fill-rule="evenodd"><g transform="translate(-20.000000, -12.000000)" fill="#EEEEEE"><g transform="translate(20.000000, 12.000000)" id="bfd-svg-color"><path d="M0 0L50 0 50 70 0 70 0 0ZM50 22L28 22 28 0 50 0 50 22ZM33.3 39.6C34.4 37.9 35 36 35 34 35 28.5 30.5 24 25 24 19.5 24 15 28.5 15 34 15 39.5 19.5 44 25 44 27 44 28.9 43.4 30.6 42.3L32.2 43.9C32.3 44 32.4 44 32.5 44L34.6 44C34.8 44 35 43.8 35 43.6L35 41.5C35 41.4 35 41.3 34.9 41.2L33.3 39.6ZM16.7 56L13.6 62.1 12.1 62.1 9.1 56 9.1 63 6.6 63 6.6 51.8 10 51.8 12.9 58 15.8 51.8 19.1 51.8 19.1 63 16.7 63 16.7 56ZM27.2 63.1C25.6 63.1 24.2 62.6 23 61.5 21.9 60.4 21.3 59 21.3 57.3 21.3 55.7 21.9 54.3 23 53.2 24.2 52.1 25.6 51.6 27.2 51.6 28.9 51.6 30.3 52.1 31.4 53.2 32.5 54.3 33.1 55.7 33.1 57.3 33.1 59 32.5 60.4 31.4 61.5 30.3 62.6 28.9 63.1 27.2 63.1ZM39.2 58.9L42 51.8 44.7 51.8 40.2 63 38.1 63 33.6 51.8 36.3 51.8 39.2 58.9Z" fill-opacity="0.9"/><path d="M29.6 54.8C28.9 54.1 28.2 53.7 27.2 53.7 26.3 53.7 25.5 54.1 24.9 54.8 24.2 55.5 23.9 56.3 23.9 57.3 23.9 58.3 24.2 59.2 24.9 59.9 25.5 60.6 26.3 60.9 27.2 60.9 28.2 60.9 28.9 60.6 29.6 59.9 30.2 59.2 30.5 58.3 30.5 57.3 30.5 56.3 30.2 55.5 29.6 54.8L29.6 54.8Z" fill-opacity="0.9"/><path d="M22.9 34C22.9 34.6 23.1 35.1 23.5 35.5L28.1 39.9C25.2 41.4 21.6 40.6 19.6 37.9 17.7 35.3 18 31.6 20.3 29.3 22.6 26.9 26.3 26.7 29 28.6 31.6 30.6 32.4 34.2 30.9 37.1L26.5 32.5C25.9 31.9 25 31.7 24.2 32.1 23.4 32.4 22.9 33.2 22.9 34L22.9 34Z" fill-opacity="0.9"/><path d="M28.8 0L28 0 28 22 50 22 50 21.9 28.8 0Z" fill-opacity="0.6"/><path d="M28.8 22L28 22 28 44 50 44 50 43.9 28.8 22Z" opacity="0.6" transform="translate(39.000000, 33.000000) rotate(-180.000000) translate(-39.000000, -33.000000) "/></g></g></g></svg>