<svg xmlns="http://www.w3.org/2000/svg" width="50" height="70" viewBox="0 0 50 70" version="1.1"><g stroke="none" stroke-width="1" fill="none" fill-rule="evenodd"><g transform="translate(-20.000000, -12.000000)" fill="#EEEEEE"><g transform="translate(20.000000, 12.000000)" id="bfd-svg-color"><path d="M0 0L50 0 50 70 0 70 0 0ZM50 22L28 22 28 0 50 0 50 22ZM17.2 56L14.2 62.1 12.7 62.1 9.7 56 9.7 63 7.2 63 7.2 51.8 10.6 51.8 13.5 58 16.4 51.8 19.7 51.8 19.7 63 17.2 63 17.2 56ZM30.3 52.8C31 53.5 31.4 54.5 31.4 55.9 31.4 57.3 31 58.3 30.2 58.9 29.4 59.6 28.2 59.9 26.5 59.9L25 59.9 25 63 22.6 63 22.6 51.8 26.5 51.8C28.2 51.8 29.5 52.1 30.3 52.8ZM40.7 57.3L43.2 57.3 43.2 61.3C42.1 62.5 40.6 63.1 38.6 63.1 37 63.1 35.6 62.6 34.5 61.5 33.4 60.4 32.8 59 32.8 57.4 32.8 55.7 33.4 54.3 34.5 53.2 35.7 52.1 37 51.6 38.6 51.6 40.2 51.6 41.6 52.1 42.8 53.1L41.5 55C41 54.6 40.6 54.3 40.1 54.1 39.7 53.9 39.3 53.9 38.8 53.9 37.8 53.9 37 54.2 36.4 54.8 35.7 55.5 35.4 56.3 35.4 57.4 35.4 58.4 35.7 59.3 36.3 59.9 37 60.6 37.7 60.9 38.6 60.9 39.4 60.9 40.2 60.7 40.7 60.4L40.7 57.3ZM30 33.5L30 30C30 29.5 29.6 29 29 29L17 29C16.5 29 16 29.5 16 30L16 40C16 40.6 16.5 41 17 41L29 41C29.6 41 30 40.6 30 40L30 36.5 34 40.5 34 29.5 30 33.5Z" fill-opacity="0.9"/><path d="M28.4 57.2C28.7 56.9 28.9 56.4 28.9 55.7 28.9 55.1 28.7 54.6 28.3 54.4 27.9 54.1 27.3 54 26.5 54L25 54 25 57.7 26.7 57.7C27.6 57.7 28.1 57.6 28.4 57.2L28.4 57.2Z" fill-opacity="0.9"/><path d="M28.8 0L28 0 28 22 50 22 50 21.9 28.8 0Z" fill-opacity="0.6"/><path d="M28.8 22L28 22 28 44 50 44 50 43.9 28.8 22Z" opacity="0.6" transform="translate(39.000000, 33.000000) rotate(-180.000000) translate(-39.000000, -33.000000) "/></g></g></g></svg>