<svg xmlns="http://www.w3.org/2000/svg" width="50" height="70" viewBox="0 0 50 70" version="1.1"><g stroke="none" stroke-width="1" fill="none" fill-rule="evenodd"><g transform="translate(-20.000000, -12.000000)" fill="#EEEEEE"><g transform="translate(20.000000, 12.000000)" id="bfd-svg-color"><path d="M0 0L50 0 50 70 0 70 0 0ZM50 22L28 22 28 0 50 0 50 22ZM18.7 56L15.7 62.1 14.2 62.1 11.2 56 11.2 63 8.7 63 8.7 51.8 12.1 51.8 15 58 17.9 51.8 21.2 51.8 21.2 63 18.7 63 18.7 56ZM28.8 54L28.8 63 26.3 63 26.3 54 23.1 54 23.1 51.8 32 51.8 32 54 28.8 54ZM36.4 54C36.1 54.2 36 54.5 36 54.8 36 55.2 36.2 55.4 36.5 55.6 36.8 55.8 37.4 56 38.5 56.3 39.6 56.5 40.4 56.9 41 57.5 41.5 58 41.8 58.7 41.8 59.8 41.8 60.8 41.5 61.6 40.7 62.2 40 62.8 39 63.1 37.7 63.1 36 63.1 34.4 62.5 33 61.2L34.4 59.3C35.7 60.4 36.8 60.9 37.8 60.9 38.3 60.9 38.6 60.8 38.9 60.6 39.1 60.4 39.3 60.2 39.3 59.8 39.3 59.5 39.1 59.2 38.8 59 38.6 58.8 38 58.6 37.2 58.4 35.9 58.1 34.9 57.7 34.3 57.2 33.7 56.7 33.4 55.9 33.4 54.9 33.4 53.8 33.8 53 34.6 52.4 35.3 51.8 36.3 51.6 37.4 51.6 38.2 51.6 38.9 51.7 39.7 51.9 40.4 52.2 41.1 52.6 41.6 53L40.4 54.9C39.4 54.1 38.4 53.8 37.4 53.8 36.9 53.8 36.6 53.9 36.4 54ZM30 33.5L30 30C30 29.5 29.6 29 29 29L17 29C16.5 29 16 29.5 16 30L16 40C16 40.6 16.5 41 17 41L29 41C29.6 41 30 40.6 30 40L30 36.5 34 40.5 34 29.5 30 33.5Z" fill-opacity="0.9"/><path d="M28.8 0L28 0 28 22 50 22 50 21.9 28.8 0Z" fill-opacity="0.6"/><path d="M28.8 22L28 22 28 44 50 44 50 43.9 28.8 22Z" opacity="0.6" transform="translate(39.000000, 33.000000) rotate(-180.000000) translate(-39.000000, -33.000000) "/></g></g></g></svg>