<svg xmlns="http://www.w3.org/2000/svg" width="50" height="70" viewBox="0 0 50 70" version="1.1"><g stroke="none" stroke-width="1" fill="none" fill-rule="evenodd"><g transform="translate(-20.000000, -12.000000)" fill="#EEEEEE"><g transform="translate(20.000000, 12.000000)" id="bfd-svg-color"><path d="M0 0L50 0 50 70 0 70 0 0ZM50 22L28 22 28 0 50 0 50 22ZM14 63.1C12.3 63.1 11 62.6 9.8 61.5 8.7 60.4 8.1 59 8.1 57.3 8.1 55.7 8.7 54.3 9.8 53.2 11 52.1 12.3 51.6 14 51.6 15.7 51.6 17 52.1 18.2 53.2 19.3 54.3 19.9 55.7 19.9 57.3 19.9 59 19.3 60.4 18.2 61.5 17 62.6 15.7 63.1 14 63.1ZM30.6 53.3C31.7 54.3 32.2 55.6 32.2 57.4 32.2 59.1 31.7 60.5 30.7 61.5 29.6 62.5 28 63 25.9 63L22.1 63 22.1 51.8 26 51.8C28 51.8 29.5 52.3 30.6 53.3ZM38.9 54L38.9 63 36.4 63 36.4 54 33.2 54 33.2 51.8 42.1 51.8 42.1 54 38.9 54ZM15 44L33 44 33 42 15 42 15 44ZM15 40L33 40 33 38 15 38 15 40ZM15 36L33 36 33 34 15 34 15 36ZM15 32L33 32 33 30 15 30 15 32ZM15 26L15 28 24 28 24 26 15 26Z" fill-opacity="0.9"/><path d="M16.4 54.8C15.7 54.1 14.9 53.7 14 53.7 13.1 53.7 12.3 54.1 11.7 54.8 11 55.5 10.7 56.3 10.7 57.3 10.7 58.3 11 59.2 11.7 59.9 12.3 60.6 13.1 60.9 14 60.9 14.9 60.9 15.7 60.6 16.4 59.9 17 59.2 17.3 58.3 17.3 57.3 17.3 56.3 17 55.5 16.4 54.8L16.4 54.8Z" fill-opacity="0.9"/><path d="M28.8 59.9C29.4 59.4 29.7 58.5 29.7 57.4 29.7 56.3 29.4 55.5 28.8 54.9 28.2 54.3 27.2 54 26 54L24.6 54 24.6 60.8 26.2 60.8C27.3 60.8 28.2 60.5 28.8 59.9L28.8 59.9Z" fill-opacity="0.9"/><path d="M28.8 0L28 0 28 22 50 22 50 21.9 28.8 0Z" fill-opacity="0.6"/><path d="M28.8 22L28 22 28 44 50 44 50 43.9 28.8 22Z" opacity="0.6" transform="translate(39.000000, 33.000000) rotate(-180.000000) translate(-39.000000, -33.000000) "/></g></g></g></svg>