<svg xmlns="http://www.w3.org/2000/svg" width="50" height="70" viewBox="0 0 50 70" version="1.1"><g stroke="none" stroke-width="1" fill="none" fill-rule="evenodd"><g transform="translate(-20.000000, -12.000000)" fill="#EEEEEE"><g transform="translate(20.000000, 12.000000)" id="bfd-svg-color"><path d="M0 0L50 0 50 70 0 70 0 0ZM50 22L28 22 28 0 50 0 50 22ZM18 52.8C18.8 53.5 19.2 54.5 19.2 55.9 19.2 57.3 18.8 58.3 18 58.9 17.2 59.6 16 59.9 14.3 59.9L12.8 59.9 12.8 63 10.3 63 10.3 51.8 14.3 51.8C16 51.8 17.2 52.1 18 52.8ZM28.9 52.8C29.7 53.5 30.1 54.5 30.1 55.9 30.1 57.3 29.7 58.3 28.9 58.9 28.1 59.6 26.9 59.9 25.2 59.9L23.7 59.9 23.7 63 21.2 63 21.2 51.8 25.2 51.8C26.9 51.8 28.2 52.1 28.9 52.8ZM34.8 54C34.5 54.2 34.4 54.5 34.4 54.8 34.4 55.2 34.5 55.4 34.8 55.6 35.1 55.8 35.8 56 36.9 56.3 37.9 56.5 38.8 56.9 39.3 57.5 39.9 58 40.2 58.7 40.2 59.8 40.2 60.8 39.8 61.6 39.1 62.2 38.3 62.8 37.4 63.1 36.1 63.1 34.4 63.1 32.8 62.5 31.3 61.2L32.8 59.3C34 60.4 35.2 60.9 36.2 60.9 36.6 60.9 37 60.8 37.3 60.6 37.5 60.4 37.6 60.2 37.6 59.8 37.6 59.5 37.5 59.2 37.2 59 37 58.8 36.4 58.6 35.6 58.4 34.3 58.1 33.3 57.7 32.7 57.2 32.1 56.7 31.8 55.9 31.8 54.9 31.8 53.8 32.2 53 33 52.4 33.7 51.8 34.7 51.6 35.8 51.6 36.6 51.6 37.3 51.7 38.1 51.9 38.8 52.2 39.5 52.6 40 53L38.8 54.9C37.8 54.1 36.8 53.8 35.7 53.8 35.3 53.8 35 53.9 34.8 54ZM14 27.8L24.1 27.8 24.1 25.9C24.1 25.4 24.5 25 25 25 25.5 25 25.9 25.4 25.9 25.9L25.9 27.8 36 27.8 36 42.4 30.3 42.4 32.2 45.6C32.5 46 32.3 46.6 31.9 46.9 31.7 47 31.6 47 31.4 47 31.1 47 30.8 46.8 30.6 46.6L28.1 42.4 21.9 42.4 19.4 46.6C19.2 46.8 18.9 47 18.6 47 18.4 47 18.3 47 18.1 46.9 17.7 46.6 17.5 46 17.8 45.6L19.7 42.4 14 42.4 14 27.8Z" fill-opacity="0.9"/><path d="M15 29L35 29 35 41 15 41 15 29ZM19.1 39.1L23.3 34.9 26.1 37.7 32 31 31 30 26.1 35.6 23.3 32.8 18 38 19.1 39.1Z" fill-opacity="0.9"/><path d="M16.2 57.2C16.5 56.9 16.6 56.4 16.6 55.7 16.6 55.1 16.4 54.6 16.1 54.4 15.7 54.1 15.1 54 14.2 54L12.8 54 12.8 57.7 14.5 57.7C15.3 57.7 15.9 57.6 16.2 57.2L16.2 57.2Z" fill-opacity="0.9"/><path d="M27.1 57.2C27.4 56.9 27.6 56.4 27.6 55.7 27.6 55.1 27.4 54.6 27 54.4 26.6 54.1 26 54 25.2 54L23.7 54 23.7 57.7 25.4 57.7C26.2 57.7 26.8 57.6 27.1 57.2L27.1 57.2Z" fill-opacity="0.9"/><path d="M28.8 0L28 0 28 22 50 22 50 21.9 28.8 0Z" fill-opacity="0.6"/><path d="M28.8 22L28 22 28 44 50 44 50 43.9 28.8 22Z" opacity="0.6" transform="translate(39.000000, 33.000000) rotate(-180.000000) translate(-39.000000, -33.000000) "/></g></g></g></svg>