<svg xmlns="http://www.w3.org/2000/svg" width="50" height="70" viewBox="0 0 50 70" version="1.1"><g stroke="none" stroke-width="1" fill="none" fill-rule="evenodd"><g transform="translate(-20.000000, -12.000000)" fill="#EEEEEE"><g transform="translate(20.000000, 12.000000)" id="bfd-svg-color"><path d="M0 0L50 0 50 70 0 70 0 0ZM50 22L28 22 28 0 50 0 50 22ZM18.26 52.82C19.04 53.48 19.43 54.51 19.43 55.89 19.43 57.27 19.03 58.28 18.23 58.92 17.42 59.56 16.19 59.88 14.54 59.88L13.05 59.88 13.05 63 10.56 63 10.56 51.82 14.51 51.82C16.22 51.82 17.47 52.15 18.26 52.82ZM29.17 52.82C29.96 53.48 30.35 54.51 30.35 55.89 30.35 57.27 29.95 58.28 29.14 58.92 28.34 59.56 27.11 59.88 25.45 59.88L23.97 59.88 23.97 63 21.47 63 21.47 51.82 25.42 51.82C27.14 51.82 28.39 52.15 29.17 52.82ZM37.12 53.98L37.12 63 34.63 63 34.63 53.98 31.46 53.98 31.46 51.82 40.29 51.82 40.29 53.98 37.12 53.98ZM14 27.75L24.08 27.75 24.08 25.92C24.08 25.41 24.49 25 25 25 25.51 25 25.92 25.41 25.92 25.92L25.92 27.75 36 27.75 36 42.42 30.29 42.42 32.2 45.61C32.46 46.05 32.32 46.61 31.89 46.87 31.74 46.96 31.58 47 31.42 47 31.11 47 30.8 46.84 30.63 46.56L28.15 42.42 21.85 42.42 19.37 46.56C19.2 46.84 18.89 47 18.58 47 18.42 47 18.26 46.96 18.11 46.87 17.68 46.61 17.54 46.05 17.8 45.61L19.71 42.42 14 42.42 14 27.75Z" fill-opacity="0.9"/><path d="M15 29L35 29 35 41 15 41 15 29ZM19.05 39.09L23.25 34.88 26.05 37.68 32 30.99 31.01 30 26.05 35.58 23.25 32.78 18 38.04 19.05 39.09Z" fill-opacity="0.9"/><path d="M16.43 57.22C16.73 56.88 16.88 56.39 16.88 55.74 16.88 55.1 16.68 54.64 16.29 54.37 15.9 54.1 15.3 53.96 14.48 53.96L13.05 53.96 13.05 57.72 14.73 57.72C15.56 57.72 16.13 57.55 16.43 57.22L16.43 57.22Z" fill-opacity="0.9"/><path d="M27.34 57.22C27.64 56.88 27.79 56.39 27.79 55.74 27.79 55.1 27.6 54.64 27.21 54.37 26.82 54.1 26.21 53.96 25.39 53.96L23.97 53.96 23.97 57.72 25.65 57.72C26.48 57.72 27.04 57.55 27.34 57.22L27.34 57.22Z" fill-opacity="0.9"/><path d="M28.81 0L28 0 28 22 50 22 50 21.94 28.81 0Z" fill-opacity="0.6"/><path d="M28.81 22L28 22 28 44 50 44 50 43.94 28.81 22Z" opacity="0.6" transform="translate(39.000000, 33.000000) rotate(-180.000000) translate(-39.000000, -33.000000) "/></g></g></g></svg>