<svg xmlns="http://www.w3.org/2000/svg" width="50" height="70" viewBox="0 0 50 70" version="1.1"><g stroke="none" stroke-width="1" fill="none" fill-rule="evenodd"><g transform="translate(-20.000000, -12.000000)" fill="#EEEEEE"><g transform="translate(20.000000, 12.000000)" id="bfd-svg-color"><path d="M0 0L50 0 50 70 0 70 0 0ZM50 22L28 22 28 0 50 0 50 22ZM12.7 52.8C13.4 53.5 13.8 54.5 13.8 55.9 13.8 57.3 13.4 58.3 12.6 58.9 11.8 59.6 10.6 59.9 8.9 59.9L7.4 59.9 7.4 63 5 63 5 51.8 8.9 51.8C10.6 51.8 11.9 52.1 12.7 52.8ZM23.6 52.8C24.4 53.5 24.7 54.5 24.7 55.9 24.7 57.3 24.3 58.3 23.5 58.9 22.7 59.6 21.5 59.9 19.9 59.9L18.4 59.9 18.4 63 15.9 63 15.9 51.8 19.8 51.8C21.5 51.8 22.8 52.1 23.6 52.8ZM31.5 54L31.5 63 29 63 29 54 25.9 54 25.9 51.8 34.7 51.8 34.7 54 31.5 54ZM42.9 51.8L45.9 51.8 42.4 57.2 46.2 63 43.1 63 40.8 59.3 38.4 63 35.4 63 39.1 57.3 35.6 51.8 38.6 51.8 40.8 55.1 42.9 51.8ZM14 27.8L24.1 27.8 24.1 25.9C24.1 25.4 24.5 25 25 25 25.5 25 25.9 25.4 25.9 25.9L25.9 27.8 36 27.8 36 42.4 30.3 42.4 32.2 45.6C32.5 46 32.3 46.6 31.9 46.9 31.7 47 31.6 47 31.4 47 31.1 47 30.8 46.8 30.6 46.6L28.1 42.4 21.9 42.4 19.4 46.6C19.2 46.8 18.9 47 18.6 47 18.4 47 18.3 47 18.1 46.9 17.7 46.6 17.5 46 17.8 45.6L19.7 42.4 14 42.4 14 27.8Z" fill-opacity="0.9"/><path d="M15 29L35 29 35 41 15 41 15 29ZM19.1 39.1L23.3 34.9 26.1 37.7 32 31 31 30 26.1 35.6 23.3 32.8 18 38 19.1 39.1Z" fill-opacity="0.9"/><path d="M10.8 57.2C11.1 56.9 11.3 56.4 11.3 55.7 11.3 55.1 11.1 54.6 10.7 54.4 10.3 54.1 9.7 54 8.9 54L7.4 54 7.4 57.7 9.1 57.7C10 57.7 10.5 57.6 10.8 57.2L10.8 57.2Z"/><path d="M21.7 57.2C22 56.9 22.2 56.4 22.2 55.7 22.2 55.1 22 54.6 21.6 54.4 21.2 54.1 20.6 54 19.8 54L18.4 54 18.4 57.7 20 57.7C20.9 57.7 21.4 57.6 21.7 57.2L21.7 57.2Z"/><path d="M28.8 0L28 0 28 22 50 22 50 21.9 28.8 0Z" fill-opacity="0.6"/><path d="M28.8 22L28 22 28 44 50 44 50 43.9 28.8 22Z" opacity="0.6" transform="translate(39.000000, 33.000000) rotate(-180.000000) translate(-39.000000, -33.000000) "/></g></g></g></svg>