<svg xmlns="http://www.w3.org/2000/svg" width="50" height="70" viewBox="0 0 50 70" version="1.1"><g stroke="none" stroke-width="1" fill="none" fill-rule="evenodd"><g transform="translate(-20.000000, -12.000000)" fill="#EEEEEE"><g transform="translate(20.000000, 12.000000)" id="bfd-svg-color"><path d="M0 0L50 0 50 70 0 70 0 0ZM50 22L28 22 28 0 50 0 50 22ZM17.3 52.8C18.1 53.5 18.5 54.5 18.5 55.9 18.5 57.3 18.1 58.3 17.3 58.9 16.4 59.6 15.2 59.9 13.6 59.9L12.1 59.9 12.1 63 9.6 63 9.6 51.8 13.5 51.8C15.2 51.8 16.5 52.1 17.3 52.8ZM23.1 54C22.9 54.2 22.8 54.5 22.8 54.8 22.8 55.2 22.9 55.4 23.2 55.6 23.5 55.8 24.2 56 25.2 56.3 26.3 56.5 27.1 56.9 27.7 57.5 28.3 58 28.6 58.7 28.6 59.8 28.6 60.8 28.2 61.6 27.4 62.2 26.7 62.8 25.7 63.1 24.5 63.1 22.7 63.1 21.1 62.5 19.7 61.2L21.2 59.3C22.4 60.4 23.5 60.9 24.5 60.9 25 60.9 25.3 60.8 25.6 60.6 25.9 60.4 26 60.2 26 59.8 26 59.5 25.9 59.2 25.6 59 25.3 58.8 24.8 58.6 23.9 58.4 22.6 58.1 21.7 57.7 21.1 57.2 20.5 56.7 20.2 55.9 20.2 54.9 20.2 53.8 20.6 53 21.3 52.4 22.1 51.8 23 51.6 24.2 51.6 24.9 51.6 25.7 51.7 26.4 51.9 27.2 52.2 27.8 52.6 28.4 53L27.1 54.9C26.1 54.1 25.1 53.8 24.1 53.8 23.7 53.8 23.4 53.9 23.1 54ZM39.3 53.3C40.4 54.3 40.9 55.6 40.9 57.4 40.9 59.1 40.4 60.5 39.4 61.5 38.3 62.5 36.7 63 34.6 63L30.8 63 30.8 51.8 34.7 51.8C36.7 51.8 38.3 52.3 39.3 53.3ZM16 26L16 43.5 34 43.5 34 26 16 26Z" fill-opacity="0.9" /><path d="M18 30.1C18 30.1 19.7 30.1 21 30.1 22.3 30.1 23.3 30.4 23.9 30.9 24.6 31.5 25 32.4 25 33.4 25 34.4 24.7 35.2 24.1 35.8 23.3 36.6 22.5 37 21 37.1 20.6 37.1 20.2 37.1 20.2 37.1L20.2 40.4 18 40.4 18 30.1ZM20.2 35.3C20.4 35.3 20.6 35.3 20.9 35.3 22.1 35.3 22.8 34.6 22.8 33.5 22.8 32.5 22.2 31.7 21.1 31.7 20.7 31.7 20.2 31.7 20.2 31.7L20.2 35.3 20.2 35.3Z" fill-opacity="0.9" /><path d="M25.8 38.1C26.2 38.4 27.3 38.8 28 38.8 28.7 38.8 29 38.5 29 38.1 29 37.7 28.7 37.3 27.9 37 26.3 36.5 25.7 35.8 25.7 35 25.7 33.5 26.9 32.4 28.8 32.4 29.7 32.4 30.4 32.7 30.9 32.9L30.9 34.7C30.5 34.5 29.5 34.1 28.9 34.1 28.3 34.1 28 34.3 28 34.7 28 35.1 28.3 35.2 29.2 35.6 30.6 36.1 31.3 36.8 31.3 38 31.3 39.4 30.2 40.5 28 40.5 27.2 40.4 26.4 40.1 25.8 39.8L25.8 38.1 25.8 38.1Z" fill-opacity="0.9" /><path d="M15.5 57.2C15.7 56.9 15.9 56.4 15.9 55.7 15.9 55.1 15.7 54.6 15.3 54.4 14.9 54.1 14.3 54 13.5 54L12.1 54 12.1 57.7 13.8 57.7C14.6 57.7 15.2 57.6 15.5 57.2L15.5 57.2Z" fill-opacity="0.9" /><path d="M37.5 59.9C38.1 59.4 38.4 58.5 38.4 57.4 38.4 56.3 38.1 55.5 37.5 54.9 36.9 54.3 35.9 54 34.7 54L33.3 54 33.3 60.8 34.9 60.8C36 60.8 36.9 60.5 37.5 59.9L37.5 59.9Z" fill-opacity="0.9" /><path d="M28.8 0L28 0 28 22 50 22 50 21.9 28.8 0Z" fill-opacity="0.6" /><path d="M28.8 22L28 22 28 44 50 44 50 43.9 28.8 22Z" opacity="0.6"  transform="translate(39.000000, 33.000000) rotate(-180.000000) translate(-39.000000, -33.000000) "/></g></g></g></svg>