<svg xmlns="http://www.w3.org/2000/svg" width="50" height="70" viewBox="0 0 50 70" version="1.1"><g stroke="none" stroke-width="1" fill="none" fill-rule="evenodd"><g transform="translate(-20.000000, -12.000000)" fill="#EEEEEE"><g transform="translate(20.000000, 12.000000)" id="bfd-svg-color"><path d="M0 0L50 0 50 70 0 70 0 0ZM50 22L28 22 28 0 50 0 50 22ZM17.7 55.5C17.7 57.3 17 58.5 15.6 59L18.4 63 15.4 63 12.9 59.4 11.2 59.4 11.2 63 8.7 63 8.7 51.8 12.9 51.8C14.6 51.8 15.9 52.1 16.6 52.7 17.4 53.3 17.7 54.2 17.7 55.5ZM28.3 63L27.3 60.6 22.6 60.6 21.6 63 18.9 63 23.8 51.8 26.2 51.8 31 63 28.3 63ZM41.4 55.5C41.4 57.3 40.7 58.5 39.3 59L42.2 63 39.1 63 36.6 59.4 34.9 59.4 34.9 63 32.4 63 32.4 51.8 36.6 51.8C38.4 51.8 39.6 52.1 40.3 52.7 41.1 53.3 41.4 54.2 41.4 55.5ZM32.5 28.2L31.2 26.6C30.9 26.2 30.5 26 30 26L18 26C17.5 26 17.1 26.2 16.8 26.6L15.5 28.2C15.2 28.6 15 29 15 29.5L15 42C15 43.1 15.9 44 17 44L31 44C32.1 44 33 43.1 33 42L33 29.5C33 29 32.8 28.6 32.5 28.2Z" fill-opacity="0.9"/><path d="M24 40.5L18.5 35 22 35 22 33 26 33 26 35 29.5 35 24 40.5 24 40.5Z" fill-opacity="0.9"/><path d="M17.1 28L17.9 27 29.9 27 30.9 28 17.1 28 17.1 28Z" fill-opacity="0.9"/><path d="M14.7 56.9C15 56.6 15.2 56.1 15.2 55.5 15.2 54.9 15 54.5 14.7 54.3 14.4 54.1 13.8 54 13 54L11.2 54 11.2 57.3 13 57.3C13.8 57.3 14.4 57.1 14.7 56.9L14.7 56.9Z" fill-opacity="0.9"/><path d="M25 55.1L23.6 58.4 26.4 58.4 25 55.1Z" fill-opacity="0.9"/><path d="M38.4 56.9C38.8 56.6 38.9 56.1 38.9 55.5 38.9 54.9 38.7 54.5 38.4 54.3 38.1 54.1 37.5 54 36.7 54L34.9 54 34.9 57.3 36.7 57.3C37.6 57.3 38.1 57.1 38.4 56.9L38.4 56.9Z" fill-opacity="0.9"/><path d="M28.8 0L28 0 28 22 50 22 50 21.9 28.8 0Z" fill-opacity="0.6"/><path d="M28.8 22L28 22 28 44 50 44 50 43.9 28.8 22Z" opacity="0.6" transform="translate(39.000000, 33.000000) rotate(-180.000000) translate(-39.000000, -33.000000) "/></g></g></g></svg>