<svg xmlns="http://www.w3.org/2000/svg" width="50" height="70" viewBox="0 0 50 70" version="1.1"><g stroke="none" stroke-width="1" fill="none" fill-rule="evenodd"><g transform="translate(-20.000000, -12.000000)" fill="#EEEEEE"><g transform="translate(20.000000, 12.000000)" id="bfd-svg-color"><path d="M0 0L50 0 50 70 0 70 0 0ZM50 22L28 22 28 0 50 0 50 22ZM13.3 53.8C12.9 53.8 12.5 53.9 12.3 54 12.1 54.2 11.9 54.5 11.9 54.8 11.9 55.2 12.1 55.4 12.4 55.6 12.7 55.8 13.3 56 14.4 56.3 15.5 56.5 16.3 56.9 16.9 57.5 17.5 58 17.8 58.7 17.8 59.8 17.8 60.8 17.4 61.6 16.6 62.2 15.9 62.8 14.9 63.1 13.7 63.1 11.9 63.1 10.3 62.5 8.9 61.2L10.4 59.3C11.6 60.4 12.7 60.9 13.7 60.9 14.2 60.9 14.5 60.8 14.8 60.6 15.1 60.4 15.2 60.2 15.2 59.8 15.2 59.5 15 59.2 14.8 59 14.5 58.8 13.9 58.6 13.1 58.4 11.8 58.1 10.9 57.7 10.3 57.2 9.7 56.7 9.4 55.9 9.4 54.9 9.4 53.8 9.7 53 10.5 52.4 11.3 51.8 12.2 51.6 13.4 51.6 14.1 51.6 14.9 51.7 15.6 51.9 16.3 52.2 17 52.6 17.6 53L16.3 54.9C15.3 54.1 14.3 53.8 13.3 53.8ZM24 58.9L26.9 51.8 29.6 51.8 25.1 63 23 63 18.5 51.8 21.2 51.8 24 58.9ZM38.2 57.3L40.8 57.3 40.8 61.3C39.7 62.5 38.1 63.1 36.2 63.1 34.5 63.1 33.1 62.6 32 61.5 30.9 60.4 30.3 59 30.3 57.4 30.3 55.7 30.9 54.3 32 53.2 33.2 52.1 34.6 51.6 36.2 51.6 37.8 51.6 39.2 52.1 40.3 53.1L39 55C38.5 54.6 38.1 54.3 37.7 54.1 37.2 53.9 36.8 53.9 36.3 53.9 35.3 53.9 34.5 54.2 33.9 54.8 33.2 55.5 32.9 56.3 32.9 57.4 32.9 58.4 33.2 59.3 33.9 59.9 34.5 60.6 35.2 60.9 36.1 60.9 37 60.9 37.7 60.7 38.2 60.4L38.2 57.3ZM11 34.8L11 32.6 18.8 28.9 18.8 31.3 13.6 33.6 18.8 36.1 18.8 38.4 11 34.8ZM27.2 27.1L29.5 27.1 22.7 41.8 20.5 41.8 27.2 27.1ZM38.9 32.6L38.9 34.8 31.1 38.4 31.1 36.1 36.3 33.6 31.1 31.3 31.1 28.9 38.9 32.6Z" fill-opacity="0.9"/><path d="M28.8 0L28 0 28 22 50 22 50 21.9 28.8 0Z" fill-opacity="0.6"/><path d="M28.8 22L28 22 28 44 50 44 50 43.9 28.8 22Z" opacity="0.6" transform="translate(39.000000, 33.000000) rotate(-180.000000) translate(-39.000000, -33.000000) "/></g></g></g></svg>