<svg xmlns="http://www.w3.org/2000/svg" width="50" height="70" viewBox="0 0 50 70" version="1.1"><g stroke="none" stroke-width="1" fill="none" fill-rule="evenodd"><g transform="translate(-20.000000, -12.000000)" fill="#EEEEEE"><g transform="translate(20.000000, 12.000000)" id="bfd-svg-color"><path d="M0 0L50 0 50 70 0 70 0 0ZM50 22L28 22 28 0 50 0 50 22ZM12.9 58.9L15.7 51.8 18.4 51.8 13.9 63 11.8 63 7.3 51.8 10 51.8 12.9 58.9ZM24.8 63.1C23.2 63.1 21.8 62.6 20.6 61.5 19.5 60.4 19 59 19 57.3 19 55.7 19.5 54.3 20.6 53.2 21.8 52.1 23.2 51.6 24.8 51.6 26.5 51.6 27.9 52.1 29 53.2 30.1 54.3 30.7 55.7 30.7 57.3 30.7 59 30.1 60.4 29 61.5 27.9 62.6 26.5 63.1 24.8 63.1ZM37.8 63L32.9 63 32.9 51.8 37.2 51.8C38 51.8 38.7 51.9 39.2 52.1 39.8 52.3 40.2 52.5 40.4 52.8 40.9 53.4 41.2 54.1 41.2 54.8 41.2 55.7 40.9 56.3 40.3 56.7 40.2 56.9 40 57 39.9 57 39.9 57 39.7 57.1 39.5 57.2 40.2 57.3 40.8 57.7 41.2 58.1 41.6 58.6 41.8 59.2 41.8 59.9 41.8 60.7 41.6 61.4 41 62 40.4 62.7 39.3 63 37.8 63ZM30 27L32 31 29 31 27 27 25 27 27 31 24 31 22 27 20 27 22 31 19 31 17 27 16 27C14.9 27 14 27.9 14 29L14 41C14 42.1 14.9 43 16 43L32 43C33.1 43 34 42.1 34 41L34 27 30 27Z" fill-opacity="0.9"/><path d="M27.2 54.8C26.6 54.1 25.8 53.7 24.8 53.7 23.9 53.7 23.1 54.1 22.5 54.8 21.8 55.5 21.5 56.3 21.5 57.3 21.5 58.3 21.8 59.2 22.5 59.9 23.1 60.6 23.9 60.9 24.8 60.9 25.8 60.9 26.6 60.6 27.2 59.9 27.8 59.2 28.2 58.3 28.2 57.3 28.2 56.3 27.8 55.5 27.2 54.8L27.2 54.8Z" fill-opacity="0.9"/><path d="M35.4 56.3L36.6 56.3C37.3 56.3 37.8 56.3 38.1 56.1 38.4 56 38.6 55.6 38.6 55.2 38.6 54.7 38.5 54.3 38.2 54.2 37.8 54 37.3 53.9 36.6 53.9L35.4 53.9 35.4 56.3Z" fill-opacity="0.9"/><path d="M35.4 60.9L37.1 60.9C37.8 60.9 38.3 60.8 38.7 60.6 39.1 60.4 39.2 60.1 39.2 59.6 39.2 59.1 39.1 58.7 38.7 58.6 38.3 58.4 37.7 58.3 36.9 58.3L35.4 58.3 35.4 60.9Z" fill-opacity="0.9"/><path d="M28.8 0L28 0 28 22 50 22 50 21.9 28.8 0Z" fill-opacity="0.6"/><path d="M28.8 22L28 22 28 44 50 44 50 43.9 28.8 22Z" opacity="0.6" transform="translate(39.000000, 33.000000) rotate(-180.000000) translate(-39.000000, -33.000000) "/></g></g></g></svg>