<svg xmlns="http://www.w3.org/2000/svg" width="50" height="70" viewBox="0 0 50 70" version="1.1"><g stroke="none" stroke-width="1" fill="none" fill-rule="evenodd"><g transform="translate(-20.000000, -12.000000)" fill="#EEEEEE"><g transform="translate(20.000000, 12.000000)" id="bfd-svg-color"><path d="M0 0L50 0 50 70 0 70 0 0ZM50 22L28 22 28 0 50 0 50 22ZM10.8 58.2L12.7 51.8 15.4 51.8 17.3 58.2 19.5 51.8 22.3 51.8 18.3 63 16.5 63 14 55.2 11.6 63 9.8 63 5.9 51.8 8.6 51.8 10.8 58.2ZM31 63L30 60.6 25.3 60.6 24.3 63 21.6 63 26.4 51.8 28.9 51.8 33.7 63 31 63ZM38.5 58.9L41.4 51.8 44.1 51.8 39.6 63 37.5 63 33 51.8 35.7 51.8 38.5 58.9ZM28 27L28 35.8C27.5 35.5 26.9 35.3 26.3 35.3 24.5 35.3 23 36.8 23 38.7 23 40.5 24.5 42 26.3 42 28.2 42 29.7 40.5 29.7 38.7L29.7 30.3 33 30.3 33 27 28 27ZM19 28L19 37.3C18.5 37 17.9 36.8 17.3 36.8 15.5 36.8 14 38.4 14 40.3 14 42.3 15.5 43.8 17.3 43.8 19.2 43.8 20.7 42.3 20.7 40.3L20.7 31.5 24 31.5 24 28 19 28Z" fill-opacity="0.9"/><path d="M27.7 55.1L26.3 58.4 29.1 58.4 27.7 55.1Z" fill-opacity="0.9"/><path d="M28.8 0L28 0 28 22 50 22 50 21.9 28.8 0Z" fill-opacity="0.6"/><path d="M28.8 22L28 22 28 44 50 44 50 43.9 28.8 22Z" opacity="0.6" transform="translate(39.000000, 33.000000) rotate(-180.000000) translate(-39.000000, -33.000000) "/></g></g></g></svg>