<svg xmlns="http://www.w3.org/2000/svg" width="50" height="70" viewBox="0 0 50 70" version="1.1"><g stroke="none" stroke-width="1" fill="none" fill-rule="evenodd"><g transform="translate(-20.000000, -12.000000)" fill="#EEEEEE"><g transform="translate(20.000000, 12.000000)" id="bfd-svg-color"><path d="M0 0L50 0 50 70 0 70 0 0ZM50 22L28 22 28 0 50 0 50 22ZM8.5 58.2L10.4 51.8 13 51.8 15 58.2 17.2 51.8 19.9 51.8 16 63 14.2 63 11.7 55.2 9.3 63 7.4 63 3.5 51.8 6.2 51.8 8.5 58.2ZM31.4 56L28.3 62.1 26.9 62.1 23.8 56 23.8 63 21.4 63 21.4 51.8 24.7 51.8 27.6 58 30.5 51.8 33.9 51.8 33.9 63 31.4 63 31.4 56ZM40.8 58.9L43.7 51.8 46.4 51.8 41.9 63 39.8 63 35.3 51.8 38 51.8 40.8 58.9ZM25 25C19.5 25 15 29.5 15 35 15 40.5 19.5 45 25 45 30.5 45 35 40.5 35 35 35 29.5 30.5 25 25 25Z" fill-opacity="0.9"/><path d="M25 43C20.6 43 17 39.4 17 35 17 30.6 20.6 27 25 27 29.4 27 33 30.6 33 35 33 39.4 29.4 43 25 43ZM23 39.5L29 35 23 30.5 23 39.5Z" fill-opacity="0.9"/><path d="M28.8 0L28 0 28 22 50 22 50 21.9 28.8 0Z" fill-opacity="0.6"/><path d="M28.8 22L28 22 28 44 50 44 50 43.9 28.8 22Z" opacity="0.6" transform="translate(39.000000, 33.000000) rotate(-180.000000) translate(-39.000000, -33.000000) "/></g></g></g></svg>