<svg xmlns="http://www.w3.org/2000/svg" width="50" height="70" viewBox="0 0 50 70" version="1.1"><g stroke="none" stroke-width="1" fill="none" fill-rule="evenodd"><g transform="translate(-20.000000, -12.000000)" fill="#EEEEEE"><g transform="translate(20.000000, 12.000000)" id="bfd-svg-color"><path d="M0 0L50 0 50 70 0 70 0 0ZM50 22L28 22 28 0 50 0 50 22ZM28 41.5L26.8 38.5 21.2 38.5 20.1 41.5 18 41.5 23.1 28.5 24.9 28.5 30 41.5 28 41.5ZM5.2 58.2L7.2 51.8 9.8 51.8 11.8 58.2 14 51.8 16.7 51.8 12.8 63 11 63 8.5 55.2 6.1 63 4.2 63 0.3 51.8 3 51.8 5.2 58.2ZM27.4 61.5C26.2 62.6 24.8 63.1 23.2 63.1 21.5 63.1 20.1 62.6 19 61.5 17.9 60.4 17.3 59 17.3 57.3 17.3 55.7 17.9 54.3 19 53.2 20.1 52.1 21.5 51.6 23.2 51.6 24.8 51.6 26.2 52.1 27.4 53.2 28.5 54.3 29.1 55.7 29.1 57.3 29.1 59 28.5 60.4 27.4 61.5ZM38.9 51.8L38.9 54 33.8 54 33.8 56.4 38.7 56.4 38.7 58.6 33.8 58.6 33.8 63 31.3 63 31.3 51.8 38.9 51.8ZM48.8 51.8L48.8 54 43.6 54 43.6 56.4 48.6 56.4 48.6 58.6 43.6 58.6 43.6 63 41.1 63 41.1 51.8 48.8 51.8Z" fill-opacity="0.9"/><path d="M26.5 57.4C26.5 56.3 26.2 55.5 25.6 54.8 24.9 54.1 24.1 53.7 23.2 53.7 22.3 53.7 21.5 54.1 20.8 54.8 20.2 55.5 19.9 56.3 19.9 57.3 19.9 58.3 20.2 59.2 20.8 59.9 21.5 60.6 22.3 60.9 23.2 60.9 24.1 60.9 24.9 60.6 25.6 59.9 26.2 59.2 26.5 58.3 26.5 57.4L26.5 57.4Z" fill-opacity="0.9"/><path d="M21.9 36.5L26.1 36.5 24 31 21.9 36.5Z" fill-opacity="0.9"/><path d="M28.8 0L28 0 28 22 50 22 50 21.9 28.8 0Z" fill-opacity="0.6"/><path d="M28.8 22L28 22 28 44 50 44 50 43.9 28.8 22Z" opacity="0.6" transform="translate(39.000000, 33.000000) rotate(-180.000000) translate(-39.000000, -33.000000) "/></g></g></g></svg>