<svg xmlns="http://www.w3.org/2000/svg" width="50" height="70" viewBox="0 0 50 70" version="1.1"><g stroke="none" stroke-width="1" fill="none" fill-rule="evenodd"><g transform="translate(-20.000000, -12.000000)" fill="#EEEEEE"><g transform="translate(20.000000, 12.000000)" id="bfd-svg-color"><path d="M0 0L50 0 50 70 0 70 0 0ZM50 22L28 22 28 0 50 0 50 22ZM12.1 63L12.1 61.3 18 54 12.3 54 12.3 51.8 21.4 51.8 21.4 53.5 15.5 60.8 21.5 60.8 21.5 63 12.1 63ZM23.7 51.8L26.2 51.8 26.2 63 23.7 63 23.7 51.8ZM36.8 52.8C37.6 53.5 38 54.5 38 55.9 38 57.3 37.6 58.3 36.7 58.9 35.9 59.6 34.7 59.9 33.1 59.9L31.6 59.9 31.6 63 29.1 63 29.1 51.8 33 51.8C34.7 51.8 36 52.1 36.8 52.8ZM32.5 28.2L31.2 26.6C30.9 26.2 30.5 26 30 26L18 26C17.5 26 17.1 26.2 16.8 26.6L15.5 28.2C15.2 28.6 15 29 15 29.5L15 42C15 43.1 15.9 44 17 44L31 44C32.1 44 33 43.1 33 42L33 29.5C33 29 32.8 28.6 32.5 28.2Z" fill-opacity="0.9"/><path d="M24 40.5L18.5 35 22 35 22 33 26 33 26 35 29.5 35 24 40.5 24 40.5Z" fill-opacity="0.9"/><path d="M17.1 28L17.9 27 29.9 27 30.9 28 17.1 28 17.1 28Z" fill-opacity="0.9"/><path d="M34.9 57.2C35.2 56.9 35.4 56.4 35.4 55.7 35.4 55.1 35.2 54.6 34.8 54.4 34.4 54.1 33.8 54 33 54L31.6 54 31.6 57.7 33.2 57.7C34.1 57.7 34.6 57.6 34.9 57.2L34.9 57.2Z" fill-opacity="0.9"/><path d="M28.8 0L28 0 28 22 50 22 50 21.9 28.8 0Z" fill-opacity="0.6"/><path d="M28.8 22L28 22 28 44 50 44 50 43.9 28.8 22Z" opacity="0.6" transform="translate(39.000000, 33.000000) rotate(-180.000000) translate(-39.000000, -33.000000) "/></g></g></g></svg>