<?xml version="1.0" standalone="no"?>
<!DOCTYPE svg PUBLIC "-//W3C//DTD SVG 1.1//EN" "http://www.w3.org/Graphics/SVG/1.1/DTD/svg11.dtd" >
<svg xmlns="http://www.w3.org/2000/svg" xmlns:xlink="http://www.w3.org/1999/xlink" version="1.1">
<metadata></metadata>
<defs>
<font id="beepobold" horiz-adv-x="837" >
<font-face units-per-em="2048" ascent="1638" descent="-410" />
<missing-glyph horiz-adv-x="446" />
<glyph horiz-adv-x="0" />
<glyph horiz-adv-x="682" />
<glyph unicode=" "  horiz-adv-x="446" />
<glyph unicode="&#x09;" horiz-adv-x="446" />
<glyph unicode="&#xa0;" horiz-adv-x="446" />
<glyph unicode="!" horiz-adv-x="567" d="M176 0v217h217v-217h-217zM178 391v1079h213v-1079h-213z" />
<glyph unicode="&#x22;" horiz-adv-x="667" d="M82 1470v127l182 -20v-107l-16 -344h-150zM401 1470v127l185 -22v-100l-17 -349h-151z" />
<glyph unicode="#" horiz-adv-x="1443" d="M123 307v217h252v295h-252v217h252v469l221 -26v-443h252v469l221 -26v-443h252v-217h-252v-295h252v-217h-252v-430h-221v430h-252v-430h-221v430h-252zM596 524h252v295h-252v-295z" />
<glyph unicode="$" horiz-adv-x="1069" d="M94 104v322h232v-184q58 -20 118 -29v446q-3 1 -8 4.5t-8 4.5q-80 41 -136.5 82.5t-103.5 97t-70.5 127t-23.5 160.5q0 163 97.5 248t252.5 98v211h154v-215q181 -24 328 -109h4v-340h-230v197q-46 16 -102 26v-409l25 -13q71 -37 117.5 -65.5t95.5 -69.5t76.5 -83.5 t45 -102t17.5 -131.5q0 -94 -29.5 -167t-82.5 -118t-119 -70t-146 -32v-209h-154v211q-195 21 -350 112zM326 1135q-1 -70 27 -117t91 -90v329q-118 -23 -118 -122zM598 215q67 12 106 53.5t39 108.5q0 69 -35 114.5t-110 88.5v-365z" />
<glyph unicode="%" horiz-adv-x="1443" d="M170 1159q0 191 46 254.5t187 63.5q140 0 187 -64t47 -254q0 -130 -20.5 -196.5t-69 -93.5t-144.5 -27q-141 0 -187 63t-46 254zM244 0l764 1473h176l-764 -1473h-176zM324 1159q0 -100 16 -134t63 -34q51 0 67.5 34t16.5 134q0 102 -16.5 136t-67.5 34q-47 0 -63 -34.5 t-16 -135.5zM805 317q0 190 46.5 254t186.5 64q97 0 146 -27.5t69.5 -94t20.5 -196.5q0 -131 -20.5 -198t-69.5 -94t-146 -27q-140 0 -186.5 63.5t-46.5 255.5zM958 317q0 -102 16.5 -136t65.5 -34q51 0 67.5 34t16.5 136q0 101 -16.5 134.5t-67.5 33.5q-49 0 -65.5 -33.5 t-16.5 -134.5z" />
<glyph unicode="&#x26;" horiz-adv-x="1452" d="M176 362q0 66 3 107t15.5 81t30 64t54 52t81 50.5t115.5 53.5l-151 211l-7 141q0 63 4.5 110.5t16 85t25.5 63.5t39.5 44.5t51.5 29t68 16.5t82.5 8t100.5 2t100 -2t82 -8t68.5 -17t52 -29.5t40 -45t26 -64t16 -86t4.5 -111.5q0 -79 -6 -128.5t-22.5 -94t-51.5 -78.5 t-85 -66t-132 -71l209 -293q33 38 47 57v261h231v-324q-64 -98 -149 -174l147 -207h-254l-63 88q-106 -56 -219 -80.5t-213.5 -12.5t-181 53.5t-128 123t-47.5 190.5zM408 362q0 -82 64.5 -126t165.5 -37.5t204 61.5l-240 334q-51 -22 -76 -33.5t-51.5 -28.5t-36 -29 t-18.5 -34.5t-10.5 -45t-1.5 -61.5zM555 1022l119 -166q120 52 151 97t31 165q0 30 -1.5 48t-8 38.5t-18.5 31.5t-34.5 18.5t-54.5 7.5h-69q-41 0 -65.5 -9.5t-34.5 -32.5t-12.5 -43t-2.5 -59v-96z" />
<glyph unicode="'" horiz-adv-x="346" d="M82 1470v127l182 -20l-2 -107l-14 -344h-152z" />
<glyph unicode="(" horiz-adv-x="794" d="M102 739q0 267 22.5 461.5t66.5 328.5t116 214t165 114t220 33v-219q-93 1 -157 -43.5t-110.5 -150.5t-68.5 -288.5t-22 -451.5q0 -270 22 -453t68.5 -289.5t110.5 -151.5t157 -44v-219q-127 -1 -220 33.5t-165 115t-116 215t-66.5 330.5t-22.5 465z" />
<glyph unicode=")" horiz-adv-x="794" d="M102 -201q93 -1 157.5 44t111.5 151.5t69.5 289.5t22.5 453q0 269 -22.5 451.5t-69.5 288.5t-111.5 150.5t-157.5 43.5v219q127 1 220 -33t165 -114t116 -214t66.5 -328.5t22.5 -461.5q0 -269 -22.5 -465t-66.5 -330.5t-116 -215t-165 -115t-220 -33.5v219z" />
<glyph unicode="*" horiz-adv-x="765" d="M82 1391l59 135l52 -15l131 -51l-9 142v69l150 -16v-53l-10 -142l131 53l67 23l31 -145l-51 -17l-135 -35l92 -112l41 -58l-129 -71l-31 43l-84 133l-82 -127l-41 -57l-110 102l30 43l86 102l-125 33z" />
<glyph unicode="+" horiz-adv-x="1265" d="M164 631v184h379v375h184v-375h375v-184h-375v-377h-184v377h-379z" />
<glyph unicode="," horiz-adv-x="489" d="M106 -305l93 375v108h204v-108l-135 -396z" />
<glyph unicode="-" horiz-adv-x="815" d="M123 416v184h569v-184h-569z" />
<glyph unicode="." horiz-adv-x="403" d="M80 0v246h244v-246h-244z" />
<glyph unicode="/" horiz-adv-x="1019" d="M0 -471l770 2343l250 29l-782 -2372h-238z" />
<glyph unicode="0" horiz-adv-x="1128" d="M102 739q0 130 3.5 224t15 173.5t26 131.5t43 92.5t59.5 62.5t81.5 36t103.5 18t131 4q62 0 106.5 -2.5t88.5 -10.5t74 -20.5t58.5 -35.5t46.5 -51.5t34.5 -72t25.5 -94.5t15.5 -121.5t9 -150.5t2.5 -183q0 -131 -3.5 -226t-15 -175t-26 -132.5t-42.5 -93.5t-59 -63 t-81.5 -36.5t-103.5 -18.5t-130 -4q-78 0 -131 4t-103.5 18.5t-81.5 36.5t-59.5 63t-43 93.5t-26 132.5t-15 175t-3.5 226zM334 737q0 -96 1.5 -164t7.5 -125.5t12.5 -94t21 -65t29.5 -42.5t41 -23.5t51.5 -11.5t66.5 -2q40 0 65.5 2t51.5 11t40.5 23.5t29.5 42.5t21.5 64.5 t12.5 94t7.5 126t1.5 164.5t-1.5 163.5t-7 124.5t-12.5 93t-21.5 64.5t-29 42.5t-40.5 23.5t-51.5 11.5t-66.5 2t-66.5 -2t-51.5 -11.5t-41 -23.5t-29.5 -42.5t-21 -64.5t-12.5 -93t-7.5 -125t-1.5 -163z" />
<glyph unicode="1" horiz-adv-x="786" d="M49 1247l215 223h375v-1470h-229v1251h-86l-113 -121z" />
<glyph unicode="2" horiz-adv-x="1026" d="M72 0q0 126 11.5 206t52.5 168t104 170t182 216q34 39 88 95t78 83.5t53 69t39.5 83t11.5 93.5v14l-63 68q-13 4 -119 4q-38 0 -62 -1t-29 -2l-5 -1l-113 -129l-213 123l176 213q66 12 242 12q89 0 155 -3t87 -6l22 -3l150 -160l4 -131q0 -55 -17 -112.5t-38.5 -100.5 t-63.5 -99.5t-69 -87.5t-79 -87.5t-71 -78.5q-133 -149 -187.5 -228t-76.5 -169h374v135h230v-354h-854z" />
<glyph unicode="3" horiz-adv-x="1026" d="M59 213l213 123l113 -129q11 -4 117 -4q30 0 53 0.5t35 1t19.5 1t9.5 0.5l2 1l63 67l2 211q-3 89 -63.5 130.5t-161.5 41.5h-88v217h88q100 0 161 42t64 131v149l-65 70q-13 4 -119 4q-30 0 -53 -0.5t-34.5 -1t-18.5 -1t-9 -1.5h-2l-113 -129l-213 123l177 213 q65 12 262 12q89 0 155 -3t87 -6l22 -3l149 -160l4 -269q0 -168 -147 -278q147 -110 147 -279l-4 -327l-149 -160q-63 -12 -264 -12q-88 0 -153.5 3t-86.5 6l-22 3z" />
<glyph unicode="4" horiz-adv-x="1130" d="M102 391v299l451 780h344v-860h131v-219h-131v-391h-231v391h-564zM330 610h336v613h-9l-327 -568v-45z" />
<glyph unicode="5" horiz-adv-x="1034" d="M94 150l215 135l76 -74q49 -6 121 -6q36 0 68.5 1.5t46.5 3.5l14 1l49 49v330q0 70 -50 92t-131 -7t-169 -100l-219 107v788h768v-327h-232v108h-307l-6 -417q151 78 283.5 86t212 -56t79.5 -186v-572l-92 -108q-141 -12 -315 -12q-78 0 -149.5 3t-103.5 6l-32 3z" />
<glyph unicode="6" horiz-adv-x="985" d="M102 150v1169l129 151q93 15 269 15q74 0 141 -3.5t97 -7.5l30 -4l123 -149l-182 -158l-91 99q-48 4 -120 4l-119 -4l-45 -41v-371q134 63 260.5 67t207.5 -55.5t81 -169.5v-581h-2v-5l-93 -108q-83 -12 -251 -12q-82 0 -158.5 3t-112.5 6l-35 3zM334 268l59 -57 q31 -6 115 -6q34 0 57.5 1.5t30.5 3.5l6 1l49 49v299q0 103 -84 120.5t-233 -67.5v-344z" />
<glyph unicode="7" horiz-adv-x="999" d="M102 1143v327h795v-282l-479 -1188h-252l483 1188v63h-315v-108h-232z" />
<glyph unicode="8" horiz-adv-x="987" d="M57 406q0 283 117 385q-74 109 -74 331q0 113 15.5 180t60 110t114.5 58t187 15q93 0 154.5 -10.5t106 -33t68 -66.5t34 -103.5t10.5 -149.5q0 -222 -74 -331q117 -102 117 -385q0 -131 -17 -208.5t-65.5 -127t-126 -67t-207.5 -17.5q-131 0 -209 17.5t-127 67 t-66.5 127.5t-17.5 208zM289 424q0 -131 37.5 -175t150.5 -44t150 44t37 175q0 155 -36.5 204.5t-150.5 49.5t-151 -49.5t-37 -204.5zM330 1087q0 -133 29 -177t118 -44q87 0 115.5 44t28.5 177q0 108 -28.5 143.5t-115.5 35.5q-89 0 -118 -35.5t-29 -143.5z" />
<glyph unicode="9" horiz-adv-x="993" d="M102 150l183 157l90 -98q49 -4 121 -4l118 4l45 41v309q-100 -47 -199.5 -60.5t-176 6t-124.5 74.5t-48 138v643h2v4l92 109q84 12 252 12q82 0 158 -3t111 -6l36 -3l129 -152v-1169l-129 -152q-92 -14 -268 -14q-74 0 -141 3.5t-97 6.5l-31 4zM342 850q0 -103 84 -120.5 t233 67.5v405l-59 58q-31 6 -115 6q-34 0 -57.5 -1.5t-29.5 -2.5l-7 -2l-49 -50v-360z" />
<glyph unicode=":" horiz-adv-x="593" d="M184 37v246h246v-246h-246zM184 662v245h246v-245h-246z" />
<glyph unicode=";" horiz-adv-x="675" d="M211 -305l88 375v108h229v-108l-120 -396zM289 627v245h246v-245h-246z" />
<glyph unicode="&#x3c;" horiz-adv-x="1075" d="M123 682v147l829 498l-24 -250l-570 -321l570 -320l24 -252z" />
<glyph unicode="=" horiz-adv-x="1265" d="M164 455v182h938v-182h-938zM164 858v184h938v-184h-938z" />
<glyph unicode="&#x3e;" horiz-adv-x="1075" d="M123 184l24 252l570 320l-570 321l-24 250l829 -498v-147z" />
<glyph unicode="?" horiz-adv-x="1042" d="M102 1260l179 213q65 12 241 12q89 0 155 -3t87 -6l22 -3l150 -160l4 -203q0 -60 -32 -120.5t-77 -111.5t-90.5 -101.5t-77.5 -107.5t-32 -112v-166h-213v166q0 81 30 151.5t72.5 120.5t85.5 94.5t73 92t30 94.5v88l-64 68q-12 4 -121 4q-37 0 -61 -1t-29 -2l-6 -1 l-111 -129zM418 0v217h217v-217h-217z" />
<glyph unicode="@" horiz-adv-x="1779" d="M207 457q1 214 36 355.5t118 232t211.5 129t322.5 38.5t322 -38.5t210 -129t116.5 -232t33.5 -355.5q-1 -259 -68.5 -359t-236.5 -100h-109l-123 123q-149 -96 -333 -55l-89 108v506q0 84 60 129t145 47.5t175 -19.5t153 -63v-508l78 -90h41q77 0 103 59.5t24 221.5 q0 168 -24.5 277t-85 179t-154.5 98.5t-240 28.5t-240 -28.5t-154.5 -98.5t-85 -179t-24.5 -277q0 -173 24.5 -285t85 -182.5t154.5 -98.5t240 -26l2 -172q-195 -3 -324 34.5t-212 129.5t-118 236.5t-34 363.5zM778 276l45 -55q85 3 166 51v400q-56 15 -103 16.5t-77.5 -23 t-30.5 -73.5v-316z" />
<glyph unicode="A" horiz-adv-x="1183" d="M53 0l402 1470h276l399 -1470h-223l-104 399h-420l-104 -399h-226zM440 616h305l-143 543h-18z" />
<glyph unicode="B" horiz-adv-x="1087" d="M123 0v1470h360q106 0 165 -4t131.5 -22.5t108.5 -55.5t61.5 -105t25.5 -169l-4 -174l-115 -129q137 -95 137 -356l-4 -250l-182 -205h-684zM354 219h340l68 76l2 158q0 124 -37.5 167.5t-144.5 43.5h-228v-445zM354 874h305l82 93v108q0 56 -15.5 93t-46.5 54.5 t-63 23.5q-28 5 -66 5h-13h-183v-377z" />
<glyph unicode="C" horiz-adv-x="1058" d="M94 483v705l144 272q190 22 326 24h17q133 0 339 -20v-301h-230v101q-31 1 -65 1q-97 0 -224 -10l-75 -141v-631q0 -88 25 -149t65 -89t90 -39q31 -7 63 -7q20 0 40 3q52 7 98.5 21.5t80.5 33t48 34.5l129 -176q-45 -34 -112 -63.5t-149.5 -46.5t-166.5 -19h-11 q-78 0 -153 26q-80 28 -142 81t-99.5 153t-37.5 237z" />
<glyph unicode="D" horiz-adv-x="1081" d="M123 0v1470h373q90 0 133 -1.5t105 -11t88 -27t63 -53.5t49.5 -87.5t28.5 -130.5t20 -181t4 -241q0 -140 -4 -242.5t-20 -182t-28.5 -131t-49.5 -87.5t-63 -54t-88 -27.5t-105 -11t-133 -1.5h-373zM354 219h135q28 -1 50 -1h19q28 0 56.5 6.5t45 12t33.5 23t25.5 33 t17 50.5t11.5 65.5t5.5 87t3 107t0.5 134.5q0 83 -0.5 133t-3 106.5t-5.5 86.5t-11.5 65t-17 50t-25.5 33t-33.5 23t-45.5 11q-28 7 -56 7h-19q-22 0 -50 -1h-135v-1032z" />
<glyph unicode="E" horiz-adv-x="954" d="M123 0v1470h717l-41 -219h-445v-426h375v-217h-375v-389h490l49 -219h-770z" />
<glyph unicode="F" horiz-adv-x="872" d="M123 0v1470h717l-39 -219h-447v-444h396v-217h-396v-590h-231z" />
<glyph unicode="G" horiz-adv-x="1142" d="M94 489v738l144 229q216 23 360 24q9 1 19 1q138 0 331 -21l-2 -219q-169 20 -297 21h-8q-125 0 -260 -15l-55 -86v-672q0 -83 22.5 -142.5t59.5 -89.5t85 -43q30 -7 62 -7q19 0 39 3q52 7 102.5 26t94.5 49v391l-35 31h-238v217h395l107 -109v-815h-229v47 q-57 -28 -121 -43.5t-132 -16.5h-8q-63 0 -123 14q-64 15 -121 53t-99.5 94t-67.5 143.5t-25 197.5z" />
<glyph unicode="H" horiz-adv-x="1089" d="M123 0v1489l231 -29v-645h383v674l230 -29v-1460h-230v598h-383v-598h-231z" />
<glyph unicode="I" horiz-adv-x="477" d="M123 0v1470l231 -24v-1446h-231z" />
<glyph unicode="J" horiz-adv-x="845" d="M94 25v221q21 -10 99.5 -24.5t154.5 -14.5q43 0 109 4l37 39v1001h-168v219h397v-1347l-111 -119q-98 -16 -264 -16q-59 0 -122.5 9t-97.5 19z" />
<glyph unicode="K" horiz-adv-x="1036" d="M123 0v1470l231 -24v-604l68 39l338 589h233l-375 -671l130 -90l256 -709h-232l-221 618l-88 60l-109 -64v-614h-231z" />
<glyph unicode="L" horiz-adv-x="894" d="M123 0v1470l231 -24v-1227h475v-219h-706z" />
<glyph unicode="M" horiz-adv-x="1449" d="M143 0v1470h291l287 -938h8l287 938h291v-1470h-215v1044h-7l-233 -856h-254l-231 856h-7v-1044h-217z" />
<glyph unicode="N" horiz-adv-x="1216" d="M143 0v1470h240l467 -1003v1003h223v-1470h-239l-467 1001v-1001h-224z" />
<glyph unicode="O" horiz-adv-x="1112" d="M94 739q0 130 3.5 224t15 173.5t26 131.5t43 92.5t59.5 62.5t81.5 36t103.5 18t131 4q62 0 106.5 -2.5t88.5 -10.5t74 -20.5t58.5 -35.5t46.5 -51.5t34.5 -72t25.5 -94.5t15.5 -121.5t9 -150.5t2.5 -183q0 -131 -3.5 -226t-15 -175t-26 -132.5t-42.5 -93.5t-59 -63 t-81.5 -36.5t-103.5 -18.5t-130 -4q-78 0 -131 4t-103.5 18.5t-81.5 36.5t-59.5 63t-43 93.5t-26 132.5t-15 175t-3.5 226zM326 737q0 -96 1.5 -164t7.5 -125.5t12.5 -94t21 -65t29.5 -42.5t41 -23.5t51.5 -11.5t66.5 -2q40 0 65.5 2t51.5 11t40.5 23.5t29 42.5t21 64.5 t12.5 94t7.5 126t1.5 164.5q0 128 -3 209t-13.5 143.5t-24 94t-43 50.5t-60.5 23.5t-85 4.5q-41 0 -66.5 -2t-51.5 -11.5t-41 -23.5t-29.5 -42.5t-21 -64.5t-12.5 -93t-7.5 -125t-1.5 -163z" />
<glyph unicode="P" horiz-adv-x="1038" d="M123 0v1470h364q60 0 98 -0.5t85 -3.5t76 -8.5t63 -14.5t54.5 -23t42.5 -33.5t34 -45.5t22.5 -59.5t14.5 -75.5t4 -94l-6 -309h-2l2 -6l-182 -203h-439v-594h-231zM354 813h338l49 57l2 222q0 92 -41 126q-40 34 -143 33h-6h-199v-438z" />
<glyph unicode="Q" horiz-adv-x="1112" d="M94 739q0 130 3.5 224t15 173.5t26 131.5t43 92.5t59.5 62.5t81.5 36t103.5 18t131 4q62 0 106.5 -2.5t88.5 -10.5t74 -20.5t58.5 -35.5t46.5 -51.5t34.5 -72t25.5 -94.5t15.5 -121.5t9 -150.5t2.5 -183q0 -153 -5.5 -258.5t-20.5 -190t-37.5 -135.5t-60.5 -86.5 t-86 -51.5t-118 -23q3 -92 158 -92v-148q-75 0 -130.5 10.5t-101.5 36t-71.5 73t-28.5 116.5q-70 1 -119 7t-94 21.5t-74.5 39.5t-54.5 65.5t-39 94.5t-24 131.5t-13.5 171t-3.5 218.5zM326 737q0 -119 2.5 -197t11.5 -140t21 -95.5t35 -56t50 -30t70 -9.5v192h174v-172 q57 30 76.5 136t19.5 372q0 128 -3 209t-13.5 143.5t-24 94t-43 50.5t-60.5 23.5t-85 4.5q-41 0 -66.5 -2t-51.5 -11.5t-41 -23.5t-29.5 -42.5t-21 -64.5t-12.5 -93t-7.5 -125t-1.5 -163z" />
<glyph unicode="R" horiz-adv-x="1150" d="M123 0v1470h338q86 0 136 -2t110 -9t92 -21.5t66 -40t49.5 -64t25.5 -93t10 -128.5v-274l-125 -133l76 -99l191 -606h-232l-190 569l-60 68h-256v-637h-231zM354 856h308l53 59v177q1 92 -41 126q-40 34 -144 33h-6h-170v-395z" />
<glyph unicode="S" horiz-adv-x="1069" d="M94 104v322h232v-184q79 -27 153 -33q22 -2 43 -2q49 0 90 10q59 14 95 55t36 105q0 27 -7 51t-16 42.5t-30.5 38t-37 32t-49 32t-54 30t-65 32.5t-68.5 35q-79 41 -134.5 82t-99.5 96t-66 126.5t-22 160.5q0 103 41.5 177t110.5 111q68 37 156 51q50 8 102 8q39 0 79 -4 q93 -11 182 -39.5t161 -70.5h4v-340h-230v197q-98 32 -182 36h-18q-72 1 -120 -27q-54 -32 -54 -99v-9q0 -30 6 -56q7 -30 25.5 -56t38.5 -45.5t58.5 -42.5t70.5 -40.5t88 -45.5l18 -9q87 -44 143.5 -82t105.5 -91t72 -122t23 -159q0 -100 -33.5 -176t-91 -119.5 t-132.5 -67.5q-74 -24 -157 -26q-8 0 -17 -1q-75 1 -150 13q-84 14 -161 40.5t-139 63.5z" />
<glyph unicode="T" horiz-adv-x="1040" d="M74 1251v219h921v-219h-348v-1251h-231v1251h-342z" />
<glyph unicode="U" horiz-adv-x="1132" d="M123 739v731l231 -24v-707q0 -118 2 -188t9.5 -137.5t20.5 -100.5t37.5 -60t58 -35.5t83.5 -8.5q38 0 66 4.5t51 19t38 31.5t26 51t17 68.5t9.5 94t4.5 116t1 145.5v705l232 26v-731q0 -162 -8.5 -277t-31 -200t-53.5 -136.5t-83.5 -82.5t-114.5 -42t-152 -11t-152 11 t-114.5 42t-84 82.5t-54 136.5t-31 200t-8.5 277z" />
<glyph unicode="V" horiz-adv-x="1128" d="M53 1470l236 -24l256 -1016h43l254 1016l233 24l-381 -1470h-258z" />
<glyph unicode="W" horiz-adv-x="1650" d="M53 1470l228 -24l229 -1020h16l162 840h275l159 -840h17l229 1020l229 24l-325 -1470h-260l-183 879h-10l-180 -879h-260z" />
<glyph unicode="X" horiz-adv-x="1148" d="M53 0l398 735l-398 735l264 -28l258 -477l256 477l265 28l-398 -735l398 -735h-250l-271 504l-272 -504h-250z" />
<glyph unicode="Y" horiz-adv-x="1042" d="M53 1470l238 -22l231 -588l228 588l239 22l-350 -892v-578h-229v575z" />
<glyph unicode="Z" horiz-adv-x="1112" d="M94 152l606 1069l-24 30h-301v-110h-230v329h758l115 -147l-617 -1069l27 -35h307v103h228v-322h-752v2z" />
<glyph unicode="[" horiz-adv-x="610" d="M102 739q0 188 1 322.5t7 259.5t11.5 207t20 156t28 116.5t40.5 79t51 52t67 26.5t81 13t99 1v-219q-72 2 -98 -14q-43 -27 -58 -145q-17 -134 -18 -656v-201q0 -641 11 -793q13 -163 53 -203q25 -25 91 -24h19v-219q-61 -1 -99 1t-81 13t-67 27t-51 52.5t-40.5 79.5 t-28 117.5t-20 157.5t-11 208t-7 260.5t-1.5 324.5z" />
<glyph unicode="\" horiz-adv-x="1019" d="M0 1901l250 -29l770 -2343h-238z" />
<glyph unicode="]" horiz-adv-x="622" d="M102 -231h140l47 49v1835l-47 51h-140v219h269l149 -160v-2054l-149 -160h-269v220z" />
<glyph unicode="^" horiz-adv-x="1099" d="M139 1239l305 571l29 54h148l28 -54l305 -571l-252 25l-155 329l-158 -329z" />
<glyph unicode="_" horiz-adv-x="1101" d="M102 -78h897v-182h-897v182z" />
<glyph unicode="`" horiz-adv-x="712" d="M82 1903l125 186l424 -354l-144 -172z" />
<glyph unicode="a" d="M74 104q0 201 13 264.5t63 106.5q54 46 150.5 78t205.5 43v94q0 44 -32 64q-28 17 -66 17h-12q-45 -3 -95 -21v-93h-180v205q51 36 127 61.5t158 30.5q20 1 40 1q60 1 114 -11q72 -16 118.5 -67t46.5 -132v-745h-176l-43 43q-102 -56 -220 -56q-52 0 -106 11zM293 207 l29 -27q94 8 184 70v196q-131 -19 -174 -57q-25 -19 -32 -54.5t-7 -127.5z" />
<glyph unicode="b" horiz-adv-x="870" d="M113 0v1608l219 -27v-666q79 28 158 37q34 4 65 4q43 0 81 -7q66 -12 108 -55.5t42 -113.5v-671l-114 -121q-174 0 -342 65l-37 -53h-180zM332 266q108 -43 207 -57l26 27v413q-1 76 -71 89q-16 3 -32 3q-59 0 -130 -36v-439z" />
<glyph unicode="c" horiz-adv-x="743" d="M84 162v672l109 108q48 14 253 14q57 0 110 -3.5t77 -6.5l24 -4v-311h-161v112q-16 2 -50 2q-46 0 -108 -4l-33 -30v-432q0 -47 37 -66q28 -14 62 -14q12 -1 24 1q50 6 96.5 22.5t69.5 35.5l115 -176q-48 -36 -127 -62q-78 -24 -163 -30q-27 -2 -53 -2q-56 0 -108 8 q-76 12 -125 55t-49 111z" />
<glyph unicode="d" horiz-adv-x="870" d="M84 109v671q0 69 42 112.5t109 55.5q38 7 81 7q32 0 66 -4q80 -9 157 -38v697l219 -27v-1583h-180l-39 57v13q-167 -80 -330 -80h-12zM305 236l25 -25q108 23 209 74v420q-72 36 -131 36q-17 0 -32 -3q-71 -13 -71 -89v-413z" />
<glyph unicode="e" horiz-adv-x="800" d="M84 162v672l109 108q93 14 251 14q52 0 101 -3.5t71 -6.5l23 -4l104 -108v-99q0 -142 -12 -187t-65 -85q-108 -81 -361 -96v-86q0 -51 39 -73q30 -17 70 -16q12 0 25 2q56 6 115.5 26.5t104.5 49.5l105 -168q-80 -56 -198 -87q-114 -30 -217 -30h-7q-106 1 -182 46.5 t-76 130.5zM305 518q132 12 180 51q31 23 38 58q4 22 4 56q0 19 -1 42l-24 29q-20 10 -107 10q-33 0 -63 -6l-27 -29v-211z" />
<glyph unicode="f" horiz-adv-x="675" d="M61 760v182h132v442l114 119q78 29 140 35t219 6v-211q-169 0 -224 -6l-28 -29v-356h227v-182h-227v-760h-221v760h-132z" />
<glyph unicode="g" horiz-adv-x="845" d="M84 109v671q0 66 39 108.5t102 56.5q45 10 97 10q20 0 41 -1q75 -6 151 -30v34l219 -26v-1172l-112 -137q-61 -16 -232 -16q-62 0 -119 4t-84 8l-26 4v209q1 0 29 -3.5t82 -7t118 -3.5q30 0 84 4l41 49v154q-105 -42 -222 -42q-47 0 -95 7zM305 236l43 -43q88 9 166 49 v473q-60 26 -108 26q-21 0 -39 -5q-62 -15 -62 -87v-413z" />
<glyph unicode="h" horiz-adv-x="909" d="M113 0v1620l227 -31v-749q191 114 344 114l115 -118v-836h-228v688l-30 29q-104 -25 -201 -62v-655h-227z" />
<glyph unicode="i" horiz-adv-x="487" d="M113 1149v252h262v-252h-262zM135 0v952l219 -26v-926h-219z" />
<glyph unicode="j" horiz-adv-x="503" d="M-51 -236q2 1 20.5 -1t47 -4.5t49.5 -2.5h51l39 49v1147l219 -26v-1192l-139 -172q-33 -17 -170 -17q-23 0 -52 2.5t-47 4.5l-18 2v210zM129 1149v252h262v-252h-262z" />
<glyph unicode="k" horiz-adv-x="940" d="M113 0v1618l219 -25v-952l37 29l241 327h234l-283 -383l94 -59l275 -555h-244l-227 465l-49 39l-78 -51v-453h-219z" />
<glyph unicode="l" horiz-adv-x="444" d="M113 0v1626l219 -24v-1602h-219z" />
<glyph unicode="m" horiz-adv-x="1282" d="M113 0v956l227 -28v-72q164 98 299 98l102 -106q175 106 316 106l112 -118v-836h-217v696l-39 39q-79 -21 -159 -51v-684h-217v696l-39 39q-93 -26 -158 -51v-684h-227z" />
<glyph unicode="n" horiz-adv-x="909" d="M113 0v956l227 -28v-88q191 114 344 114l115 -118v-836h-228v688l-30 31q-102 -25 -201 -64v-655h-227z" />
<glyph unicode="o" d="M84 471q0 110 4.5 181.5t19.5 129.5t37 89t62.5 51.5t89.5 27t125 6.5q74 0 122.5 -6.5t88 -27t61 -51.5t36.5 -89t19.5 -129.5t4.5 -181.5q0 -109 -4.5 -180.5t-19.5 -129t-36.5 -88.5t-61 -51.5t-88 -27t-122.5 -6.5q-76 0 -125 6.5t-89.5 27t-62.5 51.5t-37 88.5 t-19.5 129t-4.5 180.5zM305 471q0 -80 2.5 -123.5t8 -77.5t19.5 -47t32.5 -18.5t52.5 -5.5q28 0 44.5 2.5t30.5 13.5t21 27t12 49.5t6 73.5t1 106q0 80 -2.5 124.5t-8 78t-20 47t-33 19t-51.5 5.5q-34 0 -52.5 -5.5t-32.5 -18.5t-19.5 -47.5t-8 -78t-2.5 -124.5z" />
<glyph unicode="p" horiz-adv-x="856" d="M113 -518v1479l219 -27v-23q75 26 152 32q24 2 47 2q51 0 95 -9q65 -14 105.5 -54.5t40.5 -103.5v-672l-115 -118q-193 0 -325 35v-541h-219zM332 233q76 -19 188 -30l41 41v401q0 49 -33 72q-28 20 -70 20q-6 0 -13 -1q-51 -3 -113 -29v-474z" />
<glyph unicode="q" horiz-adv-x="860" d="M84 106v672q0 84 70 127q69 42 165 42q4 0 7 -1q101 -1 204 -37v47l222 -26v-1243l88 -86l-133 -162l-177 180v408q-126 -35 -331 -39zM295 244l41 -41q109 10 194 33v469q-63 27 -116 31q-8 1 -16 1q-41 0 -70 -19q-33 -23 -33 -73v-401z" />
<glyph unicode="r" horiz-adv-x="731" d="M113 0v956l227 -28v-43q56 30 125.5 48.5t124.5 18.5l151 -182l-147 -137l-86 104q-95 -17 -168 -61v-676h-227z" />
<glyph unicode="s" horiz-adv-x="786" d="M68 676q0 99 46.5 164.5t118.5 90.5q71 25 157 27h15q78 0 151 -19q80 -21 140 -56h4v-244h-178v84q-51 24 -103 31q-14 2 -28 2q-35 0 -63 -14q-39 -18 -39 -64q0 -39 44.5 -64t147.5 -57q140 -43 205.5 -107t65.5 -182q0 -100 -49.5 -165.5t-126 -89.5t-166.5 -25h-8 q-86 0 -164 20q-82 20 -142 53v254h180v-94q48 -17 92 -25q32 -6 61 -6q11 0 21 1q38 3 60 22.5t22 54.5q0 41 -39 63.5t-161 63.5q-49 17 -81.5 30.5t-70.5 37.5t-60 51t-37 68.5t-15 93.5z" />
<glyph unicode="t" horiz-adv-x="677" d="M20 760v182h119v440l219 -26v-414h230v-182h-230v-494l64 -62q51 -4 178 -5v-211q-102 0 -150 1.5t-105 11t-93 28.5l-113 118v613h-119z" />
<glyph unicode="u" horiz-adv-x="876" d="M102 113v829l220 -24v-678l28 -35q125 15 205 39v671l219 27v-942h-176l-31 31q-150 -43 -352 -43z" />
<glyph unicode="v" horiz-adv-x="821" d="M6 952l236 -10l168 -631h12l158 633l235 10l-270 -952h-37v-2h-232z" />
<glyph unicode="w" horiz-adv-x="1144" d="M6 956l232 -22l110 -623h23l82 592h237l84 -592h23l110 623l232 22l-213 -956h-275l-71 543h-15l-71 -543h-275z" />
<glyph unicode="x" horiz-adv-x="823" d="M8 0l285 471l-283 481l260 -28l144 -250l141 250l258 28l-283 -479l287 -473h-262l-143 260l-144 -260h-260z" />
<glyph unicode="y" horiz-adv-x="890" d="M6 952l230 -24l176 -547h47l178 545l248 26l-461 -1405l-205 101l135 413h-69z" />
<glyph unicode="z" horiz-adv-x="821" d="M63 147l424 592l-18 21h-174v-94h-178v276h528l123 -145l-426 -592l20 -23h179v86h180v-268h-535v2z" />
<glyph unicode="{" horiz-adv-x="876" d="M102 657v217h45q92 0 151 42.5t62 130.5l-2 714l-2 2l150 160h268v-219h-139l-49 -53l4 -607q0 -167 -148 -278q148 -111 148 -279l-4 -667l49 -51h139v-220h-268l-150 160l4 776q-3 88 -62 130t-151 42h-45z" />
<glyph unicode="|" horiz-adv-x="641" d="M205 -442v2293h231v-2293h-231z" />
<glyph unicode="}" horiz-adv-x="876" d="M102 -231h140l47 49l-4 669q0 169 147 279q-147 110 -147 278l4 609l-47 51h-140v219h269l149 -160l-2 -2l-2 -714q3 -89 61.5 -131t151.5 -42h45v-217h-45q-93 0 -151.5 -41.5t-61.5 -130.5l4 -776l-149 -160h-269v220z" />
<glyph unicode="~" horiz-adv-x="1050" d="M82 797l151 145q32 -40 80.5 -54.5t89.5 -9.5t80 21q37 15 60 23t60.5 17.5t65.5 9.5t67 -6t73.5 -23t76 -47t83.5 -74l-158 -144q-27 28 -54.5 43.5t-48.5 21t-52.5 1.5t-49 -9t-55.5 -18q-54 -18 -86.5 -27t-87 -14t-97 6.5t-95.5 45.5t-103 92z" />
<glyph unicode="&#xa1;" horiz-adv-x="567" d="M176 725v217h217v-217h-217zM178 -528v1079h213v-1079h-213z" />
<glyph unicode="&#xa2;" horiz-adv-x="1032" d="M205 406v657q0 77 60.5 119.5t158.5 50.5v176h154v-180q156 -19 249 -86l-112 -176q-23 19 -70 35t-96.5 22.5t-87 -12.5t-37.5 -66v-426q0 -46 37.5 -64.5t87 -12t96.5 23t70 35.5l112 -176q-91 -69 -249 -88v-177h-154v172q-98 10 -158.5 53t-60.5 120z" />
<glyph unicode="&#xa3;" horiz-adv-x="1155" d="M123 0v219l248 254q0 37 -9 111h-227v219h152q-8 15 -29 56.5t-30 61.5t-22 54.5t-18.5 66t-5.5 66.5l4 205l152 160q63 12 264 12q78 0 138.5 -3t81.5 -6l22 -3l176 -213l-215 -123l-111 129q-12 4 -96 4q-48 0 -78 -1t-36 -2l-5 -1l-67 -72q1 -57 7.5 -103t23 -90.5 t25.5 -66t35.5 -70t33.5 -61.5h368v-219h-295q11 -79 11 -150l-215 -215h620v-219h-903z" />
<glyph unicode="&#xa5;" horiz-adv-x="1345" d="M123 1470l215 -22l336 -635l332 635l217 22l-398 -798h240v-156h-274v-135h274v-154h-274v-227h-230v227h-285v154h285v135h-285v156h250z" />
<glyph unicode="&#xa6;" horiz-adv-x="641" d="M205 -442v925h231v-925h-231zM205 926v925h231v-925h-231z" />
<glyph unicode="&#xa7;" horiz-adv-x="995" d="M164 121h182v-139q80 -23 147.5 -24t112.5 31t45 91q0 22 -5 40.5t-18 35t-24.5 28t-37 27.5t-41.5 24.5t-52.5 27.5t-56.5 30q-60 32 -101.5 63t-78 72.5t-54.5 95t-18 119.5q0 144 106 213q-106 98 -106 254q0 93 44.5 154.5t115 84.5t155.5 23t167.5 -23t148.5 -61h4 v-266h-181v152q-104 37 -188 21.5t-84 -85.5q-1 -38 9 -65.5t44 -55.5t57 -41.5t89 -48.5q14 -8 22 -12q53 -28 86 -48.5t71 -51.5t58.5 -62.5t34.5 -77t14 -100.5q0 -151 -102 -230q102 -89 102 -237q0 -88 -34.5 -151t-90.5 -94t-127 -43.5t-145.5 -3.5t-144.5 30.5 t-125 54.5v248zM346 643q-1 -38 10 -66t41 -53.5t58 -42.5t86 -47q51 8 80.5 36.5t29.5 76.5q0 33 -11 58t-38 47t-52.5 37t-74.5 40q-59 0 -94 -21.5t-35 -64.5z" />
<glyph unicode="&#xa8;" horiz-adv-x="622" d="M47 1624v195h180v-195h-180zM397 1624v195h181v-195h-181z" />
<glyph unicode="&#xa9;" horiz-adv-x="1699" d="M188 711q0 384 157.5 557.5t506.5 173.5q347 0 503 -173.5t156 -557.5q0 -389 -156 -565.5t-503 -176.5q-348 0 -506 176.5t-158 565.5zM305 711q0 -330 129.5 -478.5t415.5 -148.5t415.5 148.5t129.5 478.5q0 324 -129.5 470t-415.5 146t-415.5 -146t-129.5 -470z M555 449v544l102 105q49 14 244 14q55 0 105 -3.5t73 -6.5l23 -4v-295h-152v108q-16 2 -49 2q-42 0 -104 -4l-33 -30v-322q0 -44 35.5 -62t83 -11.5t92.5 22t67 33.5l109 -166q-46 -35 -121.5 -59t-156.5 -29.5t-153 6t-118.5 52.5t-46.5 106z" />
<glyph unicode="&#xab;" horiz-adv-x="1411" d="M123 436v148l625 497l-25 -250l-391 -303v-36l391 -302l25 -251zM664 436v148l624 497l-24 -250l-392 -303v-36l392 -302l24 -251z" />
<glyph unicode="&#xad;" horiz-adv-x="1228" d="M123 416v184h569v-184h-569z" />
<glyph unicode="&#xae;" horiz-adv-x="1257" d="M158 1157q0 262 112.5 381t360.5 119q245 0 357 -119t112 -381q0 -266 -112 -387t-357 -121q-248 0 -360.5 120.5t-112.5 387.5zM250 1157q0 -221 90 -321.5t289 -100.5t289 100.5t90 321.5q0 217 -90 315.5t-289 98.5t-289 -98.5t-90 -315.5zM453 872v568h143 q51 0 79.5 -2t58 -9.5t43.5 -23t23 -43t9 -68.5l-4 -116l-43 -52l29 -47l79 -207h-127l-77 193l-19 22h-67v-215h-127zM580 1208h84l14 17v57q0 14 -13.5 24.5t-25.5 12.5h-59v-111z" />
<glyph unicode="&#xb0;" horiz-adv-x="651" d="M41 1470q0 175 63 242.5t224 67.5q160 0 221 -67.5t61 -242.5q0 -173 -61 -239t-221 -66q-162 0 -224.5 66t-62.5 239zM203 1470q0 -86 27 -118.5t96 -32.5q70 0 96.5 32.5t26.5 118.5q0 88 -26.5 121t-96.5 33q-69 0 -96 -33.5t-27 -120.5z" />
<glyph unicode="&#xb1;" horiz-adv-x="1265" d="M164 147v183h938v-183h-938zM164 850v182h379v311h184v-311h375v-182h-375v-313h-184v313h-379z" />
<glyph unicode="&#xb2;" horiz-adv-x="571" d="M39 1067q0 128 35 205t153 209q21 24 55 58t48.5 51t27 46.5t13.5 65.5v6l-25 23q-6 4 -61 4l-37 -4l-62 -68l-139 76l105 125q35 6 131 6q48 0 83.5 -1.5t46.5 -2.5l11 -2l90 -95v-67q1 -52 -26 -108t-57 -92.5t-84 -94.5q-11 -12 -17 -18q-64 -72 -91 -109t-40 -74h176 v74h145v-213h-481z" />
<glyph unicode="&#xb3;" horiz-adv-x="589" d="M55 1194l140 78l59 -70q20 -2 61 -2l52 2l22 23l2 108q-3 82 -102 82h-49v139h49q99 0 102 80v78l-24 23q-5 2 -52 2l-61 -2l-59 -70l-140 76l103 125q37 6 143 6q48 0 83.5 -1.5t46.5 -2.5l11 -2l93 -94l2 -138q0 -84 -76 -149q76 -65 76 -152l-2 -168l-93 -96 q-32 -4 -141 -4l-143 4z" />
<glyph unicode="&#xb4;" horiz-adv-x="712" d="M82 1735l424 354l125 -186l-406 -340z" />
<glyph unicode="&#xb6;" horiz-adv-x="1488" d="M123 1214q0 52 4 94t14.5 75.5t22 59.5t33.5 46t42 33.5t54 23t63 15t75.5 8t85 3.5t97.5 1h367v-1813h-231v936h-441l-180 203l2 6h-2zM1135 -240v1813h231v-1813h-231z" />
<glyph unicode="&#xb7;" horiz-adv-x="413" d="M84 449v245h246v-245h-246z" />
<glyph unicode="&#xb8;" horiz-adv-x="686" d="M84 -397l45 170q37 -6 135 -6l70 2l59 71q-51 77 -229 74l72 287l151 -6l-39 -132q122 -25 189 -99.5t67 -182.5l-149 -178q-52 -11 -189 -11q-155 1 -182 11z" />
<glyph unicode="&#xb9;" horiz-adv-x="448" d="M55 1747l115 117h221v-795h-143v657h-39l-51 -53z" />
<glyph unicode="&#xbb;" horiz-adv-x="1411" d="M123 -61l24 251l392 302v36l-392 303l-24 250l625 -497v-148zM664 -61l24 251l393 304v32l-393 305l-24 250l624 -497v-148z" />
<glyph unicode="&#xbc;" horiz-adv-x="1368" d="M82 1745l115 117h221v-795h-144v657h-41l-51 -53zM127 0l922 1864h145l-924 -1864h-143zM762 201v180l244 416h206v-459h74v-137h-74v-199h-145v199h-305zM905 338h162v295l-162 -277v-18z" />
<glyph unicode="&#xbd;" horiz-adv-x="1386" d="M82 1745l115 117h221v-795h-144v657h-41l-51 -53zM127 0l922 1864h145l-924 -1864h-143zM823 0q0 128 35.5 205t153.5 209q21 24 55 58.5t48 51t26.5 46t13.5 65.5v6l-25 23q-6 4 -61 4l-37 -4l-61 -68l-140 76l105 125q35 6 131 6q48 0 83.5 -1.5t46.5 -3.5l11 -1 l90 -95v-67q1 -52 -26 -108t-57 -92.5t-84 -94.5l-6 -6t-5 -5.5t-6 -6.5q-65 -71 -92.5 -108.5t-38.5 -74.5h176v74h146v-213h-482z" />
<glyph unicode="&#xbe;" horiz-adv-x="1458" d="M82 1194l139 78l60 -70q20 -2 61 -2l51 2l21 21l2 110q-3 82 -101 82h-49v139h49q98 0 101 80v78l-23 23q-4 2 -51 2l-61 -2l-60 -70l-139 76l102 125q38 6 142 6q48 0 84 -1.5t48 -2.5l11 -2l90 -94l4 -138q0 -84 -76 -149q76 -65 76 -152l-4 -168l-90 -96 q-34 -4 -143 -4l-142 4zM217 0l922 1864h145l-924 -1864h-143zM854 201v180l242 416h207v-459h73v-137h-73v-199h-144v199h-305zM995 338h164v299l-164 -281v-18z" />
<glyph unicode="&#xbf;" horiz-adv-x="1042" d="M102 51q0 51 23 103t57 94t74 88t74 86t57 89t23 95v166h213v-166q0 -81 -30 -151.5t-72.5 -120.5t-84.5 -94.5t-72 -92t-30 -94.5v-90l63 -65q12 -4 121 -4q37 0 61 1t29 2l6 1l111 129l215 -123l-178 -213q-66 -13 -242 -13q-89 0 -155 3t-87 7l-22 3l-150 157z M408 944v219h217v-219h-217z" />
<glyph unicode="&#xc0;" horiz-adv-x="1183" d="M53 0l402 1470h276l399 -1470h-223l-104 399h-420l-104 -399h-226zM319 1903l125 186l424 -354l-143 -172zM440 616h305l-143 543h-18z" />
<glyph unicode="&#xc1;" horiz-adv-x="1183" d="M53 0l402 1470h276l399 -1470h-223l-104 399h-420l-104 -399h-226zM315 1735l424 354l125 -186l-405 -340zM440 616h305l-143 543h-18z" />
<glyph unicode="&#xc2;" horiz-adv-x="1183" d="M53 0l402 1470h276l399 -1470h-223l-104 399h-420l-104 -399h-226zM188 1591l240 369h328l239 -369l-260 25l-121 174h-47l-121 -174zM440 616h305l-143 543h-18z" />
<glyph unicode="&#xc3;" horiz-adv-x="1183" d="M53 0l402 1470h276l399 -1470h-223l-104 399h-420l-104 -399h-226zM147 1788l152 145q32 -40 80.5 -54.5t89.5 -9.5t80 21q37 15 60 23t60.5 17.5t65 9.5t66.5 -6t73.5 -23t76 -47t83.5 -74l-157 -145q-22 24 -43.5 39.5t-45 21.5t-40.5 8t-44 -3.5t-41.5 -10 t-46.5 -14.5q-37 -13 -60 -20t-61.5 -15t-66.5 -8t-66.5 6t-71 22.5t-70 45.5t-73.5 71zM440 616h305l-143 543h-18z" />
<glyph unicode="&#xc4;" horiz-adv-x="1183" d="M53 0l402 1470h276l399 -1470h-223l-104 399h-420l-104 -399h-226zM328 1624v195h180v-195h-180zM440 616h305l-143 543h-18zM678 1624v195h180v-195h-180z" />
<glyph unicode="&#xc5;" horiz-adv-x="1183" d="M53 0l393 1442q-61 42 -61 182q0 124 45 171.5t162 47.5q114 0 156.5 -47t42.5 -172q0 -135 -54 -178l393 -1446h-223l-104 399h-420l-104 -399h-226zM440 616h305l-143 543h-18zM524 1624q0 -47 14 -64.5t52 -17.5t51.5 17t13.5 65t-13.5 67t-51.5 19t-52 -19t-14 -67z " />
<glyph unicode="&#xc6;" horiz-adv-x="1599" d="M53 0l379 1470h1055l-43 -219h-445v-426h375v-217h-375v-389h492l47 -219h-770v399h-391l-98 -399h-226zM432 616h336v635h-180z" />
<glyph unicode="&#xc7;" horiz-adv-x="1058" d="M94 483v705l144 272q189 23 325.5 24.5t356.5 -20.5v-301h-230v101q-116 5 -289 -9l-75 -141v-631q0 -88 25 -149t65 -89t90.5 -39t102.5 -4t98.5 21.5t80.5 33t48 34.5l129 -176q-67 -51 -182 -88.5t-232 -40.5l-10 -33q121 -26 187.5 -101t66.5 -182l-150 -178 q-51 -10 -188 -10q-174 1 -185 10l45 170q38 -6 136 -6l71 2l62 70q-50 78 -232 75l52 199q-67 17 -121 51t-98 90.5t-68.5 142.5t-24.5 197z" />
<glyph unicode="&#xc8;" horiz-adv-x="954" d="M123 0v1470h717l-41 -219h-445v-426h375v-217h-375v-389h490l49 -219h-770zM227 1896l125 189l426 -354l-143 -175z" />
<glyph unicode="&#xc9;" horiz-adv-x="954" d="M123 0v1470h717l-41 -219h-445v-426h375v-217h-375v-389h490l49 -219h-770zM223 1731l426 354l125 -189l-407 -340z" />
<glyph unicode="&#xca;" horiz-adv-x="954" d="M96 1587l240 369h328l239 -369l-258 25l-121 174h-47l-121 -174zM123 0v1470h717l-41 -219h-445v-426h375v-217h-375v-389h490l49 -219h-770z" />
<glyph unicode="&#xcb;" horiz-adv-x="954" d="M123 0v1470h717l-41 -219h-445v-426h375v-217h-375v-389h490l49 -219h-770zM236 1620v195h180v-195h-180zM586 1620v195h180v-195h-180z" />
<glyph unicode="&#xcc;" horiz-adv-x="477" d="M-35 1901l125 188l426 -354l-143 -174zM123 0v1470l231 -24v-1446h-231z" />
<glyph unicode="&#xcd;" horiz-adv-x="477" d="M-39 1735l426 354l125 -188l-408 -340zM123 0v1470l231 -24v-1446h-231z" />
<glyph unicode="&#xce;" horiz-adv-x="477" d="M-166 1591l240 367h327l240 -367l-258 23l-121 176h-47l-121 -176zM123 0v1470l231 -24v-1446h-231z" />
<glyph unicode="&#xcf;" horiz-adv-x="477" d="M-27 1624v193h181v-193h-181zM123 0v1470l231 -24v-1446h-231zM324 1624v193h180v-193h-180z" />
<glyph unicode="&#xd0;" horiz-adv-x="1196" d="M123 637v217h115v616h372q90 0 133 -1.5t105 -11t88 -27.5t63 -53.5t50 -87t29 -130.5t20 -181t4 -241q0 -140 -4 -242.5t-20 -182t-29 -131t-50 -87.5t-63 -54t-88 -27.5t-105 -11t-133 -1.5h-372v637h-115zM467 219h137q42 -1 69.5 -0.5t56 6.5t45 11t33.5 23t25 33.5 t16.5 50.5t11.5 65t5.5 87.5t3 107.5t0.5 134q0 83 -0.5 133t-3 106.5t-5.5 86.5t-11.5 65t-16.5 50t-25 33t-33.5 23t-45 11t-56 6.5t-69.5 -0.5h-137v-397h188v-217h-188v-418z" />
<glyph unicode="&#xd1;" horiz-adv-x="1216" d="M143 0v1470h240l467 -1003v1003h223v-1470h-239l-467 1001v-1001h-224zM166 1786l151 145q32 -39 80.5 -53t89.5 -9t80 21q37 14 59.5 22t60 17t65.5 9t67 -6t74 -23t76.5 -47t83.5 -74l-158 -143q-34 35 -65.5 52t-67.5 15.5t-59.5 -7.5t-69.5 -22q-39 -13 -60.5 -19.5 t-61 -14.5t-66.5 -8t-65.5 6t-70.5 22.5t-70 45.5t-73 71z" />
<glyph unicode="&#xd2;" horiz-adv-x="1112" d="M94 739q0 130 3.5 224t15 173.5t26 131.5t43 92.5t59.5 62.5t81.5 36t103.5 18t131 4q62 0 106.5 -2.5t88.5 -10.5t74 -20.5t58.5 -35.5t46.5 -51.5t34.5 -72t25.5 -94.5t15.5 -121.5t9 -150.5t2.5 -183q0 -131 -3.5 -226t-15 -175t-26 -132.5t-42.5 -93.5t-59 -63 t-81.5 -36.5t-103.5 -18.5t-130 -4q-78 0 -131 4t-103.5 18.5t-81.5 36.5t-59.5 63t-43 93.5t-26 132.5t-15 175t-3.5 226zM285 1901l125 188l424 -354l-144 -174zM326 737q0 -96 1.5 -164t7.5 -125.5t12.5 -94t21 -65t29.5 -42.5t41 -23.5t51.5 -11.5t66.5 -2q40 0 65.5 2 t51.5 11t40.5 23.5t29 42.5t21 64.5t12.5 94t7.5 126t1.5 164.5q0 128 -3 209t-13.5 143.5t-24 94t-43 50.5t-60.5 23.5t-85 4.5q-41 0 -66.5 -2t-51.5 -11.5t-41 -23.5t-29.5 -42.5t-21 -64.5t-12.5 -93t-7.5 -125t-1.5 -163z" />
<glyph unicode="&#xd3;" horiz-adv-x="1112" d="M94 739q0 130 3.5 224t15 173.5t26 131.5t43 92.5t59.5 62.5t81.5 36t103.5 18t131 4q62 0 106.5 -2.5t88.5 -10.5t74 -20.5t58.5 -35.5t46.5 -51.5t34.5 -72t25.5 -94.5t15.5 -121.5t9 -150.5t2.5 -183q0 -131 -3.5 -226t-15 -175t-26 -132.5t-42.5 -93.5t-59 -63 t-81.5 -36.5t-103.5 -18.5t-130 -4q-78 0 -131 4t-103.5 18.5t-81.5 36.5t-59.5 63t-43 93.5t-26 132.5t-15 175t-3.5 226zM281 1735l424 354l124 -188l-405 -340zM326 737q0 -96 1.5 -164t7.5 -125.5t12.5 -94t21 -65t29.5 -42.5t41 -23.5t51.5 -11.5t66.5 -2q40 0 65.5 2 t51.5 11t40.5 23.5t29 42.5t21 64.5t12.5 94t7.5 126t1.5 164.5q0 128 -3 209t-13.5 143.5t-24 94t-43 50.5t-60.5 23.5t-85 4.5q-41 0 -66.5 -2t-51.5 -11.5t-41 -23.5t-29.5 -42.5t-21 -64.5t-12.5 -93t-7.5 -125t-1.5 -163z" />
<glyph unicode="&#xd4;" horiz-adv-x="1112" d="M94 739q0 130 3.5 224t15 173.5t26 131.5t43 92.5t59.5 62.5t81.5 36t103.5 18t131 4q62 0 106.5 -2.5t88.5 -10.5t74 -20.5t58.5 -35.5t46.5 -51.5t34.5 -72t25.5 -94.5t15.5 -121.5t9 -150.5t2.5 -183q0 -131 -3.5 -226t-15 -175t-26 -132.5t-42.5 -93.5t-59 -63 t-81.5 -36.5t-103.5 -18.5t-130 -4q-78 0 -131 4t-103.5 18.5t-81.5 36.5t-59.5 63t-43 93.5t-26 132.5t-15 175t-3.5 226zM154 1591l239 367h328l240 -367l-261 23l-120 176h-45l-121 -176zM326 737q0 -96 1.5 -164t7.5 -125.5t12.5 -94t21 -65t29.5 -42.5t41 -23.5 t51.5 -11.5t66.5 -2q40 0 65.5 2t51.5 11t40.5 23.5t29 42.5t21 64.5t12.5 94t7.5 126t1.5 164.5q0 128 -3 209t-13.5 143.5t-24 94t-43 50.5t-60.5 23.5t-85 4.5q-41 0 -66.5 -2t-51.5 -11.5t-41 -23.5t-29.5 -42.5t-21 -64.5t-12.5 -93t-7.5 -125t-1.5 -163z" />
<glyph unicode="&#xd5;" horiz-adv-x="1112" d="M94 739q0 130 3.5 224t15 173.5t26 131.5t43 92.5t59.5 62.5t81.5 36t103.5 18t131 4q62 0 106.5 -2.5t88.5 -10.5t74 -20.5t58.5 -35.5t46.5 -51.5t34.5 -72t25.5 -94.5t15.5 -121.5t9 -150.5t2.5 -183q0 -131 -3.5 -226t-15 -175t-26 -132.5t-42.5 -93.5t-59 -63 t-81.5 -36.5t-103.5 -18.5t-130 -4q-78 0 -131 4t-103.5 18.5t-81.5 36.5t-59.5 63t-43 93.5t-26 132.5t-15 175t-3.5 226zM113 1786l151 145q32 -39 80.5 -53t90 -9t81.5 21q37 15 59.5 22.5t60 16.5t65 9t66.5 -6t73.5 -23t76 -47t82.5 -74l-155 -143q-34 35 -65.5 52 t-67.5 15.5t-59.5 -7.5t-69.5 -22q-39 -13 -60.5 -19.5t-61 -14.5t-66.5 -8t-66 6t-71 22.5t-70 45.5t-74 71zM326 737q0 -96 1.5 -164t7.5 -125.5t12.5 -94t21 -65t29.5 -42.5t41 -23.5t51.5 -11.5t66.5 -2q40 0 65.5 2t51.5 11t40.5 23.5t29 42.5t21 64.5t12.5 94t7.5 126 t1.5 164.5q0 128 -3 209t-13.5 143.5t-24 94t-43 50.5t-60.5 23.5t-85 4.5q-41 0 -66.5 -2t-51.5 -11.5t-41 -23.5t-29.5 -42.5t-21 -64.5t-12.5 -93t-7.5 -125t-1.5 -163z" />
<glyph unicode="&#xd6;" horiz-adv-x="1112" d="M94 739q0 130 3.5 224t15 173.5t26 131.5t43 92.5t59.5 62.5t81.5 36t103.5 18t131 4q62 0 106.5 -2.5t88.5 -10.5t74 -20.5t58.5 -35.5t46.5 -51.5t34.5 -72t25.5 -94.5t15.5 -121.5t9 -150.5t2.5 -183q0 -131 -3.5 -226t-15 -175t-26 -132.5t-42.5 -93.5t-59 -63 t-81.5 -36.5t-103.5 -18.5t-130 -4q-78 0 -131 4t-103.5 18.5t-81.5 36.5t-59.5 63t-43 93.5t-26 132.5t-15 175t-3.5 226zM293 1624v193h180v-193h-180zM326 737q0 -96 1.5 -164t7.5 -125.5t12.5 -94t21 -65t29.5 -42.5t41 -23.5t51.5 -11.5t66.5 -2q40 0 65.5 2t51.5 11 t40.5 23.5t29 42.5t21 64.5t12.5 94t7.5 126t1.5 164.5q0 128 -3 209t-13.5 143.5t-24 94t-43 50.5t-60.5 23.5t-85 4.5q-41 0 -66.5 -2t-51.5 -11.5t-41 -23.5t-29.5 -42.5t-21 -64.5t-12.5 -93t-7.5 -125t-1.5 -163zM643 1624v193h180v-193h-180z" />
<glyph unicode="&#xd8;" horiz-adv-x="1112" d="M74 -12l88 157q-37 80 -52.5 220t-15.5 374q0 130 3.5 224t15 173.5t26 131.5t43 92.5t59.5 62.5t81.5 36t103.5 18t131 4q120 0 195.5 -13.5t126.5 -50.5l55 101l133 -78l-94 -170q45 -143 45 -531q0 -131 -3.5 -226t-15 -175t-26 -132.5t-42.5 -93.5t-59 -63 t-81.5 -36.5t-103.5 -18.5t-130 -4q-199 0 -283 41l-65 -119zM326 737q0 -190 8 -286l411 731q-23 50 -64.5 65t-123.5 15q-41 0 -66.5 -2t-51.5 -11.5t-41 -23.5t-29.5 -42.5t-21 -64.5t-12.5 -93t-7.5 -125t-1.5 -163zM397 248q25 -23 62 -31t98 -8q40 0 65.5 2t51.5 11 t40.5 23.5t29 42.5t21 64.5t12.5 94t7.5 126t1.5 164.5q0 142 -2 197z" />
<glyph unicode="&#xd9;" horiz-adv-x="1132" d="M123 739v731l231 -24v-707q0 -118 2 -188t9.5 -137.5t20.5 -100.5t37.5 -60t58 -35.5t83.5 -8.5q38 0 66 4.5t51 19t38 31.5t26 51t17 68.5t9.5 94t4.5 116t1 145.5v705l232 26v-731q0 -162 -8.5 -277t-31 -200t-53.5 -136.5t-83.5 -82.5t-114.5 -42t-152 -11t-152 11 t-114.5 42t-84 82.5t-54 136.5t-31 200t-8.5 277zM295 1901l123 188l426 -354l-144 -174z" />
<glyph unicode="&#xda;" horiz-adv-x="1132" d="M123 739v731l231 -24v-707q0 -118 2 -188t9.5 -137.5t20.5 -100.5t37.5 -60t58 -35.5t83.5 -8.5q38 0 66 4.5t51 19t38 31.5t26 51t17 68.5t9.5 94t4.5 116t1 145.5v705l232 26v-731q0 -162 -8.5 -277t-31 -200t-53.5 -136.5t-83.5 -82.5t-114.5 -42t-152 -11t-152 11 t-114.5 42t-84 82.5t-54 136.5t-31 200t-8.5 277zM291 1735l424 354l125 -188l-406 -340z" />
<glyph unicode="&#xdb;" horiz-adv-x="1132" d="M123 739v731l231 -24v-707q0 -118 2 -188t9.5 -137.5t20.5 -100.5t37.5 -60t58 -35.5t83.5 -8.5q38 0 66 4.5t51 19t38 31.5t26 51t17 68.5t9.5 94t4.5 116t1 145.5v705l232 26v-731q0 -162 -8.5 -277t-31 -200t-53.5 -136.5t-83.5 -82.5t-114.5 -42t-152 -11t-152 11 t-114.5 42t-84 82.5t-54 136.5t-31 200t-8.5 277zM162 1591l239 367h330l240 -367l-260 23l-121 176h-47l-121 -176z" />
<glyph unicode="&#xdc;" horiz-adv-x="1132" d="M123 739v731l231 -24v-707q0 -118 2 -188t9.5 -137.5t20.5 -100.5t37.5 -60t58 -35.5t83.5 -8.5q38 0 66 4.5t51 19t38 31.5t26 51t17 68.5t9.5 94t4.5 116t1 145.5v705l232 26v-731q0 -162 -8.5 -277t-31 -200t-53.5 -136.5t-83.5 -82.5t-114.5 -42t-152 -11t-152 11 t-114.5 42t-84 82.5t-54 136.5t-31 200t-8.5 277zM303 1624v193h178v-193h-178zM651 1624v193h180v-193h-180z" />
<glyph unicode="&#xdd;" horiz-adv-x="1042" d="M53 1470l238 -22l231 -588l228 588l239 22l-350 -892v-578h-229v575zM246 1735l424 354l125 -188l-406 -340z" />
<glyph unicode="&#xde;" horiz-adv-x="1038" d="M123 0v1470h231v-288h133q59 0 97.5 -1t85.5 -3.5t76 -8t63 -15t54.5 -23t42.5 -33.5t34 -46t22.5 -59.5t14.5 -75.5t4 -94l-6 -309h-2l2 -6l-182 -203h-439v-305h-231zM354 524h338l49 58l2 221q0 91 -41 126.5t-149 35.5h-199v-441z" />
<glyph unicode="&#xe0;" d="M74 104q0 201 13 264.5t63 106.5q54 46 150.5 78t205.5 43v94q0 44 -32.5 64t-77.5 17t-95 -21v-93h-180v205q51 36 127 61.5t158.5 30.5t154 -10.5t118 -66.5t46.5 -132v-745h-176l-43 43q-147 -80 -326 -45zM162 1391l125 188l424 -354l-144 -174zM293 207l29 -27 q94 8 184 70v196q-131 -19 -174 -57q-25 -19 -32 -54.5t-7 -127.5z" />
<glyph unicode="&#xe1;" d="M74 104q0 201 13 264.5t63 106.5q54 46 150.5 78t205.5 43v94q0 44 -32.5 64t-77.5 17t-95 -21v-93h-180v205q51 36 127 61.5t158.5 30.5t154 -10.5t118 -66.5t46.5 -132v-745h-176l-43 43q-147 -80 -326 -45zM158 1225l424 354l125 -188l-406 -340zM293 207l29 -27 q94 8 184 70v196q-131 -19 -174 -57q-25 -19 -32 -54.5t-7 -127.5z" />
<glyph unicode="&#xe2;" d="M29 1081l239 367h330l240 -367l-260 23l-121 176h-47l-121 -176zM74 104q0 201 13 264.5t63 106.5q54 46 150.5 78t205.5 43v94q0 44 -32.5 64t-77.5 17t-95 -21v-93h-180v205q51 36 127 61.5t158.5 30.5t154 -10.5t118 -66.5t46.5 -132v-745h-176l-43 43 q-147 -80 -326 -45zM293 207l29 -27q94 8 184 70v196q-131 -19 -174 -57q-25 -19 -32 -54.5t-7 -127.5z" />
<glyph unicode="&#xe3;" d="M-10 1276l151 145q32 -39 80.5 -53t89.5 -9t80 21q38 15 60 22.5t60.5 16.5t66 9t66.5 -6t73.5 -23t76 -47t83.5 -74l-158 -143q-27 29 -54.5 44.5t-48.5 21.5t-52 1.5t-49.5 -10t-55.5 -18.5q-40 -13 -60.5 -19.5t-61.5 -15t-67 -8t-65.5 6t-71 22t-69.5 45.5t-74 71z M74 104q0 201 13 264.5t63 106.5q54 46 150.5 78t205.5 43v94q0 44 -32.5 64t-77.5 17t-95 -21v-93h-180v205q51 36 127 61.5t158.5 30.5t154 -10.5t118 -66.5t46.5 -132v-745h-176l-43 43q-147 -80 -326 -45zM293 207l29 -27q94 8 184 70v196q-131 -19 -174 -57 q-25 -19 -32 -54.5t-7 -127.5z" />
<glyph unicode="&#xe4;" d="M74 104q0 201 13 264.5t63 106.5q54 46 150.5 78t205.5 43v94q0 44 -32.5 64t-77.5 17t-95 -21v-93h-180v205q51 36 127 61.5t158.5 30.5t154 -10.5t118 -66.5t46.5 -132v-745h-176l-43 43q-147 -80 -326 -45zM170 1114v193h180v-193h-180zM293 207l29 -27q94 8 184 70 v196q-131 -19 -174 -57q-25 -19 -32 -54.5t-7 -127.5zM520 1114v193h178v-193h-178z" />
<glyph unicode="&#xe5;" d="M74 104q0 201 13 264.5t63 106.5q54 46 150.5 78t205.5 43v94q0 44 -32.5 64t-77.5 17t-95 -21v-93h-180v205q51 36 127 61.5t158.5 30.5t154 -10.5t118 -66.5t46.5 -132v-745h-176l-43 43q-147 -80 -326 -45zM229 1255q0 123 45 171.5t162 48.5q113 0 156 -48t43 -172 q0 -123 -42.5 -169t-156.5 -46q-117 0 -162 46t-45 169zM293 207l29 -27q94 8 184 70v196q-131 -19 -174 -57q-25 -19 -32 -54.5t-7 -127.5zM369 1255q0 -47 13.5 -64t51.5 -17q37 0 51.5 17t14.5 64t-14.5 65.5t-51.5 18.5q-38 0 -51.5 -18t-13.5 -66z" />
<glyph unicode="&#xe6;" horiz-adv-x="1218" d="M74 104q0 201 13 264.5t63 106.5q55 45 150.5 77.5t201.5 43.5v123q-14 44 -76.5 50.5t-124.5 -19.5v-93h-180v205q79 56 165 78.5t159.5 13.5t134.5 -43l30 31q94 14 252 14q52 0 101 -3.5t71 -6.5l23 -4l104 -108v-99q0 -141 -12.5 -186t-65.5 -86q-108 -81 -358 -96 v-115q15 -49 81.5 -56.5t140.5 15.5t130 59l105 -168q-89 -62 -218.5 -94t-249.5 -19t-175 74q-156 -103 -359 -65zM293 207l29 -27q93 8 180 68v196q-124 -15 -170 -55q-25 -19 -32 -54.5t-7 -127.5zM723 727q0 -6 1 -18.5t1 -18.5v-172q130 12 178 51q31 23 38 58t3 98 l-24 29q-20 10 -107 10q-33 0 -63 -6z" />
<glyph unicode="&#xe7;" horiz-adv-x="743" d="M84 162v672l109 108q48 14 253 14q57 0 110 -3.5t77 -6.5l24 -4v-311h-161v112q-16 2 -50 2q-46 0 -108 -4l-33 -30v-432q0 -47 37 -66t86.5 -12.5t96 22.5t69.5 35l115 -176q-57 -42 -152.5 -68t-191.5 -26l-11 -33q97 -22 150 -81.5t53 -145.5l-119 -142 q-40 -8 -151 -8q-138 0 -148 6l37 137q20 -4 109 -4h55l49 58q-42 62 -184 59l43 164q-75 16 -119.5 57t-44.5 107z" />
<glyph unicode="&#xe8;" horiz-adv-x="800" d="M84 162v672l109 108q93 14 251 14q52 0 101 -3.5t71 -6.5l23 -4l104 -108v-99q0 -142 -12 -187t-65 -85q-108 -81 -361 -96v-86q0 -51 39 -72.5t95 -15t115.5 27t104.5 49.5l105 -168q-80 -56 -197.5 -87t-224 -30t-182.5 46.5t-76 130.5zM143 1389l125 188l424 -356 l-143 -172zM305 518q132 12 180 51q31 23 38 58t3 98l-24 29q-20 10 -107 10q-33 0 -63 -6l-27 -29v-211z" />
<glyph unicode="&#xe9;" horiz-adv-x="800" d="M84 162v672l109 108q93 14 251 14q52 0 101 -3.5t71 -6.5l23 -4l104 -108v-99q0 -142 -12 -187t-65 -85q-108 -81 -361 -96v-86q0 -51 39 -72.5t95 -15t115.5 27t104.5 49.5l105 -168q-80 -56 -197.5 -87t-224 -30t-182.5 46.5t-76 130.5zM139 1221l424 356l125 -188 l-405 -340zM305 518q132 12 180 51q31 23 38 58t3 98l-24 29q-20 10 -107 10q-33 0 -63 -6l-27 -29v-211z" />
<glyph unicode="&#xea;" horiz-adv-x="800" d="M10 1077l240 369h330l239 -369l-260 25l-121 174h-47l-121 -174zM84 162v672l109 108q93 14 251 14q52 0 101 -3.5t71 -6.5l23 -4l104 -108v-99q0 -142 -12 -187t-65 -85q-108 -81 -361 -96v-86q0 -51 39 -72.5t95 -15t115.5 27t104.5 49.5l105 -168q-80 -56 -197.5 -87 t-224 -30t-182.5 46.5t-76 130.5zM305 518q132 12 180 51q31 23 38 58t3 98l-24 29q-20 10 -107 10q-33 0 -63 -6l-27 -29v-211z" />
<glyph unicode="&#xeb;" horiz-adv-x="800" d="M84 162v672l109 108q93 14 251 14q52 0 101 -3.5t71 -6.5l23 -4l104 -108v-99q0 -142 -12 -187t-65 -85q-108 -81 -361 -96v-86q0 -51 39 -72.5t95 -15t115.5 27t104.5 49.5l105 -168q-80 -56 -197.5 -87t-224 -30t-182.5 46.5t-76 130.5zM152 1110v195h180v-195h-180z M305 518q132 12 180 51q31 23 38 58t3 98l-24 29q-20 10 -107 10q-33 0 -63 -6l-27 -29v-211zM502 1110v195h178v-195h-178z" />
<glyph unicode="&#xec;" horiz-adv-x="444" d="M-47 1389l125 188l424 -356l-144 -172zM113 0v952l219 -26v-926h-219z" />
<glyph unicode="&#xed;" horiz-adv-x="444" d="M-51 1221l426 356l123 -188l-406 -340zM113 0v952l219 -26v-926h-219z" />
<glyph unicode="&#xee;" horiz-adv-x="444" d="M-178 1077l239 369h328l240 -369l-260 25l-121 174h-45l-121 -174zM113 0v952l219 -26v-926h-219z" />
<glyph unicode="&#xef;" horiz-adv-x="444" d="M-39 1110v195h180v-195h-180zM113 0v952l219 -26v-926h-219zM311 1110v195h181v-195h-181z" />
<glyph unicode="&#xf1;" horiz-adv-x="909" d="M16 1235l152 145q32 -39 80.5 -53t89.5 -9t80 21q38 15 60 22.5t60 16.5t65.5 9t66.5 -6t73.5 -23t76 -47t83.5 -74l-158 -143q-27 29 -55 44.5t-49 21.5t-52 1.5t-49 -10t-55 -18.5q-40 -13 -61 -19.5t-61.5 -15t-67 -8t-66 6t-71 22t-69.5 45.5t-73 71zM113 0v956 l227 -28v-88q191 114 344 114l115 -118v-836h-228v688l-30 31q-102 -25 -201 -64v-655h-227z" />
<glyph unicode="&#xf2;" d="M84 471q0 110 4.5 181.5t19.5 129.5t37 89t62.5 51.5t89.5 27t125 6.5q74 0 122.5 -6.5t88 -27t61 -51.5t36.5 -89t19.5 -129.5t4.5 -181.5q0 -109 -4.5 -180.5t-19.5 -129t-36.5 -88.5t-61 -51.5t-88 -27t-122.5 -6.5q-76 0 -125 6.5t-89.5 27t-62.5 51.5t-37 88.5 t-19.5 129t-4.5 180.5zM150 1389l124 188l424 -356l-143 -172zM305 471q0 -80 2.5 -123.5t8 -77.5t19.5 -47t32.5 -18.5t52.5 -5.5q28 0 44.5 2.5t30.5 13.5t21 27t12 49.5t6 73.5t1 106q0 80 -2.5 124.5t-8 78t-20 47t-33 19t-51.5 5.5q-34 0 -52.5 -5.5t-32.5 -18.5 t-19.5 -47.5t-8 -78t-2.5 -124.5z" />
<glyph unicode="&#xf3;" d="M84 471q0 110 4.5 181.5t19.5 129.5t37 89t62.5 51.5t89.5 27t125 6.5q74 0 122.5 -6.5t88 -27t61 -51.5t36.5 -89t19.5 -129.5t4.5 -181.5q0 -109 -4.5 -180.5t-19.5 -129t-36.5 -88.5t-61 -51.5t-88 -27t-122.5 -6.5q-76 0 -125 6.5t-89.5 27t-62.5 51.5t-37 88.5 t-19.5 129t-4.5 180.5zM145 1221l424 356l125 -188l-405 -340zM305 471q0 -80 2.5 -123.5t8 -77.5t19.5 -47t32.5 -18.5t52.5 -5.5q28 0 44.5 2.5t30.5 13.5t21 27t12 49.5t6 73.5t1 106q0 80 -2.5 124.5t-8 78t-20 47t-33 19t-51.5 5.5q-34 0 -52.5 -5.5t-32.5 -18.5 t-19.5 -47.5t-8 -78t-2.5 -124.5z" />
<glyph unicode="&#xf4;" d="M18 1077l240 369h328l239 -369l-260 25l-121 174h-45l-120 -174zM84 471q0 110 4.5 181.5t19.5 129.5t37 89t62.5 51.5t89.5 27t125 6.5q74 0 122.5 -6.5t88 -27t61 -51.5t36.5 -89t19.5 -129.5t4.5 -181.5q0 -109 -4.5 -180.5t-19.5 -129t-36.5 -88.5t-61 -51.5t-88 -27 t-122.5 -6.5q-76 0 -125 6.5t-89.5 27t-62.5 51.5t-37 88.5t-19.5 129t-4.5 180.5zM305 471q0 -80 2.5 -123.5t8 -77.5t19.5 -47t32.5 -18.5t52.5 -5.5q28 0 44.5 2.5t30.5 13.5t21 27t12 49.5t6 73.5t1 106q0 80 -2.5 124.5t-8 78t-20 47t-33 19t-51.5 5.5 q-34 0 -52.5 -5.5t-32.5 -18.5t-19.5 -47.5t-8 -78t-2.5 -124.5z" />
<glyph unicode="&#xf5;" d="M-23 1274l154 145q31 -40 79.5 -54.5t90 -9.5t80.5 21q36 15 59 23t60.5 17.5t65.5 9.5t66.5 -6t73 -23t76 -47t82.5 -74l-155 -143q-27 28 -55.5 43.5t-49.5 21t-53 1t-49 -9.5t-56 -18q-53 -18 -85.5 -27t-87 -14t-97 6.5t-96.5 45.5t-103 92zM84 471q0 110 4.5 181.5 t19.5 129.5t37 89t62.5 51.5t89.5 27t125 6.5q74 0 122.5 -6.5t88 -27t61 -51.5t36.5 -89t19.5 -129.5t4.5 -181.5q0 -109 -4.5 -180.5t-19.5 -129t-36.5 -88.5t-61 -51.5t-88 -27t-122.5 -6.5q-76 0 -125 6.5t-89.5 27t-62.5 51.5t-37 88.5t-19.5 129t-4.5 180.5zM305 471 q0 -80 2.5 -123.5t8 -77.5t19.5 -47t32.5 -18.5t52.5 -5.5q28 0 44.5 2.5t30.5 13.5t21 27t12 49.5t6 73.5t1 106q0 80 -2.5 124.5t-8 78t-20 47t-33 19t-51.5 5.5q-34 0 -52.5 -5.5t-32.5 -18.5t-19.5 -47.5t-8 -78t-2.5 -124.5z" />
<glyph unicode="&#xf6;" d="M84 471q0 110 4.5 181.5t19.5 129.5t37 89t62.5 51.5t89.5 27t125 6.5q74 0 122.5 -6.5t88 -27t61 -51.5t36.5 -89t19.5 -129.5t4.5 -181.5q0 -109 -4.5 -180.5t-19.5 -129t-36.5 -88.5t-61 -51.5t-88 -27t-122.5 -6.5q-76 0 -125 6.5t-89.5 27t-62.5 51.5t-37 88.5 t-19.5 129t-4.5 180.5zM158 1110v195h180v-195h-180zM305 471q0 -80 2.5 -123.5t8 -77.5t19.5 -47t32.5 -18.5t52.5 -5.5q28 0 44.5 2.5t30.5 13.5t21 27t12 49.5t6 73.5t1 106q0 80 -2.5 124.5t-8 78t-20 47t-33 19t-51.5 5.5q-34 0 -52.5 -5.5t-32.5 -18.5t-19.5 -47.5 t-8 -78t-2.5 -124.5zM508 1110v195h180v-195h-180z" />
<glyph unicode="&#xf7;" horiz-adv-x="1265" d="M164 621v184h938v-184h-938zM535 264v211h198v-211h-198zM535 950v211h198v-211h-198z" />
<glyph unicode="&#xf8;" horiz-adv-x="847" d="M84 471q0 110 4.5 181.5t19.5 129.5t37 89t62.5 51.5t89.5 27t125 6.5q148 0 211 -32l39 65l94 -57l-55 -94q43 -96 43 -367q0 -109 -4.5 -180.5t-19.5 -129t-36.5 -88.5t-61 -51.5t-88 -27t-122.5 -6.5q-127 0 -186 20l-43 -74l-95 58l47 82q-35 50 -48 141.5t-13 255.5 zM305 471q0 -84 2 -117l205 357q-11 20 -32 27t-60 7q-34 0 -52.5 -5.5t-32.5 -18.5t-19.5 -47.5t-8 -78t-2.5 -124.5zM350 211q19 -12 70 -12q28 0 44.5 2.5t30.5 13.5t21 27t12 49.5t6 73.5t1 106v57z" />
<glyph unicode="&#xf9;" horiz-adv-x="876" d="M102 113v829l220 -24v-678l28 -35q125 15 205 39v671l219 27v-942h-176l-31 31q-150 -43 -352 -43zM162 1389l125 188l426 -356l-144 -172z" />
<glyph unicode="&#xfa;" horiz-adv-x="876" d="M102 113v829l220 -24v-678l28 -35q125 15 205 39v671l219 27v-942h-176l-31 31q-150 -43 -352 -43zM158 1221l426 356l125 -188l-408 -340z" />
<glyph unicode="&#xfb;" horiz-adv-x="876" d="M31 1077l239 369h328l240 -369l-258 25l-121 174h-47l-121 -174zM102 113v829l220 -24v-678l28 -35q125 15 205 39v671l219 27v-942h-176l-31 31q-150 -43 -352 -43z" />
<glyph unicode="&#xfc;" horiz-adv-x="876" d="M102 113v829l220 -24v-678l28 -35q125 15 205 39v671l219 27v-942h-176l-31 31q-150 -43 -352 -43zM170 1110v195h180v-195h-180zM520 1110v195h180v-195h-180z" />
<glyph unicode="&#xfd;" horiz-adv-x="890" d="M6 952l230 -24l176 -547h47l178 545l248 26l-461 -1405l-205 101l135 413h-69zM168 1221l426 356l125 -188l-408 -340z" />
<glyph unicode="&#xff;" horiz-adv-x="890" d="M6 952l230 -24l176 -547h47l178 545l248 26l-461 -1405l-205 101l135 413h-69zM180 1110v195h180v-195h-180zM530 1110v195h181v-195h-181z" />
<glyph unicode="&#x152;" horiz-adv-x="1619" d="M94 739q0 130 3.5 224t15 173.5t26 131.5t43 92.5t59.5 62.5t81.5 36t103.5 18t131 4q133 0 231 -66v55h719l-43 -219h-444v-426h375v-217h-375v-389h491l48 -219h-771v55q-97 -65 -231 -65q-78 0 -131 4t-103.5 18.5t-81.5 36.5t-59.5 63t-43 93.5t-26 132.5t-15 175 t-3.5 226zM326 737q0 -96 1.5 -164t7.5 -125.5t12.5 -94t21 -65t29.5 -42.5t41 -23.5t51.5 -11.5t66.5 -2q89 0 137 45.5t70 158.5t22 324q0 210 -21.5 322t-69.5 157.5t-138 45.5q-41 0 -66.5 -2t-51.5 -11.5t-41 -23.5t-29.5 -42.5t-21 -64.5t-12.5 -93t-7.5 -125 t-1.5 -163z" />
<glyph unicode="&#x153;" horiz-adv-x="1247" d="M84 471q0 110 4.5 181.5t19.5 129.5t37 89t62.5 51.5t89.5 27t125 6.5q109 0 182 -49l35 35q96 14 254 14q51 0 99 -3.5t70 -6.5l23 -4l105 -108v-99q0 -141 -12.5 -186t-65.5 -86q-106 -80 -360 -98v-84q0 -51 39 -72.5t95 -15t115.5 27t104.5 49.5l104 -168 q-125 -88 -315 -110.5t-295 43.5q-70 -47 -178 -47q-76 0 -125 6.5t-89.5 27t-62.5 51.5t-37 88.5t-19.5 129t-4.5 180.5zM305 471q0 -80 2.5 -123.5t8 -77.5t19.5 -47t32.5 -18.5t52.5 -5.5q64 0 86 26.5t26 124.5v244q-4 98 -26 124.5t-86 26.5q-34 0 -52.5 -5.5 t-32.5 -18.5t-19.5 -47.5t-8 -78t-2.5 -124.5zM752 547q0 -19 2 -29q129 11 180 51q29 23 36 58t3 98l-25 29q-20 10 -104 10q-32 0 -66 -6l-26 -31v-180z" />
<glyph unicode="&#x178;" horiz-adv-x="1042" d="M53 1470l238 -22l231 -588l228 588l239 22l-350 -892v-578h-229v575zM258 1624v193h180v-193h-180zM608 1624v193h180v-193h-180z" />
<glyph unicode="&#x2c6;" horiz-adv-x="970" d="M82 1591l240 369h327l240 -369l-260 25l-121 174h-45l-121 -174z" />
<glyph unicode="&#x2dc;" horiz-adv-x="1050" d="M82 1788l151 145q32 -40 80.5 -54.5t89.5 -9.5t80 21q37 15 60 23t60.5 17.5t65.5 9.5t67 -6t73.5 -23t76 -47t83.5 -74l-158 -145q-22 24 -43.5 39.5t-45 21.5t-40 8t-43.5 -3.5t-41.5 -9.5t-46.5 -15q-38 -13 -60.5 -20t-61.5 -15t-66.5 -8t-66 6t-71 22.5t-70 45.5 t-73.5 71z" />
<glyph unicode="&#x2000;" horiz-adv-x="1044" />
<glyph unicode="&#x2001;" horiz-adv-x="2089" />
<glyph unicode="&#x2002;" horiz-adv-x="1044" />
<glyph unicode="&#x2003;" horiz-adv-x="2089" />
<glyph unicode="&#x2004;" horiz-adv-x="696" />
<glyph unicode="&#x2005;" horiz-adv-x="522" />
<glyph unicode="&#x2006;" horiz-adv-x="348" />
<glyph unicode="&#x2007;" horiz-adv-x="348" />
<glyph unicode="&#x2008;" horiz-adv-x="261" />
<glyph unicode="&#x2009;" horiz-adv-x="417" />
<glyph unicode="&#x200a;" horiz-adv-x="116" />
<glyph unicode="&#x2010;" horiz-adv-x="815" d="M123 416v184h569v-184h-569z" />
<glyph unicode="&#x2011;" horiz-adv-x="815" d="M123 416v184h569v-184h-569z" />
<glyph unicode="&#x2012;" horiz-adv-x="815" d="M123 416v184h569v-184h-569z" />
<glyph unicode="&#x2013;" horiz-adv-x="1306" d="M123 416v184h1061v-184h-1061z" />
<glyph unicode="&#x2014;" horiz-adv-x="1572" d="M123 416v184h1327v-184h-1327z" />
<glyph unicode="&#x2018;" horiz-adv-x="454" d="M82 1157v111l125 395l166 -21l-109 -374v-111h-182z" />
<glyph unicode="&#x2019;" horiz-adv-x="454" d="M82 1178l108 374v111h183v-111l-125 -395z" />
<glyph unicode="&#x201a;" horiz-adv-x="1228" d="M106 -305l93 375v108h204v-108l-135 -396z" />
<glyph unicode="&#x201c;" horiz-adv-x="761" d="M82 1157v111l125 395l166 -21l-109 -374v-111h-182zM403 1157v111l115 395l162 -21l-92 -374v-111h-185z" />
<glyph unicode="&#x201d;" horiz-adv-x="761" d="M82 1178l92 374v109h184v-109l-114 -395zM389 1178l109 374v111h182v-111l-125 -395z" />
<glyph unicode="&#x201e;" horiz-adv-x="1228" d="M106 -305l93 375v108h204v-108l-135 -396z" />
<glyph unicode="&#x2022;" horiz-adv-x="612" d="M82 334v475h448v-475h-448z" />
<glyph unicode="&#x2026;" horiz-adv-x="1228" d="M80 0v246h244v-246h-244z" />
<glyph unicode="&#x202f;" horiz-adv-x="417" />
<glyph unicode="&#x2039;" horiz-adv-x="870" d="M123 436v148l625 497l-25 -250l-391 -303v-36l391 -302l25 -251z" />
<glyph unicode="&#x203a;" horiz-adv-x="870" d="M123 -61l24 251l392 302v36l-392 303l-24 250l625 -497v-148z" />
<glyph unicode="&#x205f;" horiz-adv-x="522" />
<glyph unicode="&#x20ac;" horiz-adv-x="1425" d="M205 492v151h145v139h-145v152h145v49q0 107 23 192.5t63.5 140t94.5 92.5t115.5 53.5t127.5 18.5t131 -7.5t124.5 -28.5t108.5 -42t83 -50l-129 -176q-14 16 -48 34.5t-81 32.5t-99 21.5t-102.5 -4t-91 -39.5t-65.5 -89t-25 -149v-49h430v-152h-430v-139h430v-151h-430 v-9q0 -88 25 -149t65.5 -89t91 -39t102.5 -4t99 21.5t81 33t48 34.5l129 -176q-45 -34 -112 -63.5t-149.5 -46.5t-166.5 -19t-164 25.5t-142 81t-99.5 153.5t-37.5 237v9h-145z" />
<glyph unicode="&#x25fc;" horiz-adv-x="952" d="M0 0v952h952v-952h-952z" />
</font>
</defs>
</svg>
