<?xml version="1.0" standalone="no"?>
<!DOCTYPE svg PUBLIC "-//W3C//DTD SVG 1.1//EN" "http://www.w3.org/Graphics/SVG/1.1/DTD/svg11.dtd" >
<svg xmlns="http://www.w3.org/2000/svg" xmlns:xlink="http://www.w3.org/1999/xlink" version="1.1">
<metadata></metadata>
<defs>
<font id="beeposemibold" horiz-adv-x="1069" >
<font-face units-per-em="2048" ascent="1638" descent="-410" />
<missing-glyph horiz-adv-x="446" />
<glyph horiz-adv-x="0" />
<glyph horiz-adv-x="682" />
<glyph unicode=" "  horiz-adv-x="446" />
<glyph unicode="&#x09;" horiz-adv-x="446" />
<glyph unicode="&#xa0;" horiz-adv-x="446" />
<glyph unicode="!" horiz-adv-x="546" d="M178 0v195h191v-195h-191zM182 367v1103h183v-1103h-183z" />
<glyph unicode="&#x22;" horiz-adv-x="620" d="M82 1470v127l160 -18l-2 -109l-15 -327h-129zM379 1470v127l160 -20v-104l-15 -330h-131z" />
<glyph unicode="#" horiz-adv-x="1443" d="M123 324v184h268v328h-268v184h268v483l187 -20v-463h288v483l187 -20v-463h268v-184h-268v-328h268v-184h-268v-447h-187v447h-288v-447h-187v447h-268zM578 508h288v328h-288v-328z" />
<glyph unicode="$" horiz-adv-x="1034" d="M94 104v302h195v-189q85 -31 145 -39v500l-6 4q-80 40 -136 80t-103.5 94t-71 125t-23.5 160q0 162 94.5 246t245.5 94v211h137v-215q179 -22 322 -109h4v-297h-195v182q-68 25 -131 37v-463q6 -1 23 -10q87 -42 143 -78t106 -88.5t73.5 -121.5t23.5 -160q0 -94 -29 -166 t-81 -116t-116.5 -68t-142.5 -29v-209h-137v211q-188 21 -340 112zM289 1141q-1 -82 33.5 -136t111.5 -102v389q-68 -9 -106.5 -47t-38.5 -104zM571 178q80 13 127 60.5t47 130.5t-41.5 135.5t-132.5 103.5v-430z" />
<glyph unicode="%" horiz-adv-x="1413" d="M170 1159q0 98 9.5 157t35.5 96.5t67 51t109 13.5q134 0 178.5 -64t44.5 -254q0 -130 -19.5 -196.5t-65.5 -93.5t-138 -27q-91 0 -137 27t-65 93.5t-19 196.5zM238 0l763 1473h154l-764 -1473h-153zM305 1159q0 -113 17.5 -150.5t70.5 -37.5q55 0 73.5 37.5t18.5 150.5 t-19 151t-73 38q-53 0 -70.5 -37.5t-17.5 -151.5zM797 317q0 190 44.5 254t178.5 64t178.5 -64t44.5 -254q0 -192 -44.5 -255.5t-178.5 -63.5t-178.5 63.5t-44.5 255.5zM932 317q0 -114 17.5 -152t70.5 -38q55 0 73.5 38t18.5 152t-18.5 151.5t-73.5 37.5q-53 0 -70.5 -37.5 t-17.5 -151.5z" />
<glyph unicode="&#x26;" horiz-adv-x="1415" d="M178 348q0 68 2.5 108.5t14.5 81t29 64t53.5 51.5t80.5 50t117 53q1 0 2 1t2 1l-157 223l-7 141q0 79 6.5 133.5t24.5 96t43.5 65.5t70 39t97 20t131.5 5q76 0 127 -5t95.5 -20t70.5 -39.5t44.5 -65.5t26 -96.5t7.5 -134.5q0 -80 -6 -129t-22.5 -94t-52.5 -78.5 t-87.5 -66t-136.5 -72.5l223 -318q38 48 57 78v250h195v-301q-58 -97 -146 -178l148 -211h-217l-72 102q-101 -61 -209.5 -90t-206.5 -20.5t-176.5 47.5t-125 119t-46.5 190zM375 348q0 -96 70.5 -144t179 -36.5t215.5 78.5l-254 360q-57 -24 -84.5 -36t-56.5 -30.5 t-38.5 -31.5t-19 -38.5t-11 -51t-1.5 -70.5zM516 1020l133 -191q75 33 111.5 54.5t61 55t30.5 72t6 109.5q0 42 -4 68.5t-16.5 54.5t-41 41.5t-73.5 13.5h-70q-40 0 -67 -10.5t-40.5 -24t-20.5 -42t-8 -47t-1 -56.5v-98z" />
<glyph unicode="'" horiz-adv-x="321" d="M82 1470v127l158 -18v-109l-15 -327h-129z" />
<glyph unicode="(" horiz-adv-x="761" d="M102 739q0 267 21 461.5t63 328.5t110 214t156 114t207 33v-182q-93 1 -158 -45.5t-112 -157.5t-69.5 -300t-22.5 -468q0 -225 15 -391t43 -278.5t73 -180.5t101 -97t130 -28v-182q-119 -1 -207 33.5t-156 115t-110 215t-63 330.5t-21 465z" />
<glyph unicode=")" horiz-adv-x="761" d="M102 -238q93 -1 158 46t112 158t69 301t22 470q0 279 -22 468t-69 300t-112 157.5t-158 45.5v182q119 1 207 -33t156 -114t110 -214t63 -328.5t21 -461.5q0 -269 -21 -465t-63 -330.5t-110 -215t-156 -115t-207 -33.5v182z" />
<glyph unicode="*" horiz-adv-x="718" d="M82 1397l51 116l53 -14l121 -49l-6 133v70l129 -15v-55l-8 -131l121 49l65 21l29 -125l-53 -19l-127 -32l86 -103l41 -55l-113 -66l-33 43l-78 123l-73 -114l-39 -56l-98 86l30 45l82 97l-119 28z" />
<glyph unicode="+" horiz-adv-x="1234" d="M164 645v156h379v377h155v-377h373v-156h-373v-377h-155v377h-379z" />
<glyph unicode="," horiz-adv-x="466" d="M106 -299l93 367v106h178v-106l-131 -387z" />
<glyph unicode="-" horiz-adv-x="784" d="M123 430v156h539v-156h-539z" />
<glyph unicode="." horiz-adv-x="382" d="M86 0v215h213v-215h-213z" />
<glyph unicode="/" horiz-adv-x="983" d="M0 -471l772 2349l211 23l-782 -2372h-201z" />
<glyph unicode="0" horiz-adv-x="1085" d="M102 739q0 131 3.5 224t13.5 173t24 131.5t40.5 92.5t56 62.5t78.5 36t100 18.5t127 4q75 0 125.5 -4t99 -18.5t77.5 -36t55.5 -62.5t40 -92.5t24 -131.5t13.5 -173t3 -224q0 -132 -3 -226t-13.5 -175t-24 -132.5t-40 -93t-55.5 -63.5t-77.5 -36.5t-99 -18.5t-125.5 -4 q-76 0 -127 4t-100 18.5t-78.5 36.5t-56 63.5t-40.5 93t-24 132.5t-13.5 175t-3.5 226zM297 737q0 -101 1.5 -173t7.5 -133.5t13.5 -100.5t22.5 -69.5t31 -46.5t43.5 -26.5t55.5 -13t71 -2.5q58 0 91.5 5t64 26.5t45 55t25.5 101.5t14 154t3 223q0 102 -1.5 173t-7 133 t-12.5 99.5t-22 68.5t-30.5 46.5t-43 25.5t-55.5 12.5t-71 2.5t-71 -2.5t-55.5 -12.5t-43.5 -25.5t-31 -46t-22.5 -69t-13.5 -99.5t-7.5 -133t-1.5 -173z" />
<glyph unicode="1" horiz-adv-x="757" d="M63 1243l216 227h344v-1470h-197v1288h-90l-135 -147z" />
<glyph unicode="2" horiz-adv-x="995" d="M72 0q0 84 4.5 142.5t20 119t36.5 106.5t64.5 109.5t94 124.5t132.5 154q30 34 73.5 80t67.5 71.5t53 63t43.5 67t25.5 69t11 83.5v43l-59 63q-14 9 -145 9q-47 0 -78 -2.5t-38 -4.5l-7 -2l-107 -129l-178 109l164 197q66 12 242 12q89 0 155 -3t87 -6l22 -3l135 -148 l2 -137q0 -54 -17 -111.5t-40 -101.5t-65 -100t-69.5 -87.5t-77.5 -85.5t-67 -73q-81 -92 -120 -139t-78 -103.5t-56.5 -102t-26.5 -102.5h422v135h197v-317h-823z" />
<glyph unicode="3" horiz-adv-x="1007" d="M70 197l178 106l106 -129q17 -6 144 -6l145 6l59 64l3 247q-3 98 -76.5 143.5t-179.5 45.5h-89v184h89q106 0 179.5 45.5t76.5 143.5l-3 186l-59 63q-14 9 -145 9q-56 0 -92 -2.5t-44 -4.5l-8 -2l-106 -129l-178 109l163 197q66 12 263 12q89 0 155 -3t87 -6l22 -3 l135 -148l4 -281q0 -174 -158 -278q158 -104 158 -279l-4 -342l-135 -145q-63 -12 -264 -12q-88 0 -153.5 3t-87.5 6l-22 3z" />
<glyph unicode="4" horiz-adv-x="1091" d="M102 414v268l453 788h305v-872h129v-184h-129v-414h-194v414h-564zM293 598h373v668h-19l-354 -617v-51z" />
<glyph unicode="5" horiz-adv-x="1011" d="M96 150l178 116l80 -88q46 -8 148 -8q49 0 87 2t51 4l13 2l47 47v387q0 45 -22.5 72.5t-61.5 34.5t-88.5 -3t-107 -40.5t-113.5 -77.5l-186 92v780h747v-290h-196v108h-359l-4 -469q150 81 286 92t219 -50.5t83 -180.5v-574l-92 -108q-123 -12 -303 -12q-81 0 -150.5 3 t-99.5 6l-29 3z" />
<glyph unicode="6" horiz-adv-x="974" d="M102 150v1169l129 151q91 15 263 15q72 0 137.5 -3.5t94.5 -7.5l30 -4l123 -149l-154 -131l-92 104q-49 6 -141 6q-43 0 -78 -1.5t-48 -2.5l-14 -2l-55 -53v-414q139 73 271.5 82t217 -49t84.5 -170v-584l-92 -108q-84 -12 -252 -12q-80 0 -154 3t-108 6l-33 3zM297 248 l68 -70q35 -8 139 -8q44 0 75 2t39 4l9 2l49 49v363q0 53 -28 84.5t-77 38t-120.5 -16t-153.5 -73.5v-375z" />
<glyph unicode="7" horiz-adv-x="970" d="M102 1180v290h766v-245l-487 -1225h-213l491 1225v63h-362v-108h-195z" />
<glyph unicode="8" horiz-adv-x="976" d="M57 406q0 284 125 382q-82 101 -82 334q0 113 15.5 180t58.5 110t112 58t185 15q77 0 131 -6.5t96.5 -23.5t68.5 -42.5t43 -67.5t23.5 -95t6.5 -128q0 -233 -82 -334q125 -98 125 -382q0 -130 -17.5 -208t-65.5 -127.5t-124.5 -67t-204.5 -17.5q-86 0 -146.5 7.5t-108 27 t-77 49t-48.5 78.5t-26.5 110t-7.5 148zM252 418q0 -149 44 -199.5t175 -50.5q130 0 172.5 50.5t42.5 199.5q0 167 -42 220.5t-173 53.5q-69 0 -109 -11t-66 -43t-35 -83t-9 -137zM295 1096q0 -147 34.5 -194.5t141.5 -47.5q105 0 139.5 48t34.5 194q0 123 -35 165t-139 42 q-107 0 -141.5 -41.5t-34.5 -165.5z" />
<glyph unicode="9" horiz-adv-x="980" d="M102 150l154 131l92 -105q49 -6 141 -6q43 0 78 1.5t49 2.5l13 2l55 53v353q-139 -73 -271.5 -82t-217 49t-84.5 170v645l92 109q84 12 252 12q80 0 153.5 -3t107.5 -6l34 -3l129 -152v-1169l-129 -152q-91 -14 -263 -14q-72 0 -137.5 3.5t-95.5 6.5l-29 4zM305 819 q0 -53 28 -84.5t77 -38t120.5 16t153.5 73.5v439l-68 69q-35 6 -139 6q-44 0 -75 -1.5t-40 -2.5l-8 -2l-49 -49v-426z" />
<glyph unicode=":" horiz-adv-x="561" d="M184 59v215h213v-215h-213zM184 672v215h213v-215h-213z" />
<glyph unicode=";" horiz-adv-x="653" d="M217 -299l84 367v106h201v-106l-121 -387zM295 645v215h213v-215h-213z" />
<glyph unicode="&#x3c;" horiz-adv-x="1075" d="M123 678v133l829 494l-20 -218l-615 -344l615 -344l20 -215z" />
<glyph unicode="=" horiz-adv-x="1234" d="M164 465v156h907v-156h-907zM164 858v158h907v-158h-907z" />
<glyph unicode="&#x3e;" horiz-adv-x="1075" d="M123 184l20 215l615 344l-615 344l-20 218l829 -494v-133z" />
<glyph unicode="?" horiz-adv-x="1013" d="M102 1276l164 197q66 12 242 12q89 0 155 -3t87 -6l22 -3l135 -148l4 -211q0 -65 -32 -127t-77.5 -112.5t-91.5 -100.5t-78 -111t-32 -124v-174h-182v174q0 85 30.5 157.5t74.5 122.5t87.5 95t74.5 96t32 104v117l-62 65q-14 9 -145 9q-47 0 -77.5 -2.5t-36.5 -4.5l-7 -2 l-108 -129zM414 0v195h190v-195h-190z" />
<glyph unicode="@" horiz-adv-x="1779" d="M209 457q1 211 37.5 352.5t119.5 232.5t211.5 130.5t319.5 39.5t319 -39.5t210.5 -130.5t118 -232.5t34.5 -352.5q-1 -255 -68 -353t-237 -98h-100l-117 123q-155 -104 -348 -63l-88 108v506q0 84 60 129t145 47.5t174.5 -19.5t152.5 -63v-522l78 -90h41q89 0 121 62 t30 233q0 172 -27 286t-90.5 187t-162.5 104t-248 31t-248 -31t-162.5 -104t-90.5 -187t-27 -286q0 -347 118 -484.5t410 -132.5l2 -147q-191 -3 -320 35.5t-212.5 130.5t-120 237t-35.5 361zM764 252l43 -53q106 -3 203 63v424q-64 22 -118 25t-91 -20.5t-37 -76.5v-362z " />
<glyph unicode="A" horiz-adv-x="1132" d="M53 0l385 1470h258l383 -1470h-192l-107 422h-426l-108 -422h-193zM399 606h334l-155 611h-23z" />
<glyph unicode="B" horiz-adv-x="1050" d="M123 0v1470h342q58 0 94 -1t83.5 -4.5t76.5 -10.5t64 -19.5t56 -30.5t42.5 -44.5t33 -61.5t18.5 -81t7 -103l-4 -180l-113 -125q133 -86 133 -343v-11l-4 -256l-174 -199h-655zM317 182h365l78 88l2 183q0 136 -35.5 182.5t-146.5 46.5h-263v-500zM317 860h336l88 101 l2 124q0 63 -13.5 103t-45 62t-73.5 30t-109 8h-185v-428z" />
<glyph unicode="C" horiz-adv-x="1021" d="M94 483v713l137 264q187 22 319 24h17q129 0 328 -20v-264h-193v96q-45 3 -99 3q-101 0 -232 -11l-82 -153v-652q0 -95 25.5 -162t67 -98.5t93.5 -45.5q36 -10 74 -10q15 0 31 2q54 6 102.5 20.5t84.5 33t52 35.5l107 -152q-31 -25 -77 -47.5t-102.5 -39.5t-118.5 -27 q-45 -8 -90 -8q-16 0 -34 1q-64 4 -123.5 19.5t-111.5 53.5t-91 92.5t-61.5 140t-22.5 192.5z" />
<glyph unicode="D" horiz-adv-x="1048" d="M123 0v1470h354q78 0 115.5 -1.5t94 -7t81 -19.5t61 -37.5t50.5 -62t33.5 -91t25.5 -128t11 -169t5 -217.5q0 -140 -4 -242.5t-19.5 -182t-28 -131t-48.5 -87.5t-61 -54t-85.5 -27.5t-102 -11t-128.5 -1.5h-354zM317 182h154q58 0 93.5 1t69.5 14t51.5 23t34 47 t22.5 66.5t10.5 101t5 129.5t0.5 173q0 114 -0.5 171.5t-5 128.5t-10.5 100t-22.5 66t-34 47.5t-51.5 23t-69.5 13.5t-93.5 1h-154v-1106z" />
<glyph unicode="E" horiz-adv-x="917" d="M123 0v1470h682l-41 -182h-447v-479h379v-184h-379v-443h492l47 -182h-733z" />
<glyph unicode="F" horiz-adv-x="837" d="M123 0v1470h682l-39 -182h-449v-497h402v-185h-402v-606h-194z" />
<glyph unicode="G" horiz-adv-x="1101" d="M94 489v738l137 229q207 23 345 24q9 1 18 1q133 0 324 -21l-5 -182q-188 19 -290 19q-3 0 -5 -1q-103 0 -262 -16l-67 -111v-680q0 -93 25 -160t66.5 -100t93.5 -47q33 -9 68 -9q20 0 40 3q56 8 109 29t97 53v426l-40 39h-244v184h373l102 -108v-799h-191v53 q-55 -29 -118 -46.5t-130 -19.5h-18q-58 0 -113 11q-64 13 -121 50.5t-100.5 94t-68.5 145.5t-25 201z" />
<glyph unicode="H" horiz-adv-x="1056" d="M123 0v1483l194 -23v-661h422v684l195 -23v-1460h-195v614h-422v-614h-194z" />
<glyph unicode="I" horiz-adv-x="440" d="M123 0v1470l194 -20v-1450h-194z" />
<glyph unicode="J" horiz-adv-x="808" d="M94 25v184q22 -10 95.5 -24.5t144.5 -14.5q66 0 115 6l43 45v1067h-158v182h352v-1347l-106 -119q-92 -16 -246 -16q-58 0 -118 9t-91 19z" />
<glyph unicode="K" horiz-adv-x="987" d="M123 0v1470l194 -20v-631l84 51l344 600h197l-375 -671l129 -90l258 -709h-194l-234 631l-92 65l-117 -71v-625h-194z" />
<glyph unicode="L" horiz-adv-x="864" d="M123 0v1470l194 -20v-1268h482v-182h-676z" />
<glyph unicode="M" horiz-adv-x="1384" d="M143 0v1470h254l291 -993h8l289 993h256v-1470h-184v1098h-8l-242 -910h-229l-242 910h-8v-1098h-185z" />
<glyph unicode="N" horiz-adv-x="1163" d="M143 0v1470h205l481 -1067v1067h191v-1470h-207l-479 1063v-1063h-191z" />
<glyph unicode="O" d="M94 739q0 131 3.5 224t13.5 173t24 131.5t40.5 92.5t56 62.5t78.5 36t100 18.5t127 4q75 0 125.5 -4t99 -18.5t77.5 -36t55.5 -62.5t40 -92.5t24 -131.5t13.5 -173t3 -224q0 -132 -3 -226t-13.5 -175t-24 -132.5t-40 -93t-55.5 -63.5t-77.5 -36.5t-99 -18.5t-125.5 -4 q-76 0 -127 4t-100 18.5t-78.5 36.5t-56 63.5t-40.5 93t-24 132.5t-13.5 175t-3.5 226zM289 737q0 -101 1.5 -173t7.5 -133.5t13.5 -100.5t22.5 -69.5t31 -46.5t43.5 -26.5t55.5 -13t71 -2.5q58 0 91.5 5t64 26.5t45 55t25.5 101.5t14 154t3 223q0 102 -1.5 173t-7 133 t-12.5 99.5t-22 68.5t-30.5 46.5t-43 25.5t-55.5 12.5t-71 2.5t-71 -2.5t-55.5 -12.5t-43.5 -25.5t-31 -46t-22.5 -69t-13.5 -99.5t-7.5 -133t-1.5 -173z" />
<glyph unicode="P" horiz-adv-x="1005" d="M123 -2v1472h348q84 0 132.5 -2t107 -9t89.5 -21.5t64.5 -40t48.5 -64t25 -93t10 -128.5l-6 -285h-2l2 -14l-174 -197h-451v-618h-194zM317 799h365l66 73v224q0 116 -45.5 154t-184.5 38h-201v-489z" />
<glyph unicode="Q" d="M94 739q0 131 3.5 224t13.5 173t24 131.5t40.5 92.5t56 62.5t78.5 36t100 18.5t127 4q75 0 125.5 -4t99 -18.5t77.5 -36t55.5 -62.5t40 -92.5t24 -131.5t13.5 -173t3 -224q0 -183 -7.5 -299t-25.5 -204t-53.5 -135t-86 -72t-128.5 -33v-14q0 -97 153 -97v-131 q-69 0 -121.5 10.5t-95 35.5t-65 70.5t-23.5 111.5v8q-73 0 -123 5t-96.5 19.5t-75.5 37t-54.5 64.5t-39 93.5t-23.5 132t-13 174t-3 223.5zM289 737q0 -100 1.5 -170.5t7 -131.5t12.5 -100t21 -70t29.5 -47.5t41.5 -27.5t53 -14.5t67 -3.5v197h152v-176q63 32 83.5 144.5 t20.5 399.5q0 102 -1.5 173t-7 133t-12.5 99.5t-22 68.5t-30.5 46.5t-43 25.5t-55.5 12.5t-71 2.5t-71 -2.5t-55.5 -12.5t-43.5 -25.5t-31 -46t-22.5 -69t-13.5 -99.5t-7.5 -133t-1.5 -173z" />
<glyph unicode="R" horiz-adv-x="1118" d="M123 0v1470h328q84 0 132.5 -2t107 -9t89.5 -21.5t64 -40t48 -64t24.5 -93t9.5 -128.5v-264l-129 -135l73 -90l189 -623h-195l-188 586l-66 69h-293v-655h-194zM317 838h332l76 82l2 176q0 117 -45.5 154.5t-183.5 37.5h-181v-450z" />
<glyph unicode="S" horiz-adv-x="1034" d="M94 104v302h195v-189q113 -43 215 -45q5 0 9 -1q97 0 163 48q70 50 69 150q0 45 -14.5 82.5t-37 64t-65 55t-81 49t-102.5 51.5q-6 3 -9.5 4.5t-8.5 4l-9 4.5q-78 40 -133 79.5t-100.5 93.5t-68 124.5t-22.5 159.5q0 102 40 175t105.5 109t149.5 50q47 8 96 8q38 0 77 -5 q89 -11 175 -39.5t156 -70.5h4v-297h-195v182q-76 28 -148 38q-36 5 -70 5q-32 0 -62 -5q-60 -10 -96.5 -48.5t-36.5 -101.5q-1 -30 3 -56t16.5 -49.5t23.5 -41t36.5 -38t42.5 -33t56 -33.5t61 -32.5t72 -36.5q68 -34 115.5 -62.5t93 -68.5t72.5 -84t43 -104t16 -133 q0 -98 -32 -172.5t-87 -117.5t-126 -67t-151 -25h-10q-74 1 -150 13q-81 14 -155.5 40.5t-134.5 63.5z" />
<glyph unicode="T" horiz-adv-x="1011" d="M74 1288v182h893v-182h-353v-1288h-194v1288h-346z" />
<glyph unicode="U" horiz-adv-x="1097" d="M123 739v731l194 -20v-711q0 -91 1 -152t5 -122.5t11 -99.5t19 -74.5t29 -56t41 -35.5t54.5 -21.5t71.5 -5.5t71.5 5.5t55 21.5t41 35t28.5 56.5t18.5 74.5t10.5 99.5t5 122.5t1 152v709l195 22v-731q0 -162 -8 -277t-29.5 -200t-51 -136.5t-80 -82.5t-109.5 -42 t-146 -11t-146 11t-110 42t-81.5 82.5t-52 136.5t-30 200t-8.5 277z" />
<glyph unicode="V" horiz-adv-x="1083" d="M53 1470l199 -20l272 -1106h37l270 1106l199 20l-366 -1470h-242z" />
<glyph unicode="W" horiz-adv-x="1599" d="M53 1470l195 -20l241 -1110h17l172 926h244l172 -926h16l242 1110l194 20l-315 -1470h-244l-182 936h-10l-183 -936h-243z" />
<glyph unicode="X" horiz-adv-x="1087" d="M53 0l385 735l-383 735l221 -22l269 -510l266 510l221 22l-383 -735l385 -735h-213l-276 532l-279 -532h-213z" />
<glyph unicode="Y" horiz-adv-x="999" d="M53 1470l203 -18l244 -639l241 639l205 18l-346 -895v-575h-197v573z" />
<glyph unicode="Z" horiz-adv-x="1085" d="M94 141l633 1112l-27 35h-362v-110h-191v292h738l106 -137l-643 -1112l31 -39h362v94h193v-276h-731v2z" />
<glyph unicode="[" horiz-adv-x="577" d="M102 739q0 189 1 322.5t6 259.5t10 207t18 156t25 117t37 78.5t47 52t61.5 26.5t75 13t92.5 1v-182q-72 1 -99 -18q-44 -30 -60 -160q-18 -149 -19 -713v-162q0 -659 13.5 -824t55.5 -206q27 -26 94 -26h15v-183q-57 -1 -92.5 1t-75 13.5t-61.5 27t-47 52.5t-37 79 t-25 117.5t-18 157t-10 208.5t-6 261t-1 324z" />
<glyph unicode="\" horiz-adv-x="983" d="M0 1901l211 -23l772 -2349h-201z" />
<glyph unicode="]" horiz-adv-x="585" d="M102 -268h136l49 53v1903l-51 53h-134v182h244l137 -147v-2081l-137 -146h-244v183z" />
<glyph unicode="^" horiz-adv-x="1130" d="M162 1239l330 625h133l329 -625l-217 21l-180 380l-180 -380z" />
<glyph unicode="_" horiz-adv-x="1071" d="M102 -78h867v-158h-867v158z" />
<glyph unicode="`" horiz-adv-x="675" d="M82 1896l106 162l406 -342l-121 -147z" />
<glyph unicode="a" horiz-adv-x="813" d="M78 104q0 141 4.5 201.5t19.5 95t50 64.5q55 47 151.5 80.5t208.5 42.5v127q0 47 -38 67q-29 15 -66 15q-11 0 -23 -1q-52 -6 -106 -30v-86h-154v182q47 36 120 62q73 24 151 30q21 2 42 2q54 0 104 -10q68 -14 113 -63.5t45 -126.5v-756h-145l-43 43v6 q-104 -62 -227 -62q-51 0 -105 11zM264 188l37 -36q113 3 211 77v228q-66 -8 -125 -27t-86 -43q-25 -22 -31 -60.5t-6 -138.5z" />
<glyph unicode="b" horiz-adv-x="845" d="M115 0v1608l186 -23v-672q77 29 157 39q36 4 69 4q41 0 77 -6q68 -12 111 -55.5t43 -114.5v-671l-111 -121q-180 0 -346 63l-37 -51h-149zM301 231q111 -45 236 -61l32 35v477q0 54 -40 76q-29 16 -67 17q-16 0 -33 -3q-60 -9 -128 -41v-500z" />
<glyph unicode="c" horiz-adv-x="727" d="M88 162v672l105 108q46 14 243 14q56 0 106.5 -3.5t73.5 -6.5l23 -4v-280h-139v114q-20 2 -64 2q-55 0 -121 -4l-41 -39v-487q0 -47 40 -67q31 -15 69 -15q11 0 25 2q54 6 106 24t78 39l96 -149q-46 -36 -122 -62q-75 -24 -157 -30q-26 -2 -51 -2q-54 0 -104 8 q-72 12 -119 55t-47 111z" />
<glyph unicode="d" horiz-adv-x="845" d="M88 109v671q0 71 43 114.5t111 55.5q37 6 77 6q33 0 69 -4q79 -10 155 -39v697l188 -23v-1587h-149l-39 51v10q-150 -71 -303 -71q-23 0 -45 2zM274 211l37 -39q120 17 232 76v483q-69 31 -129 39q-16 2 -31 3q-40 -1 -69 -17q-40 -22 -40 -76v-469z" />
<glyph unicode="e" horiz-adv-x="774" d="M88 162v672l105 108q86 14 233 14q52 0 100 -3.5t70 -6.5l22 -4l99 -108v-91q0 -134 -12.5 -182t-61.5 -88q-115 -88 -369 -106v-115q0 -50 42 -72q32 -17 75 -18q13 0 25 2q58 6 119.5 27t103.5 51l92 -144q-58 -43 -142 -72t-170 -36q-32 -3 -62 -3q-52 0 -99 8 q-75 12 -122.5 55.5t-47.5 111.5zM274 502q159 14 220 63q22 17 32.5 45.5t10.5 61.5v73l-33 37l-4 1q-3 1 -10.5 3t-19.5 3.5t-33.5 2.5t-47.5 1t-82 -9l-33 -36v-246z" />
<glyph unicode="f" horiz-adv-x="649" d="M63 784v158h127v442l109 119q77 29 135 35t203 6v-178q-164 0 -219 -8l-41 -41v-375h229v-158h-229v-784h-187v784h-127z" />
<glyph unicode="g" horiz-adv-x="827" d="M88 109v671q0 68 40 111t104 56q42 8 89 8q25 0 51 -2q76 -7 152 -33v38l189 -22v-1182l-109 -131q-64 -16 -223 -16q-58 0 -113 4t-80 8l-26 4v176q2 0 29 -3.5t78 -7t112 -3.5q55 0 102 6l41 49v195q-109 -50 -233 -50q-47 0 -96 7zM274 211l50 -51q107 6 200 63v516 q-66 27 -122 33q-11 1 -22 1q-41 0 -70 -18q-36 -23 -36 -75v-469z" />
<glyph unicode="h" horiz-adv-x="880" d="M115 0v1620l194 -25v-741q191 100 348 100l109 -118v-836h-193v723l-36 39q-134 -28 -228 -66v-696h-194z" />
<glyph unicode="i" horiz-adv-x="450" d="M115 1143v219h223v-219h-223zM133 0v952l189 -22v-930h-189z" />
<glyph unicode="j" horiz-adv-x="468" d="M-49 -268q2 1 19.5 -1t44.5 -4.5t46 -2.5h56l37 47v1181l188 -22v-1219l-123 -149q-31 -17 -158 -17q-21 0 -48.5 2.5t-44.5 4.5l-17 2v178zM133 1143v219h221v-219h-221z" />
<glyph unicode="k" horiz-adv-x="899" d="M115 0v1618l186 -21v-983l49 39l250 344h197l-271 -379l97 -63l262 -555h-205l-229 479l-50 37l-100 -70v-446h-186z" />
<glyph unicode="l" horiz-adv-x="415" d="M115 0v1624l186 -22v-1602h-186z" />
<glyph unicode="m" horiz-adv-x="1232" d="M115 0v956l194 -24v-64q165 86 293 86l90 -96q171 96 316 96l110 -118v-836h-184v729l-43 43q-108 -23 -178 -51v-721h-185v729l-43 43q-93 -20 -176 -53v-719h-194z" />
<glyph unicode="n" horiz-adv-x="880" d="M115 0v956l194 -24v-78q191 100 348 100l109 -118v-836h-193v725l-36 37q-116 -22 -228 -64v-698h-194z" />
<glyph unicode="o" horiz-adv-x="819" d="M88 471q0 84 2.5 143t9.5 111.5t17 86t29 61t41 42t57.5 25t74.5 13.5t95 3q73 0 119 -6t84.5 -26t58.5 -51t34 -88.5t18.5 -129.5t4.5 -184q0 -95 -3.5 -160t-11.5 -120t-25 -88t-39 -57.5t-58.5 -36t-78 -16.5t-103.5 -5q-75 0 -122.5 6t-86.5 26t-59.5 50.5t-35 88.5 t-18.5 129t-4 183zM274 471q0 -74 1.5 -118.5t7.5 -82t14 -55.5t25 -30.5t37 -15.5t53 -3t52.5 3t35.5 16t24 30.5t13.5 55.5t6.5 81.5t1 118.5t-1 119t-6.5 82.5t-13.5 56t-24 30.5t-35.5 16t-52.5 3t-53 -3t-37 -15.5t-25 -31t-14 -56t-7.5 -82.5t-1.5 -119z" />
<glyph unicode="p" horiz-adv-x="835" d="M115 -518v1476l186 -20v-29q74 27 152 35q29 2 57 2q46 0 88 -8q66 -12 108 -53.5t42 -106.5v-672l-111 -118q-202 0 -336 35v-541h-186zM301 201q97 -26 223 -33l41 43v467q0 53 -39 76q-30 17 -71 17q-13 0 -27 -2q-59 -7 -127 -36v-532z" />
<glyph unicode="q" horiz-adv-x="831" d="M88 106v672q0 86 72 130q68 40 162 40h13q102 -3 204 -41v49l186 -22v-1266l84 -88l-113 -135l-157 166v414q-123 -33 -342 -37zM268 211l43 -43q114 6 228 33v530q-69 30 -129 38q-16 2 -31 2q-41 0 -71 -17q-40 -22 -40 -76v-467z" />
<glyph unicode="r" horiz-adv-x="688" d="M115 0v956l194 -24v-41q125 61 248 61l137 -166l-123 -116l-84 100q-97 -13 -178 -53v-717h-194z" />
<glyph unicode="s" horiz-adv-x="757" d="M72 694q0 93 44.5 154.5t113.5 84.5q68 23 150 24h8q76 1 150 -19q76 -20 134 -55h4v-211h-156v78q-54 26 -114 34q-15 2 -30 2q-41 0 -74 -16q-44 -22 -44 -74q0 -54 45.5 -83.5t151.5 -63.5q137 -44 200.5 -109t63.5 -184q0 -70 -25 -122.5t-67 -82.5t-97 -47 q-54 -18 -114 -18h-7q-57 0 -113 8q-60 8 -112 26t-92 41v230h154v-98q50 -19 100 -27q34 -6 64 -7q14 0 28 2q42 4 68 28t26 67q0 56 -39.5 84t-162.5 70q-61 21 -102 41.5t-79.5 53t-57.5 79.5t-19 110z" />
<glyph unicode="t" horiz-adv-x="653" d="M23 784v158h122v438l187 -22v-416h229v-158h-229v-546l65 -68q49 -4 174 -4v-178q-90 0 -133.5 1.5t-97 11t-88.5 28.5l-107 118v637h-122z" />
<glyph unicode="u" horiz-adv-x="856" d="M104 111v831l187 -20v-715l33 -37q139 10 241 43v707l187 22v-942h-148l-31 35q-145 -47 -360 -47z" />
<glyph unicode="v" horiz-adv-x="802" d="M10 952l201 -10l186 -688h19l176 690l203 10l-269 -952h-32v-2h-218z" />
<glyph unicode="w" horiz-adv-x="1116" d="M10 954l197 -18l127 -682h22l93 649h219l92 -647v-2h22v2l127 680l197 18l-209 -954h-252l-80 610h-14l-82 -610h-250z" />
<glyph unicode="x" horiz-adv-x="784" d="M12 0l281 475l-275 477l220 -22l155 -279l154 279l219 22l-274 -475l282 -477h-219l-164 297l-162 -297h-217z" />
<glyph unicode="y" horiz-adv-x="856" d="M10 952l197 -20l190 -610h45l195 608l209 22l-447 -1401l-174 87l135 423h-77z" />
<glyph unicode="z" horiz-adv-x="800" d="M68 139l442 623l-18 22h-220v-96h-155v254h516l110 -137l-440 -621l21 -26h223v80h153v-238h-520v2z" />
<glyph unicode="{" horiz-adv-x="847" d="M102 674v184h39q39 0 76 10t72 31t57 59.5t23 88.5l-2 727l-2 2l135 147h245v-182h-135l-51 -55l4 -642q0 -173 -153 -278q153 -105 153 -279l-4 -702l49 -53h137v-183h-245l-135 146l4 790q-1 50 -23 88.5t-57 59.5t-72 31t-76 10h-39z" />
<glyph unicode="|" horiz-adv-x="604" d="M205 -442v2293h194v-2293h-194z" />
<glyph unicode="}" horiz-adv-x="847" d="M102 -268h136l51 55l-4 700q0 174 153 279q-153 105 -153 278l4 642l-53 55h-134v182h244l137 -147l-2 -2l-2 -727q1 -50 23 -88.5t57 -59.5t72 -31t76 -10h38v-184h-38q-39 0 -76 -10t-72 -31t-57 -59.5t-23 -88.5l4 -790l-137 -146h-244v183z" />
<glyph unicode="~" horiz-adv-x="999" d="M82 817l131 125q33 -39 80.5 -53t86 -9.5t75.5 19.5q56 21 86 30.5t83 16t93.5 -4t94 -42t106.5 -86.5l-136 -123q-34 34 -65 51t-66.5 16t-56.5 -6t-66 -20q-39 -13 -60.5 -19.5t-60 -15.5t-64 -9t-62 5t-66 20t-65 41t-68.5 64z" />
<glyph unicode="&#xa1;" horiz-adv-x="546" d="M178 748v194h191v-194h-191zM182 -528v1103h183v-1103h-183z" />
<glyph unicode="&#xa2;" horiz-adv-x="1009" d="M205 414v643q0 77 59 119.5t154 50.5v182h137v-184q159 -19 250 -88l-96 -150q-26 21 -77.5 39t-105 24.5t-93.5 -13t-40 -66.5v-469q0 -48 40 -68t93.5 -14t105 24t77.5 39l96 -149q-89 -70 -250 -90v-183h-137v181q-95 8 -154 50.5t-59 121.5z" />
<glyph unicode="&#xa3;" horiz-adv-x="1140" d="M123 0v182l248 256q0 80 -17 160h-219v182h160q-7 15 -39.5 83t-42.5 94t-23 80.5t-12 105.5l4 182l135 148q64 12 265 12q78 0 138.5 -3t81.5 -6l21 -3l164 -197l-176 -109l-109 129q-13 9 -122 9q-58 0 -94.5 -2.5t-43.5 -4.5l-8 -2l-61 -65v-21q0 -74 14 -140t29 -102 t45 -97t43 -91h377v-182h-320q17 -93 17 -201l-216 -215h650v-182h-889z" />
<glyph unicode="&#xa5;" horiz-adv-x="1302" d="M123 1470l186 -18l344 -661l338 661l189 18l-400 -804h256v-136h-284v-149h284v-137h-284v-244h-197v244h-291v137h291v149h-291v136h262z" />
<glyph unicode="&#xa6;" horiz-adv-x="604" d="M205 -442v925h194v-925h-194zM205 926v925h194v-925h-194z" />
<glyph unicode="&#xa7;" horiz-adv-x="968" d="M164 102h153v-141q83 -30 157.5 -31.5t125.5 35.5t51 109q0 23 -5.5 43.5t-13 36t-24 31.5t-30.5 27t-40 26t-45.5 25t-54.5 28q-5 2 -8 3.5t-7.5 4t-8.5 4.5q-122 62 -186 140.5t-64 205.5q0 147 108 211q-108 97 -108 256q0 91 42.5 151t109.5 83t148.5 22.5t161 -23.5 t144.5 -61h4v-231h-156v141q-76 27 -143 30.5t-112.5 -24.5t-45.5 -88q-1 -36 9.5 -65.5t25 -49.5t50 -43.5t60.5 -37t81 -41.5q65 -33 105.5 -59.5t80 -66.5t58 -92.5t18.5 -121.5q0 -150 -103 -226q103 -90 103 -239q0 -86 -33 -147.5t-87 -92t-122 -42.5t-140 -3 t-139 30.5t-120 53.5v229zM317 649q-1 -30 4 -54t21 -45.5t30 -36t46 -34t53.5 -31t67.5 -34.5q112 24 112 125q0 23 -5.5 43.5t-12 35.5t-24.5 32t-28 26t-39.5 26t-43 24.5t-52.5 27.5q-59 -2 -94 -28t-35 -77z" />
<glyph unicode="&#xa8;" horiz-adv-x="598" d="M55 1634v174h162v-174h-162zM381 1634v174h160v-174h-160z" />
<glyph unicode="&#xa9;" horiz-adv-x="1626" d="M176 719q0 369 152 535.5t487 166.5q333 0 484 -166.5t151 -535.5q0 -374 -151 -543.5t-484 -169.5q-335 0 -487 170t-152 543zM283 717q0 -319 126 -463.5t404 -144.5t404 144.5t126 463.5q0 316 -126 459t-404 143t-404 -143t-126 -459zM526 469v526l101 105 q47 14 235 14q53 0 102 -3.5t72 -6.5l23 -4v-266h-135v108q-20 2 -62 2q-57 0 -119 -4l-38 -37v-352q0 -46 39 -65t91 -13t102.5 24t74.5 40l94 -146q-57 -44 -155 -68.5t-192 -23t-163.5 45t-69.5 124.5z" />
<glyph unicode="&#xab;" horiz-adv-x="1366" d="M123 432v133l625 494l-21 -217l-428 -326v-35l428 -327l21 -215zM618 432v133l625 494l-20 -217l-428 -326v-35l428 -327l20 -215z" />
<glyph unicode="&#xad;" horiz-adv-x="1228" d="M123 430v156h539v-156h-539z" />
<glyph unicode="&#xae;" horiz-adv-x="1224" d="M152 1176q0 257 109.5 373t350.5 116q242 0 351.5 -116.5t109.5 -372.5q0 -261 -109.5 -378.5t-351.5 -117.5t-351 117.5t-109 378.5zM238 1176q0 -217 89 -315.5t285 -98.5t285.5 98.5t89.5 315.5q0 213 -89 309t-286 96t-285.5 -95.5t-88.5 -309.5zM442 895v559h140 q41 0 64.5 -1t50 -5.5t40 -13.5t26 -24.5t17 -39t4.5 -57.5l-4 -113l-43 -51l29 -45l78 -209h-115l-74 195l-20 24h-78v-219h-115zM557 1223h94l17 18v59q0 21 -14 33.5t-36 12.5h-61v-123z" />
<glyph unicode="&#xb0;" horiz-adv-x="622" d="M41 1470q0 166 59.5 231.5t212.5 65.5q152 0 210.5 -65.5t58.5 -231.5q0 -165 -58.5 -228.5t-210.5 -63.5q-154 0 -213 64t-59 228zM182 1470q0 -89 28.5 -124t102.5 -35q72 0 100.5 35t28.5 124q0 90 -28.5 125t-100.5 35q-74 0 -102.5 -35t-28.5 -125z" />
<glyph unicode="&#xb1;" horiz-adv-x="1234" d="M164 188v158h907v-158h-907zM164 854v158h379v305h155v-305h373v-158h-373v-307h-155v307h-379z" />
<glyph unicode="&#xb2;" horiz-adv-x="552" d="M39 1067q0 129 33.5 201.5t154.5 210.5q19 21 55.5 58.5t50.5 54.5t27.5 48.5t14.5 67.5v16l-27 27q-6 2 -74 2l-51 -2l-61 -70l-117 68l98 115q35 6 131 6q48 0 83.5 -1.5t46.5 -2.5l12 -2l82 -86v-72q0 -29 -9 -59.5t-19 -52t-35 -55.5t-36.5 -47t-45.5 -50.5 t-40 -44.5q-72 -80 -101 -122t-40 -89h203v74h125v-193h-461z" />
<glyph unicode="&#xb3;" horiz-adv-x="573" d="M55 1186l117 65l59 -67q17 -2 74 -2l66 2l22 22l2 127q-3 92 -121 92h-49v119h49q118 0 121 90l-2 97l-22 22q-7 4 -66 4l-74 -4l-59 -67l-117 65l97 115q37 6 141 6q48 0 84 -1.5t47 -2.5l12 -2l80 -86l4 -146q0 -87 -80 -149q80 -62 80 -152l-4 -176l-80 -88 q-34 -4 -143 -4l-141 4z" />
<glyph unicode="&#xb4;" horiz-adv-x="675" d="M82 1716l407 342l105 -162l-389 -327z" />
<glyph unicode="&#xb6;" horiz-adv-x="1413" d="M123 1214q0 52 4 94t14 75.5t21.5 59.5t32.5 46t40.5 33.5t52.5 23t61 15t73.5 8t82.5 3.5t95 1h348v-1806h-194v952h-451l-174 196l2 15h-2zM1096 -233v1806h194v-1806h-194z" />
<glyph unicode="&#xb7;" horiz-adv-x="391" d="M90 465v215h213v-215h-213z" />
<glyph unicode="&#xb8;" horiz-adv-x="669" d="M84 -399l39 147q38 -6 131 -6l80 2l72 82q-49 91 -242 88l72 287l133 -6l-41 -150q125 -23 192.5 -94t67.5 -170l-150 -178q-51 -11 -182 -11q-56 0 -99 2t-58 4z" />
<glyph unicode="&#xb9;" horiz-adv-x="430" d="M55 1745l115 119h203v-795h-121v678h-45l-64 -68z" />
<glyph unicode="&#xbb;" horiz-adv-x="1366" d="M123 -61l20 215l428 327v35l-428 326l-20 217l625 -494v-133zM618 -61l21 215l428 327v35l-428 326l-21 217l625 -494v-133z" />
<glyph unicode="&#xbc;" horiz-adv-x="1335" d="M82 1743l115 119h202v-795h-123v680h-45l-61 -68zM121 0l921 1864h125l-923 -1864h-123zM754 215v160l243 422h185v-465h71v-117h-71v-213h-123v213h-305zM874 332h185v330h-6l-179 -308v-22z" />
<glyph unicode="&#xbd;" horiz-adv-x="1355" d="M82 1743l115 119h202v-795h-123v680h-45l-61 -68zM121 0l921 1864h125l-923 -1864h-123zM811 0q0 129 33.5 201.5t154.5 210.5q19 21 55.5 58.5t50.5 54.5t27.5 48.5t14.5 67.5v16l-27 27q-5 2 -73 2l-52 -2l-61 -70l-117 68l98 115q36 6 132 6q48 0 83.5 -1.5t46.5 -3.5 l11 -1l82 -86v-72q0 -29 -9 -59.5t-19 -52t-35 -55.5t-36.5 -47t-45.5 -50.5t-40 -44.5q-72 -80 -101 -122t-40 -89h203v74h125v-193h-461z" />
<glyph unicode="&#xbe;" horiz-adv-x="1431" d="M82 1186l117 65l59 -67q17 -2 72 -2l65 2l25 24l2 125q-3 92 -121 92h-49v119h49q52 0 86 22t35 68l-2 95l-25 24q-6 4 -65 4l-72 -4l-59 -67l-117 65l94 115q37 6 143 6q48 0 83.5 -1.5t47.5 -2.5l11 -2l82 -86l2 -146q0 -87 -80 -149q80 -62 80 -152l-2 -176l-82 -88 q-33 -4 -142 -4l-143 4zM217 0l922 1864h123l-924 -1864h-121zM848 215v160l246 422h184v-465h72v-117h-72v-213h-125v213h-305zM971 332h182v330h-6l-176 -308v-22z" />
<glyph unicode="&#xbf;" horiz-adv-x="1013" d="M102 29q0 65 32.5 127t78.5 112.5t92 100.5t78.5 111t32.5 124v174h182v-174q0 -72 -22 -135.5t-55.5 -107t-72.5 -87t-72 -78t-56 -78.5t-23 -89v-119l61 -66q15 -6 146 -6q48 0 79 1.5t37 2.5l7 2l108 131l176 -108l-163 -197q-66 -12 -242 -12q-89 0 -155 3t-87 6 l-22 3l-136 148zM410 948v195h190v-195h-190z" />
<glyph unicode="&#xc0;" horiz-adv-x="1132" d="M53 0l385 1470h258l383 -1470h-192l-107 422h-426l-108 -422h-193zM313 1896l105 162l407 -342l-120 -147zM399 606h334l-155 611h-23z" />
<glyph unicode="&#xc1;" horiz-adv-x="1132" d="M53 0l385 1470h258l383 -1470h-192l-107 422h-426l-108 -422h-193zM309 1716l406 342l106 -162l-391 -327zM399 606h334l-155 611h-23z" />
<glyph unicode="&#xc2;" horiz-adv-x="1132" d="M53 0l385 1470h258l383 -1470h-192l-107 422h-426l-108 -422h-193zM186 1602l240 356h281l239 -356l-223 20l-135 190h-43l-135 -190zM399 606h334l-155 611h-23z" />
<glyph unicode="&#xc3;" horiz-adv-x="1132" d="M53 0l385 1470h258l383 -1470h-192l-107 422h-426l-108 -422h-193zM147 1790l132 125q32 -40 80 -54.5t86.5 -10t74.5 19.5q39 15 61 23t59.5 17.5t63.5 10t63 -4.5t69 -20.5t70.5 -42.5t76.5 -67l-135 -123q-27 28 -54.5 43.5t-48 21t-51 1.5t-47.5 -9.5t-53 -17.5 q-40 -13 -61 -19.5t-59.5 -15t-63.5 -8.5t-62 5t-66.5 19.5t-65 41.5t-69.5 65zM399 606h334l-155 611h-23z" />
<glyph unicode="&#xc4;" horiz-adv-x="1132" d="M53 0l385 1470h258l383 -1470h-192l-107 422h-426l-108 -422h-193zM324 1634v174h161v-174h-161zM399 606h334l-155 611h-23zM649 1634v174h160v-174h-160z" />
<glyph unicode="&#xc5;" horiz-adv-x="1132" d="M53 0l379 1448q-57 40 -57 172q0 117 40.5 161t149.5 44q107 0 147 -44t40 -161q0 -127 -52 -168l379 -1452h-192l-107 422h-426l-108 -422h-193zM399 606h334l-155 611h-23zM492 1620q0 -53 15 -71.5t58 -18.5q41 0 56.5 19t15.5 71t-15.5 71t-56.5 19q-43 0 -58 -18.5 t-15 -71.5z" />
<glyph unicode="&#xc6;" horiz-adv-x="1538" d="M53 0l379 1470h993l-39 -182h-446v-479h377v-184h-377v-443h490l47 -182h-734v422h-391l-106 -422h-193zM397 606h346v680h-176z" />
<glyph unicode="&#xc7;" horiz-adv-x="1021" d="M94 483v713l137 264q186 23 318.5 24.5t345.5 -20.5v-264h-193v96q-130 9 -331 -8l-82 -153v-652q0 -95 25.5 -162t67 -98.5t93.5 -45.5t105.5 -8t102 20.5t84.5 33t52 35.5l107 -152q-65 -51 -179 -87t-229 -33l-10 -37q123 -23 190.5 -94t67.5 -170l-150 -179 q-51 -10 -182 -10q-26 0 -49.5 0.5t-40 1t-30.5 1.5t-23.5 2t-15.5 1.5t-9 1.5h-4l39 148q38 -6 131 -6l80 2l72 82q-49 91 -242 88l49 184q-135 37 -216 153t-81 328z" />
<glyph unicode="&#xc8;" horiz-adv-x="917" d="M123 0v1470h682l-41 -182h-447v-479h379v-184h-379v-443h492l47 -182h-733zM223 1886l107 160l405 -340l-121 -147z" />
<glyph unicode="&#xc9;" horiz-adv-x="917" d="M123 0v1470h682l-41 -182h-447v-479h379v-184h-379v-443h492l47 -182h-733zM219 1706l408 340l104 -160l-389 -327z" />
<glyph unicode="&#xca;" horiz-adv-x="917" d="M96 1589l240 359h280l240 -359l-223 21l-133 190h-47l-134 -190zM123 0v1470h682l-41 -182h-447v-479h379v-184h-379v-443h492l47 -182h-733z" />
<glyph unicode="&#xcb;" horiz-adv-x="917" d="M123 0v1470h682l-41 -182h-447v-479h379v-184h-379v-443h492l47 -182h-733zM236 1624v172h159v-172h-159zM559 1624v172h162v-172h-162z" />
<glyph unicode="&#xcc;" horiz-adv-x="440" d="M-33 1888l107 162l405 -342l-121 -147zM123 0v1470l194 -20v-1450h-194z" />
<glyph unicode="&#xcd;" horiz-adv-x="440" d="M-37 1708l408 342l104 -162l-389 -327zM123 0v1470l194 -20v-1450h-194z" />
<glyph unicode="&#xce;" horiz-adv-x="440" d="M-160 1591l240 359h280l240 -359l-223 23l-133 188h-47l-134 -188zM123 0v1470l194 -20v-1450h-194z" />
<glyph unicode="&#xcf;" horiz-adv-x="440" d="M-20 1626v174h159v-174h-159zM123 0v1470l194 -20v-1450h-194zM303 1626v174h162v-174h-162z" />
<glyph unicode="&#xd0;" horiz-adv-x="1159" d="M123 653v185h110v632h355q88 0 129.5 -1.5t102 -11t85.5 -27t61 -53.5t48.5 -87.5t27.5 -130.5t19 -181t4 -241q0 -140 -4 -242.5t-19 -182t-27.5 -131t-48.5 -87.5t-61 -54t-85.5 -27.5t-102 -11t-129.5 -1.5h-355v653h-110zM430 182h152q58 0 93.5 1t69.5 14t51.5 23 t33.5 47.5t22 66t10.5 101t5 130t0.5 172.5t-0.5 172t-5 128.5t-10.5 100t-22 65.5t-33.5 47t-51.5 23t-69.5 14t-93.5 1h-152v-450h209v-185h-209v-471z" />
<glyph unicode="&#xd1;" horiz-adv-x="1163" d="M143 0v1470h205l481 -1067v1067h191v-1470h-207l-479 1063v-1063h-191zM164 1782l131 125q33 -40 80.5 -54.5t86 -10t75.5 19.5q39 15 61 23t59.5 17.5t63 10t62.5 -4.5t68.5 -20.5t69.5 -42.5t76 -67l-133 -123q-27 28 -55 43.5t-49 21t-51 1.5t-47 -9.5t-52 -17.5 q-39 -13 -60.5 -19.5t-60 -15t-64 -8.5t-62 5t-66 19.5t-65 41.5t-68.5 65z" />
<glyph unicode="&#xd2;" d="M94 739q0 131 3.5 224t13.5 173t24 131.5t40.5 92.5t56 62.5t78.5 36t100 18.5t127 4q75 0 125.5 -4t99 -18.5t77.5 -36t55.5 -62.5t40 -92.5t24 -131.5t13.5 -173t3 -224q0 -132 -3 -226t-13.5 -175t-24 -132.5t-40 -93t-55.5 -63.5t-77.5 -36.5t-99 -18.5t-125.5 -4 q-76 0 -127 4t-100 18.5t-78.5 36.5t-56 63.5t-40.5 93t-24 132.5t-13.5 175t-3.5 226zM283 1888l104 162l408 -342l-123 -147zM289 737q0 -101 1.5 -173t7.5 -133.5t13.5 -100.5t22.5 -69.5t31 -46.5t43.5 -26.5t55.5 -13t71 -2.5q58 0 91.5 5t64 26.5t45 55t25.5 101.5 t14 154t3 223q0 102 -1.5 173t-7 133t-12.5 99.5t-22 68.5t-30.5 46.5t-43 25.5t-55.5 12.5t-71 2.5t-71 -2.5t-55.5 -12.5t-43.5 -25.5t-31 -46t-22.5 -69t-13.5 -99.5t-7.5 -133t-1.5 -173z" />
<glyph unicode="&#xd3;" d="M94 739q0 131 3.5 224t13.5 173t24 131.5t40.5 92.5t56 62.5t78.5 36t100 18.5t127 4q75 0 125.5 -4t99 -18.5t77.5 -36t55.5 -62.5t40 -92.5t24 -131.5t13.5 -173t3 -224q0 -132 -3 -226t-13.5 -175t-24 -132.5t-40 -93t-55.5 -63.5t-77.5 -36.5t-99 -18.5t-125.5 -4 q-76 0 -127 4t-100 18.5t-78.5 36.5t-56 63.5t-40.5 93t-24 132.5t-13.5 175t-3.5 226zM279 1708l405 342l107 -162l-392 -327zM289 737q0 -101 1.5 -173t7.5 -133.5t13.5 -100.5t22.5 -69.5t31 -46.5t43.5 -26.5t55.5 -13t71 -2.5q58 0 91.5 5t64 26.5t45 55t25.5 101.5 t14 154t3 223q0 102 -1.5 173t-7 133t-12.5 99.5t-22 68.5t-30.5 46.5t-43 25.5t-55.5 12.5t-71 2.5t-71 -2.5t-55.5 -12.5t-43.5 -25.5t-31 -46t-22.5 -69t-13.5 -99.5t-7.5 -133t-1.5 -173z" />
<glyph unicode="&#xd4;" d="M94 739q0 131 3.5 224t13.5 173t24 131.5t40.5 92.5t56 62.5t78.5 36t100 18.5t127 4q75 0 125.5 -4t99 -18.5t77.5 -36t55.5 -62.5t40 -92.5t24 -131.5t13.5 -173t3 -224q0 -132 -3 -226t-13.5 -175t-24 -132.5t-40 -93t-55.5 -63.5t-77.5 -36.5t-99 -18.5t-125.5 -4 q-76 0 -127 4t-100 18.5t-78.5 36.5t-56 63.5t-40.5 93t-24 132.5t-13.5 175t-3.5 226zM156 1591l239 359h281l239 -359l-223 23l-133 188h-49l-133 -188zM289 737q0 -101 1.5 -173t7.5 -133.5t13.5 -100.5t22.5 -69.5t31 -46.5t43.5 -26.5t55.5 -13t71 -2.5q58 0 91.5 5 t64 26.5t45 55t25.5 101.5t14 154t3 223q0 102 -1.5 173t-7 133t-12.5 99.5t-22 68.5t-30.5 46.5t-43 25.5t-55.5 12.5t-71 2.5t-71 -2.5t-55.5 -12.5t-43.5 -25.5t-31 -46t-22.5 -69t-13.5 -99.5t-7.5 -133t-1.5 -173z" />
<glyph unicode="&#xd5;" d="M94 739q0 131 3.5 224t13.5 173t24 131.5t40.5 92.5t56 62.5t78.5 36t100 18.5t127 4q75 0 125.5 -4t99 -18.5t77.5 -36t55.5 -62.5t40 -92.5t24 -131.5t13.5 -173t3 -224q0 -132 -3 -226t-13.5 -175t-24 -132.5t-40 -93t-55.5 -63.5t-77.5 -36.5t-99 -18.5t-125.5 -4 q-76 0 -127 4t-100 18.5t-78.5 36.5t-56 63.5t-40.5 93t-24 132.5t-13.5 175t-3.5 226zM117 1782l131 125q32 -40 80 -54.5t86.5 -10t74.5 19.5q39 15 61 23t59.5 17.5t63.5 10t63 -4.5t69 -20.5t70.5 -42.5t76.5 -67l-135 -123q-33 34 -64 51t-66 15.5t-58 -7t-66 -20.5 q-35 -12 -53 -17.5t-51.5 -14.5t-55.5 -9.5t-53.5 -1t-57.5 9t-56 23.5t-59.5 39t-59.5 59zM289 737q0 -101 1.5 -173t7.5 -133.5t13.5 -100.5t22.5 -69.5t31 -46.5t43.5 -26.5t55.5 -13t71 -2.5q58 0 91.5 5t64 26.5t45 55t25.5 101.5t14 154t3 223q0 102 -1.5 173t-7 133 t-12.5 99.5t-22 68.5t-30.5 46.5t-43 25.5t-55.5 12.5t-71 2.5t-71 -2.5t-55.5 -12.5t-43.5 -25.5t-31 -46t-22.5 -69t-13.5 -99.5t-7.5 -133t-1.5 -173z" />
<glyph unicode="&#xd6;" d="M94 739q0 131 3.5 224t13.5 173t24 131.5t40.5 92.5t56 62.5t78.5 36t100 18.5t127 4q75 0 125.5 -4t99 -18.5t77.5 -36t55.5 -62.5t40 -92.5t24 -131.5t13.5 -173t3 -224q0 -132 -3 -226t-13.5 -175t-24 -132.5t-40 -93t-55.5 -63.5t-77.5 -36.5t-99 -18.5t-125.5 -4 q-76 0 -127 4t-100 18.5t-78.5 36.5t-56 63.5t-40.5 93t-24 132.5t-13.5 175t-3.5 226zM289 737q0 -101 1.5 -173t7.5 -133.5t13.5 -100.5t22.5 -69.5t31 -46.5t43.5 -26.5t55.5 -13t71 -2.5q58 0 91.5 5t64 26.5t45 55t25.5 101.5t14 154t3 223q0 102 -1.5 173t-7 133 t-12.5 99.5t-22 68.5t-30.5 46.5t-43 25.5t-55.5 12.5t-71 2.5t-71 -2.5t-55.5 -12.5t-43.5 -25.5t-31 -46t-22.5 -69t-13.5 -99.5t-7.5 -133t-1.5 -173zM293 1626v174h162v-174h-162zM618 1626v174h160v-174h-160z" />
<glyph unicode="&#xd8;" d="M66 4l86 154q-33 79 -45.5 215t-12.5 366q0 131 3.5 224t13.5 173t24 131.5t40.5 92.5t56 62.5t78.5 36t100 18.5t127 4q125 0 198.5 -15.5t120.5 -58.5l53 92l121 -69l-94 -168q39 -140 39 -523q0 -132 -3 -226t-13.5 -175t-24 -132.5t-40 -93t-55.5 -63.5t-77.5 -36.5 t-99 -18.5t-125.5 -4q-211 0 -293 51l-60 -104zM289 737q0 -221 10 -319l442 782q-25 61 -70 79.5t-136 18.5q-43 0 -71 -2.5t-55.5 -12.5t-43.5 -25.5t-31 -46t-22.5 -69t-13.5 -99.5t-7.5 -133t-1.5 -173zM350 229q26 -34 69 -45.5t116 -11.5q58 0 91.5 5t64 26.5t45 55 t25.5 101.5t14 154t3 223q0 108 -4 240z" />
<glyph unicode="&#xd9;" horiz-adv-x="1097" d="M123 739v731l194 -20v-711q0 -91 1 -152t5 -122.5t11 -99.5t19 -74.5t29 -56t41 -35.5t54.5 -21.5t71.5 -5.5t71.5 5.5t55 21.5t41 35t28.5 56.5t18.5 74.5t10.5 99.5t5 122.5t1 152v709l195 22v-731q0 -162 -8 -277t-29.5 -200t-51 -136.5t-80 -82.5t-109.5 -42 t-146 -11t-146 11t-110 42t-81.5 82.5t-52 136.5t-30 200t-8.5 277zM295 1888l106 162l408 -342l-123 -147z" />
<glyph unicode="&#xda;" horiz-adv-x="1097" d="M123 739v731l194 -20v-711q0 -91 1 -152t5 -122.5t11 -99.5t19 -74.5t29 -56t41 -35.5t54.5 -21.5t71.5 -5.5t71.5 5.5t55 21.5t41 35t28.5 56.5t18.5 74.5t10.5 99.5t5 122.5t1 152v709l195 22v-731q0 -162 -8 -277t-29.5 -200t-51 -136.5t-80 -82.5t-109.5 -42 t-146 -11t-146 11t-110 42t-81.5 82.5t-52 136.5t-30 200t-8.5 277zM291 1708l407 342l107 -162l-391 -327z" />
<glyph unicode="&#xdb;" horiz-adv-x="1097" d="M123 739v731l194 -20v-711q0 -91 1 -152t5 -122.5t11 -99.5t19 -74.5t29 -56t41 -35.5t54.5 -21.5t71.5 -5.5t71.5 5.5t55 21.5t41 35t28.5 56.5t18.5 74.5t10.5 99.5t5 122.5t1 152v709l195 22v-731q0 -162 -8 -277t-29.5 -200t-51 -136.5t-80 -82.5t-109.5 -42 t-146 -11t-146 11t-110 42t-81.5 82.5t-52 136.5t-30 200t-8.5 277zM170 1591l240 359h278l240 -359l-221 23l-134 188h-49l-133 -188z" />
<glyph unicode="&#xdc;" horiz-adv-x="1097" d="M123 739v731l194 -20v-711q0 -91 1 -152t5 -122.5t11 -99.5t19 -74.5t29 -56t41 -35.5t54.5 -21.5t71.5 -5.5t71.5 5.5t55 21.5t41 35t28.5 56.5t18.5 74.5t10.5 99.5t5 122.5t1 152v709l195 22v-731q0 -162 -8 -277t-29.5 -200t-51 -136.5t-80 -82.5t-109.5 -42 t-146 -11t-146 11t-110 42t-81.5 82.5t-52 136.5t-30 200t-8.5 277zM307 1626v174h162v-174h-162zM633 1626v174h160v-174h-160z" />
<glyph unicode="&#xdd;" horiz-adv-x="999" d="M53 1470l203 -18l244 -639l241 639l205 18l-346 -895v-575h-197v573zM244 1708l405 342l107 -162l-391 -327z" />
<glyph unicode="&#xde;" horiz-adv-x="1005" d="M123 -2v1472h194v-290h154q58 0 95 -1t82.5 -3.5t73.5 -8t61 -15t52.5 -23t40.5 -33.5t32.5 -46t21.5 -59.5t14 -75.5t4 -94l-6 -284h-2l2 -15l-174 -196h-451v-328h-194zM317 508h365l66 74v223q0 117 -45.5 154.5t-184.5 35.5h-201v-487z" />
<glyph unicode="&#xe0;" horiz-adv-x="813" d="M78 104q0 141 4.5 201.5t19.5 95t50 64.5q55 47 151.5 80.5t208.5 42.5v127q0 47 -37.5 67t-89.5 14t-106 -30v-86h-154v182q47 36 120 61.5t151 31t146.5 -9t113 -63.5t44.5 -126v-756h-145l-43 43v6q-147 -87 -332 -51zM170 1382l104 160l408 -340l-121 -147zM264 188 l37 -36q113 3 211 77v228q-66 -8 -125 -27t-86 -43q-25 -22 -31 -60.5t-6 -138.5z" />
<glyph unicode="&#xe1;" horiz-adv-x="813" d="M78 104q0 141 4.5 201.5t19.5 95t50 64.5q55 47 151.5 80.5t208.5 42.5v127q0 47 -37.5 67t-89.5 14t-106 -30v-86h-154v182q47 36 120 61.5t151 31t146.5 -9t113 -63.5t44.5 -126v-756h-145l-43 43v6q-147 -87 -332 -51zM166 1202l407 340l105 -160l-391 -327zM264 188 l37 -36q113 3 211 77v228q-66 -8 -125 -27t-86 -43q-25 -22 -31 -60.5t-6 -138.5z" />
<glyph unicode="&#xe2;" horiz-adv-x="813" d="M43 1085l240 359h280l240 -359l-223 21l-134 190h-47l-133 -190zM78 104q0 141 4.5 201.5t19.5 95t50 64.5q55 47 151.5 80.5t208.5 42.5v127q0 47 -37.5 67t-89.5 14t-106 -30v-86h-154v182q47 36 120 61.5t151 31t146.5 -9t113 -63.5t44.5 -126v-756h-145l-43 43v6 q-147 -87 -332 -51zM264 188l37 -36q113 3 211 77v228q-66 -8 -125 -27t-86 -43q-25 -22 -31 -60.5t-6 -138.5z" />
<glyph unicode="&#xe3;" horiz-adv-x="813" d="M6 1274l129 125q33 -39 81 -53t86.5 -9.5t74.5 19.5q56 21 86 30.5t83 16t93.5 -4t94 -42t106.5 -86.5l-135 -123q-33 34 -63.5 51t-66.5 16t-57 -6t-67 -20q-40 -13 -61 -19.5t-59.5 -15.5t-63.5 -8.5t-61.5 5t-66 19.5t-65 41t-68.5 64zM78 104q0 141 4.5 201.5 t19.5 95t50 64.5q55 47 151.5 80.5t208.5 42.5v127q0 47 -37.5 67t-89.5 14t-106 -30v-86h-154v182q47 36 120 61.5t151 31t146.5 -9t113 -63.5t44.5 -126v-756h-145l-43 43v6q-147 -87 -332 -51zM264 188l37 -36q113 3 211 77v228q-66 -8 -125 -27t-86 -43 q-25 -22 -31 -60.5t-6 -138.5z" />
<glyph unicode="&#xe4;" horiz-adv-x="813" d="M78 104q0 141 4.5 201.5t19.5 95t50 64.5q55 47 151.5 80.5t208.5 42.5v127q0 47 -37.5 67t-89.5 14t-106 -30v-86h-154v182q47 36 120 61.5t151 31t146.5 -9t113 -63.5t44.5 -126v-756h-145l-43 43v6q-147 -87 -332 -51zM180 1120v172h162v-172h-162zM264 188l37 -36 q113 3 211 77v228q-66 -8 -125 -27t-86 -43q-25 -22 -31 -60.5t-6 -138.5zM506 1120v172h162v-172h-162z" />
<glyph unicode="&#xe5;" horiz-adv-x="813" d="M78 104q0 141 4.5 201.5t19.5 95t50 64.5q55 47 151.5 80.5t208.5 42.5v127q0 47 -37.5 67t-89.5 14t-106 -30v-86h-154v182q47 36 120 61.5t151 31t146.5 -9t113 -63.5t44.5 -126v-756h-145l-43 43v6q-147 -87 -332 -51zM233 1247q0 117 41 160t150 43q107 0 146.5 -43 t39.5 -160t-39.5 -160t-146.5 -43q-109 0 -150 43t-41 160zM264 188l37 -36q113 3 211 77v228q-66 -8 -125 -27t-86 -43q-25 -22 -31 -60.5t-6 -138.5zM350 1247q0 -52 15.5 -71t58.5 -19q41 0 56.5 19t15.5 71t-15.5 71t-56.5 19q-43 0 -58.5 -19t-15.5 -71z" />
<glyph unicode="&#xe6;" horiz-adv-x="1196" d="M78 104q0 141 4.5 201.5t19.5 95t50 64.5q55 47 151.5 80.5t208.5 42.5v127q0 47 -37.5 67t-89.5 14t-106 -30v-86h-154v182q74 55 160 77t161.5 13t135.5 -45l32 35q89 14 236 14q52 0 99.5 -3.5t68.5 -6.5l22 -4l101 -108v-91q0 -132 -13 -181t-63 -89 q-109 -86 -365 -104v-138q12 -55 81.5 -65t149 13.5t132.5 62.5l90 -144q-82 -61 -206.5 -91.5t-239.5 -15.5t-164 79q-159 -111 -363 -72zM264 188l37 -36q113 3 211 77v228q-66 -8 -125 -27t-86 -43q-25 -22 -31 -60.5t-6 -138.5zM698 745q2 -10 2 -30v-213q157 14 218 63 q22 17 32.5 45t11 60.5t-0.5 72.5l-35 39l-3 1q-3 1 -10.5 3t-19.5 3.5t-33 2.5t-47 1q-28 0 -84 -9l-31 -34v-5z" />
<glyph unicode="&#xe7;" horiz-adv-x="727" d="M88 162v672l105 108q46 14 243 14q56 0 106.5 -3.5t73.5 -6.5l23 -4v-280h-139v114q-20 2 -64 2q-55 0 -121 -4l-41 -39v-487q0 -47 40.5 -67t94 -13.5t105.5 24.5t78 39l96 -149q-56 -43 -150 -69t-188 -25l-12 -37q99 -18 153 -74.5t54 -136.5l-119 -143 q-41 -9 -145 -9q-131 0 -140 9l33 116q36 -4 105 -4l63 2l57 66q-40 69 -192 69l39 152q-73 16 -115.5 57t-42.5 107z" />
<glyph unicode="&#xe8;" horiz-adv-x="774" d="M88 162v672l105 108q86 14 233 14q52 0 100 -3.5t70 -6.5l22 -4l99 -108v-91q0 -134 -12.5 -182t-61.5 -88q-115 -88 -369 -106v-115q0 -51 41.5 -72.5t100 -15.5t120 27t103.5 51l92 -144q-58 -43 -142 -72t-170 -36t-161 5t-122.5 55.5t-47.5 111.5zM152 1374l104 160 l408 -340l-121 -147zM274 502q159 14 220 63q22 17 32.5 45.5t10.5 61.5v73l-33 37l-4 1q-3 1 -10.5 3t-19.5 3.5t-33.5 2.5t-47.5 1t-82 -9l-33 -36v-246z" />
<glyph unicode="&#xe9;" horiz-adv-x="774" d="M88 162v672l105 108q86 14 233 14q52 0 100 -3.5t70 -6.5l22 -4l99 -108v-91q0 -134 -12.5 -182t-61.5 -88q-115 -88 -369 -106v-115q0 -51 41.5 -72.5t100 -15.5t120 27t103.5 51l92 -144q-58 -43 -142 -72t-170 -36t-161 5t-122.5 55.5t-47.5 111.5zM147 1194l408 340 l104 -160l-391 -327zM274 502q159 14 220 63q22 17 32.5 45.5t10.5 61.5v73l-33 37l-4 1q-3 1 -10.5 3t-19.5 3.5t-33.5 2.5t-47.5 1t-82 -9l-33 -36v-246z" />
<glyph unicode="&#xea;" horiz-adv-x="774" d="M25 1077l239 359h281l239 -359l-223 23l-133 188h-47l-133 -188zM88 162v672l105 108q86 14 233 14q52 0 100 -3.5t70 -6.5l22 -4l99 -108v-91q0 -134 -12.5 -182t-61.5 -88q-115 -88 -369 -106v-115q0 -51 41.5 -72.5t100 -15.5t120 27t103.5 51l92 -144 q-58 -43 -142 -72t-170 -36t-161 5t-122.5 55.5t-47.5 111.5zM274 502q159 14 220 63q22 17 32.5 45.5t10.5 61.5v73l-33 37l-4 1q-3 1 -10.5 3t-19.5 3.5t-33.5 2.5t-47.5 1t-82 -9l-33 -36v-246z" />
<glyph unicode="&#xeb;" horiz-adv-x="774" d="M88 162v672l105 108q86 14 233 14q52 0 100 -3.5t70 -6.5l22 -4l99 -108v-91q0 -134 -12.5 -182t-61.5 -88q-115 -88 -369 -106v-115q0 -51 41.5 -72.5t100 -15.5t120 27t103.5 51l92 -144q-58 -43 -142 -72t-170 -36t-161 5t-122.5 55.5t-47.5 111.5zM162 1112v174h162 v-174h-162zM274 502q159 14 220 63q22 17 32.5 45.5t10.5 61.5v73l-33 37l-4 1q-3 1 -10.5 3t-19.5 3.5t-33.5 2.5t-47.5 1t-82 -9l-33 -36v-246zM487 1112v174h162v-174h-162z" />
<glyph unicode="&#xec;" horiz-adv-x="415" d="M-43 1374l106 160l408 -340l-123 -147zM115 0v952l186 -22v-930h-186z" />
<glyph unicode="&#xed;" horiz-adv-x="415" d="M-47 1194l407 340l107 -160l-391 -327zM115 0v952l186 -22v-930h-186z" />
<glyph unicode="&#xee;" horiz-adv-x="415" d="M-170 1077l242 359h278l240 -359l-221 23l-133 188h-50l-133 -188zM115 0v952l186 -22v-930h-186z" />
<glyph unicode="&#xef;" horiz-adv-x="415" d="M-31 1112v174h160v-174h-160zM115 0v952l186 -22v-930h-186zM293 1112v174h162v-174h-162z" />
<glyph unicode="&#xf1;" horiz-adv-x="880" d="M25 1233l131 125q33 -39 80 -53t85.5 -9.5t75.5 19.5q56 21 86 30.5t83 16t93.5 -4t94 -42t106.5 -86.5l-135 -123q-33 34 -64 51t-66.5 16t-57.5 -6t-66 -20q-35 -12 -53 -17.5t-51.5 -14.5t-55.5 -10t-53.5 -1t-57.5 9t-56 23t-59.5 39t-59.5 58zM115 0v956l194 -24 v-78q191 100 348 100l109 -118v-836h-193v725l-36 37q-116 -22 -228 -64v-698h-194z" />
<glyph unicode="&#xf2;" horiz-adv-x="819" d="M88 471q0 84 2.5 143t9.5 111.5t17 86t29 61t41 42t57.5 25t74.5 13.5t95 3q73 0 119 -6t84.5 -26t58.5 -51t34 -88.5t18.5 -129.5t4.5 -184q0 -95 -3.5 -160t-11.5 -120t-25 -88t-39 -57.5t-58.5 -36t-78 -16.5t-103.5 -5q-75 0 -122.5 6t-86.5 26t-59.5 50.5t-35 88.5 t-18.5 129t-4 183zM160 1374l106 160l406 -340l-121 -147zM274 471q0 -74 1.5 -118.5t7.5 -82t14 -55.5t25 -30.5t37 -15.5t53 -3t52.5 3t35.5 16t24 30.5t13.5 55.5t6.5 81.5t1 118.5t-1 119t-6.5 82.5t-13.5 56t-24 30.5t-35.5 16t-52.5 3t-53 -3t-37 -15.5t-25 -31 t-14 -56t-7.5 -82.5t-1.5 -119z" />
<glyph unicode="&#xf3;" horiz-adv-x="819" d="M88 471q0 84 2.5 143t9.5 111.5t17 86t29 61t41 42t57.5 25t74.5 13.5t95 3q73 0 119 -6t84.5 -26t58.5 -51t34 -88.5t18.5 -129.5t4.5 -184q0 -95 -3.5 -160t-11.5 -120t-25 -88t-39 -57.5t-58.5 -36t-78 -16.5t-103.5 -5q-75 0 -122.5 6t-86.5 26t-59.5 50.5t-35 88.5 t-18.5 129t-4 183zM156 1194l407 340l105 -160l-392 -327zM274 471q0 -74 1.5 -118.5t7.5 -82t14 -55.5t25 -30.5t37 -15.5t53 -3t52.5 3t35.5 16t24 30.5t13.5 55.5t6.5 81.5t1 118.5t-1 119t-6.5 82.5t-13.5 56t-24 30.5t-35.5 16t-52.5 3t-53 -3t-37 -15.5t-25 -31 t-14 -56t-7.5 -82.5t-1.5 -119z" />
<glyph unicode="&#xf4;" horiz-adv-x="819" d="M33 1077l239 359h281l240 -359l-224 23l-133 188h-47l-133 -188zM88 471q0 84 2.5 143t9.5 111.5t17 86t29 61t41 42t57.5 25t74.5 13.5t95 3q73 0 119 -6t84.5 -26t58.5 -51t34 -88.5t18.5 -129.5t4.5 -184q0 -95 -3.5 -160t-11.5 -120t-25 -88t-39 -57.5t-58.5 -36 t-78 -16.5t-103.5 -5q-75 0 -122.5 6t-86.5 26t-59.5 50.5t-35 88.5t-18.5 129t-4 183zM274 471q0 -74 1.5 -118.5t7.5 -82t14 -55.5t25 -30.5t37 -15.5t53 -3t52.5 3t35.5 16t24 30.5t13.5 55.5t6.5 81.5t1 118.5t-1 119t-6.5 82.5t-13.5 56t-24 30.5t-35.5 16t-52.5 3 t-53 -3t-37 -15.5t-25 -31t-14 -56t-7.5 -82.5t-1.5 -119z" />
<glyph unicode="&#xf5;" horiz-adv-x="819" d="M-4 1268l129 125q33 -40 81 -54.5t86.5 -10t74.5 19.5q39 15 61 23t59.5 17.5t63.5 10t63 -4.5t68.5 -20.5t70 -42.5t76.5 -67l-135 -125q-22 24 -43.5 39.5t-44 21.5t-39.5 8t-42.5 -3.5t-40 -10t-44.5 -14.5q-35 -12 -53 -17.5t-51.5 -14.5t-55.5 -9.5t-53.5 -1t-57 9 t-55.5 23.5t-59.5 39t-58.5 59zM88 471q0 84 2.5 143t9.5 111.5t17 86t29 61t41 42t57.5 25t74.5 13.5t95 3q73 0 119 -6t84.5 -26t58.5 -51t34 -88.5t18.5 -129.5t4.5 -184q0 -95 -3.5 -160t-11.5 -120t-25 -88t-39 -57.5t-58.5 -36t-78 -16.5t-103.5 -5q-75 0 -122.5 6 t-86.5 26t-59.5 50.5t-35 88.5t-18.5 129t-4 183zM274 471q0 -74 1.5 -118.5t7.5 -82t14 -55.5t25 -30.5t37 -15.5t53 -3t52.5 3t35.5 16t24 30.5t13.5 55.5t6.5 81.5t1 118.5t-1 119t-6.5 82.5t-13.5 56t-24 30.5t-35.5 16t-52.5 3t-53 -3t-37 -15.5t-25 -31t-14 -56 t-7.5 -82.5t-1.5 -119z" />
<glyph unicode="&#xf6;" horiz-adv-x="819" d="M88 471q0 84 2.5 143t9.5 111.5t17 86t29 61t41 42t57.5 25t74.5 13.5t95 3q73 0 119 -6t84.5 -26t58.5 -51t34 -88.5t18.5 -129.5t4.5 -184q0 -95 -3.5 -160t-11.5 -120t-25 -88t-39 -57.5t-58.5 -36t-78 -16.5t-103.5 -5q-75 0 -122.5 6t-86.5 26t-59.5 50.5t-35 88.5 t-18.5 129t-4 183zM170 1112v174h162v-174h-162zM274 471q0 -74 1.5 -118.5t7.5 -82t14 -55.5t25 -30.5t37 -15.5t53 -3t52.5 3t35.5 16t24 30.5t13.5 55.5t6.5 81.5t1 118.5t-1 119t-6.5 82.5t-13.5 56t-24 30.5t-35.5 16t-52.5 3t-53 -3t-37 -15.5t-25 -31t-14 -56 t-7.5 -82.5t-1.5 -119zM496 1112v174h161v-174h-161z" />
<glyph unicode="&#xf7;" horiz-adv-x="1234" d="M164 635v156h907v-156h-907zM528 291v188h181v-188h-181zM528 946v189h181v-189h-181z" />
<glyph unicode="&#xf8;" horiz-adv-x="827" d="M86 -16l55 94q-31 50 -42 140.5t-11 252.5q0 84 2.5 143t9.5 111.5t17 86t29 61t41 42t57.5 25t74.5 13.5t95 3q152 0 213 -36l43 75l92 -55l-64 -111q35 -96 35 -358q0 -95 -3.5 -160t-11.5 -120t-25 -88t-39 -57.5t-58.5 -36t-78 -16.5t-103.5 -5q-127 0 -189 22 l-47 -80zM274 471q0 -105 5 -156l241 420q-13 26 -37 34.5t-71 8.5q-33 0 -53 -3t-37 -15.5t-25 -31t-14 -56t-7.5 -82.5t-1.5 -119zM324 182q27 -16 88 -16q33 0 52.5 3t35.5 16t24 30.5t13.5 55.5t6.5 81.5t1 118.5v92z" />
<glyph unicode="&#xf9;" horiz-adv-x="856" d="M104 111v831l187 -20v-715l33 -37q139 10 241 43v707l187 22v-942h-148l-31 35q-145 -47 -360 -47zM170 1374l106 160l406 -340l-121 -147z" />
<glyph unicode="&#xfa;" horiz-adv-x="856" d="M104 111v831l187 -20v-715l33 -37q139 10 241 43v707l187 22v-942h-148l-31 35q-145 -47 -360 -47zM166 1194l407 340l105 -160l-389 -327z" />
<glyph unicode="&#xfb;" horiz-adv-x="856" d="M43 1077l240 359h280l240 -359l-223 23l-134 188h-47l-133 -188zM104 111v831l187 -20v-715l33 -37q139 10 241 43v707l187 22v-942h-148l-31 35q-145 -47 -360 -47z" />
<glyph unicode="&#xfc;" horiz-adv-x="856" d="M104 111v831l187 -20v-715l33 -37q139 10 241 43v707l187 22v-942h-148l-31 35q-145 -47 -360 -47zM182 1112v174h160v-174h-160zM506 1112v174h162v-174h-162z" />
<glyph unicode="&#xfd;" horiz-adv-x="856" d="M10 952l197 -20l190 -610h45l195 608l209 22l-447 -1401l-174 87l135 423h-77zM170 1194l408 340l104 -160l-389 -327z" />
<glyph unicode="&#xff;" horiz-adv-x="856" d="M10 952l197 -20l190 -610h45l195 608l209 22l-447 -1401l-174 87l135 423h-77zM186 1112v174h160v-174h-160zM510 1112v174h162v-174h-162z" />
<glyph unicode="&#x152;" horiz-adv-x="1574" d="M94 739q0 131 3.5 224t13.5 173t24 131.5t40.5 92.5t56 62.5t78.5 36t100 18.5t127 4q148 0 243 -72v61h682l-41 -182h-444v-479h377v-184h-377v-443h489l47 -182h-733v63q-93 -73 -243 -73q-76 0 -127 4t-100 18.5t-78.5 36.5t-56 63.5t-40.5 93t-24 132.5t-13.5 175 t-3.5 226zM289 737q0 -101 1.5 -173t7.5 -133.5t13.5 -100.5t22.5 -69.5t31 -46.5t43.5 -26.5t55.5 -13t71 -2.5q98 0 148.5 48t72.5 167t22 350q0 230 -22 348t-72.5 165.5t-148.5 47.5q-43 0 -71 -2.5t-55.5 -12.5t-43.5 -25.5t-31 -46t-22.5 -69t-13.5 -99.5t-7.5 -133 t-1.5 -173z" />
<glyph unicode="&#x153;" horiz-adv-x="1230" d="M88 471q0 84 2.5 143t9.5 111.5t17 86t29 61t41 42t57.5 25t74.5 13.5t95 3q127 0 196 -55l39 41q89 14 236 14q52 0 99.5 -3.5t69.5 -6.5l21 -4l101 -108v-91q0 -132 -13 -181t-63 -89q-107 -85 -367 -106v-115q0 -51 41.5 -72.5t100 -15.5t120 27t103.5 51l90 -144 q-117 -87 -299.5 -108t-282.5 49q-68 -51 -192 -51q-75 0 -122.5 6t-86.5 26t-59.5 50.5t-35 88.5t-18.5 129t-4 183zM274 471q0 -74 1.5 -118.5t7.5 -82t14 -55.5t25 -30.5t37 -15.5t53 -3t52.5 3t35.5 16t24 30.5t13.5 55.5t6.5 81.5t1 118.5t-1 119t-6.5 82.5t-13.5 56 t-24 30.5t-35.5 16t-52.5 3t-53 -3t-37 -15.5t-25 -31t-14 -56t-7.5 -82.5t-1.5 -119zM733 502q158 14 219 63q22 17 32.5 45t11 60.5t-0.5 72.5l-34 39l-3 1q-3 1 -10.5 3t-19.5 3.5t-33 2.5t-47 1q-28 0 -84 -9l-31 -34v-248z" />
<glyph unicode="&#x178;" horiz-adv-x="999" d="M53 1470l203 -18l244 -639l241 639l205 18l-346 -895v-575h-197v573zM258 1626v174h162v-174h-162zM584 1626v174h159v-174h-159z" />
<glyph unicode="&#x2c6;" horiz-adv-x="923" d="M82 1602l240 356h280l240 -356l-224 20l-135 190h-43l-135 -190z" />
<glyph unicode="&#x2dc;" horiz-adv-x="999" d="M82 1790l131 125q33 -40 80.5 -54.5t86 -10t75.5 19.5q39 15 61 23t59.5 17.5t63.5 10t63 -4.5t69 -20.5t70.5 -42.5t76.5 -67l-136 -123q-27 28 -55 43.5t-49 21t-51 1.5t-47 -9.5t-52 -17.5q-39 -13 -60.5 -19.5t-60 -15t-64 -8.5t-62 5t-66 19.5t-65 41.5t-68.5 65z " />
<glyph unicode="&#x2000;" horiz-adv-x="1029" />
<glyph unicode="&#x2001;" horiz-adv-x="2058" />
<glyph unicode="&#x2002;" horiz-adv-x="1029" />
<glyph unicode="&#x2003;" horiz-adv-x="2058" />
<glyph unicode="&#x2004;" horiz-adv-x="686" />
<glyph unicode="&#x2005;" horiz-adv-x="514" />
<glyph unicode="&#x2006;" horiz-adv-x="343" />
<glyph unicode="&#x2007;" horiz-adv-x="343" />
<glyph unicode="&#x2008;" horiz-adv-x="257" />
<glyph unicode="&#x2009;" horiz-adv-x="411" />
<glyph unicode="&#x200a;" horiz-adv-x="114" />
<glyph unicode="&#x2010;" horiz-adv-x="784" d="M123 430v156h539v-156h-539z" />
<glyph unicode="&#x2011;" horiz-adv-x="784" d="M123 430v156h539v-156h-539z" />
<glyph unicode="&#x2012;" horiz-adv-x="784" d="M123 430v156h539v-156h-539z" />
<glyph unicode="&#x2013;" horiz-adv-x="1275" d="M123 430v156h1030v-156h-1030z" />
<glyph unicode="&#x2014;" horiz-adv-x="1542" d="M123 430v156h1296v-156h-1296z" />
<glyph unicode="&#x2018;" horiz-adv-x="432" d="M82 1161v109l125 387l143 -21l-108 -366v-109h-160z" />
<glyph unicode="&#x2019;" horiz-adv-x="432" d="M82 1182l108 368v107h160v-107l-125 -389z" />
<glyph unicode="&#x201a;" horiz-adv-x="1228" d="M106 -299l93 367v106h178v-106l-131 -387z" />
<glyph unicode="&#x201c;" horiz-adv-x="716" d="M82 1161v109l125 387l143 -21l-108 -366v-109h-160zM381 1161v109l115 387l139 -21l-92 -366v-109h-162z" />
<glyph unicode="&#x201d;" horiz-adv-x="716" d="M82 1182l92 368v105h162v-105l-115 -389zM367 1182l108 368v107h160v-107l-125 -389z" />
<glyph unicode="&#x201e;" horiz-adv-x="1228" d="M106 -299l93 367v106h178v-106l-131 -387z" />
<glyph unicode="&#x2022;" horiz-adv-x="567" d="M82 358v428h403v-428h-403z" />
<glyph unicode="&#x2026;" horiz-adv-x="1228" d="M86 0v215h213v-215h-213z" />
<glyph unicode="&#x202f;" horiz-adv-x="411" />
<glyph unicode="&#x2039;" horiz-adv-x="870" d="M123 432v133l625 494l-21 -217l-428 -326v-35l428 -327l21 -215z" />
<glyph unicode="&#x203a;" horiz-adv-x="870" d="M123 -61l20 215l428 327v35l-428 326l-20 217l625 -494v-133z" />
<glyph unicode="&#x205f;" horiz-adv-x="514" />
<glyph unicode="&#x20ac;" horiz-adv-x="1386" d="M205 498v133h145v164h-145v133h145v53q0 107 22.5 192.5t61 140t90.5 92.5t111.5 53.5t123 19.5t125 -6.5t118.5 -27.5t102.5 -39.5t77.5 -47.5l-109 -150q-16 17 -51.5 35.5t-84 32.5t-101.5 20t-105 -8t-93.5 -46t-67 -99t-25.5 -162v-53h440v-133h-440v-164h440v-133 h-440v-15q0 -95 25.5 -162t67 -98.5t93.5 -45.5t105 -8t101.5 20.5t84 33t51.5 35.5l109 -152q-32 -25 -77.5 -47.5t-102.5 -39.5t-118.5 -27.5t-125 -6.5t-123 19.5t-111.5 53.5t-90.5 92.5t-61 140t-22.5 192.5v15h-145z" />
<glyph unicode="&#x25fc;" horiz-adv-x="952" d="M0 0v952h952v-952h-952z" />
</font>
</defs>
</svg>
